%
M48
M72
T01C0.0240
T02C0.0276
T03C0.0315
T04C0.0320
T05C0.0400
T06C0.0440
T07C0.1260
T08C0.1300
%
T01
X21600Y17100
X22600Y17100
X23600Y17100
X15100Y23100
X15100Y24100
X15100Y25100
X9600Y24600
X9600Y23600
X9600Y25600
X2600Y25600
X2600Y26600
X2600Y27600
X38100Y26100
X38100Y27100
X38100Y28100
T02
X24850Y26100
X25850Y26100
T03
X6100Y8350
X6100Y10350
X21600Y18350
X19600Y18850
X32100Y16100
X32100Y18100
X30100Y1100
X32100Y1100
T04
X2850Y29850
X5100Y28100
X5100Y27100
X5100Y26100
X5100Y25100
X4100Y25100
X4100Y24100
X2100Y22600
X2100Y19600
X1100Y19600
X3600Y19600
X3600Y17100
X2100Y17100
X1100Y17100
X1100Y14600
X2100Y14600
X3600Y14600
X3600Y12100
X2100Y12100
X1100Y12100
X7600Y12100
X9600Y12600
X11100Y12100
X12100Y12100
X13100Y12100
X14100Y12100
X15100Y12100
X16100Y12100
X17100Y12100
X18100Y12100
X19100Y12100
X20100Y12100
X21100Y12100
X22100Y12100
X23100Y12100
X24100Y12100
X24100Y9100
X23100Y9100
X22100Y9100
X21100Y9100
X20100Y9100
X19100Y9100
X18100Y9100
X17100Y9100
X16100Y9100
X15100Y9100
X14100Y9100
X13100Y9100
X12100Y9100
X11100Y9100
X9600Y8600
X11100Y7100
X12100Y7100
X16100Y7600
X17100Y7600
X17100Y6100
X17100Y5100
X19150Y6100
X21050Y6100
X23100Y6100
X23100Y5100
X31100Y3850
X31100Y2850
X31100Y6350
X31100Y7350
X32850Y7600
X33850Y7600
X33350Y6350
X34350Y6350
X36350Y6850
X37350Y6850
X34085Y10100
X32115Y10100
X31365Y13600
X33335Y13600
X34600Y17100
X34600Y18100
X33350Y19600
X32350Y19600
X33600Y21100
X33600Y22100
X33100Y23100
X32100Y23100
X32100Y24100
X33100Y24100
X33600Y26600
X33600Y27600
X33600Y28600
X33600Y29600
X35100Y27600
X35100Y26600
X30600Y26600
X30600Y27600
X30600Y28600
X30600Y29600
X29100Y28100
X28100Y28100
X28100Y27100
X29100Y27100
X25850Y23850
X24850Y23850
X20600Y23100
X20100Y25100
X20100Y26100
X20100Y27100
X20100Y28100
X21100Y29600
X21100Y30600
X17100Y28100
X17100Y27100
X17100Y26100
X17100Y25100
X15100Y26600
X14100Y26600
X15600Y28600
X14600Y30100
X13600Y30100
X11600Y29600
X11600Y28600
X11600Y30600
X9100Y28100
X8100Y28100
X8100Y27100
X9100Y27100
X8100Y26100
X8100Y25100
X6100Y22600
X7600Y19600
X7600Y17100
X7600Y14600
X14100Y15100
X14100Y16100
X15100Y15600
X15100Y16600
X15100Y17600
X18100Y17600
X18100Y16600
X18100Y15600
X19100Y15600
X19100Y16600
X18100Y14600
X19100Y13350
X20100Y13350
X15100Y14600
X16600Y23100
X6850Y29850
X15100Y3100
X14100Y3100
X12100Y2600
X11100Y2600
T05
X4240Y7820
X2460Y7820
X2460Y10380
X4240Y10380
X14100Y1600
X15100Y1600
X16100Y1600
X17100Y1600
X18100Y1600
X19100Y1600
X20100Y1600
X21100Y1600
X23100Y1600
X24100Y1600
X25100Y1600
X26100Y1600
X27100Y1600
X28100Y1600
X28350Y5600
X28350Y7600
X28150Y10600
X29150Y10600
X29150Y11600
X28150Y11600
X28150Y12600
X29150Y12600
X28100Y20600
X27100Y20600
X26100Y20600
X25100Y20600
X24100Y20600
X23100Y20600
X22100Y20600
X21100Y20600
X19500Y20600
X18500Y20600
X17500Y20600
X16500Y20600
X15500Y20600
X14500Y20600
X13500Y20600
X12500Y20600
X11500Y20600
X10500Y20600
X22600Y24100
X22600Y25100
X22600Y26100
X22600Y27100
X22600Y28100
X22600Y29100
X25350Y30100
X26350Y30100
X27350Y30100
X29600Y24600
X29600Y22600
X35260Y20600
X36600Y20600
X37940Y20600
X37270Y22240
X35930Y22240
X37100Y18600
X37100Y16600
X37600Y14100
X37600Y13100
X37600Y12100
X38100Y9350
X36100Y9350
X36600Y5100
X35260Y5100
X35930Y3460
X37270Y3460
X37940Y5100
T06
X10100Y4100
X10100Y5100
X10100Y6100
X30100Y17525
X30100Y20675
X33600Y4675
X33600Y1525
T07
X8600Y1600
X29100Y3600
X29100Y14600
X9100Y20600
T08
X4200Y5100
M30
