G75*
%MOIN*%
%OFA0B0*%
%FSLAX24Y24*%
%IPPOS*%
%LPD*%
%AMOC8*
5,1,8,0,0,1.08239X$1,22.5*
%
%ADD10C,0.0000*%
%ADD11OC8,0.0670*%
%ADD12C,0.1040*%
%ADD13OC8,0.1040*%
%ADD14C,0.0690*%
%ADD15R,0.0690X0.0690*%
%ADD16C,0.0800*%
%ADD17C,0.0780*%
%ADD18C,0.0560*%
%ADD19C,0.0640*%
%ADD20OC8,0.0700*%
%ADD21C,0.1300*%
%ADD22R,0.0540X0.0290*%
%ADD23C,0.0048*%
%ADD24OC8,0.0780*%
%ADD25C,0.0480*%
%ADD26OC8,0.0560*%
%ADD27C,0.0560*%
%ADD28C,0.0700*%
%ADD29C,0.1340*%
D10*
X000100Y000100D02*
X000100Y031596D01*
X039470Y031596D01*
X039470Y000100D01*
X000100Y000100D01*
X003550Y005100D02*
X003552Y005150D01*
X003558Y005200D01*
X003568Y005250D01*
X003581Y005298D01*
X003598Y005346D01*
X003619Y005392D01*
X003643Y005436D01*
X003671Y005478D01*
X003702Y005518D01*
X003736Y005555D01*
X003773Y005590D01*
X003812Y005621D01*
X003853Y005650D01*
X003897Y005675D01*
X003943Y005697D01*
X003990Y005715D01*
X004038Y005729D01*
X004087Y005740D01*
X004137Y005747D01*
X004187Y005750D01*
X004238Y005749D01*
X004288Y005744D01*
X004338Y005735D01*
X004386Y005723D01*
X004434Y005706D01*
X004480Y005686D01*
X004525Y005663D01*
X004568Y005636D01*
X004608Y005606D01*
X004646Y005573D01*
X004681Y005537D01*
X004714Y005498D01*
X004743Y005457D01*
X004769Y005414D01*
X004792Y005369D01*
X004811Y005322D01*
X004826Y005274D01*
X004838Y005225D01*
X004846Y005175D01*
X004850Y005125D01*
X004850Y005075D01*
X004846Y005025D01*
X004838Y004975D01*
X004826Y004926D01*
X004811Y004878D01*
X004792Y004831D01*
X004769Y004786D01*
X004743Y004743D01*
X004714Y004702D01*
X004681Y004663D01*
X004646Y004627D01*
X004608Y004594D01*
X004568Y004564D01*
X004525Y004537D01*
X004480Y004514D01*
X004434Y004494D01*
X004386Y004477D01*
X004338Y004465D01*
X004288Y004456D01*
X004238Y004451D01*
X004187Y004450D01*
X004137Y004453D01*
X004087Y004460D01*
X004038Y004471D01*
X003990Y004485D01*
X003943Y004503D01*
X003897Y004525D01*
X003853Y004550D01*
X003812Y004579D01*
X003773Y004610D01*
X003736Y004645D01*
X003702Y004682D01*
X003671Y004722D01*
X003643Y004764D01*
X003619Y004808D01*
X003598Y004854D01*
X003581Y004902D01*
X003568Y004950D01*
X003558Y005000D01*
X003552Y005050D01*
X003550Y005100D01*
X007970Y001600D02*
X007972Y001650D01*
X007978Y001700D01*
X007988Y001749D01*
X008002Y001797D01*
X008019Y001844D01*
X008040Y001889D01*
X008065Y001933D01*
X008093Y001974D01*
X008125Y002013D01*
X008159Y002050D01*
X008196Y002084D01*
X008236Y002114D01*
X008278Y002141D01*
X008322Y002165D01*
X008368Y002186D01*
X008415Y002202D01*
X008463Y002215D01*
X008513Y002224D01*
X008562Y002229D01*
X008613Y002230D01*
X008663Y002227D01*
X008712Y002220D01*
X008761Y002209D01*
X008809Y002194D01*
X008855Y002176D01*
X008900Y002154D01*
X008943Y002128D01*
X008984Y002099D01*
X009023Y002067D01*
X009059Y002032D01*
X009091Y001994D01*
X009121Y001954D01*
X009148Y001911D01*
X009171Y001867D01*
X009190Y001821D01*
X009206Y001773D01*
X009218Y001724D01*
X009226Y001675D01*
X009230Y001625D01*
X009230Y001575D01*
X009226Y001525D01*
X009218Y001476D01*
X009206Y001427D01*
X009190Y001379D01*
X009171Y001333D01*
X009148Y001289D01*
X009121Y001246D01*
X009091Y001206D01*
X009059Y001168D01*
X009023Y001133D01*
X008984Y001101D01*
X008943Y001072D01*
X008900Y001046D01*
X008855Y001024D01*
X008809Y001006D01*
X008761Y000991D01*
X008712Y000980D01*
X008663Y000973D01*
X008613Y000970D01*
X008562Y000971D01*
X008513Y000976D01*
X008463Y000985D01*
X008415Y000998D01*
X008368Y001014D01*
X008322Y001035D01*
X008278Y001059D01*
X008236Y001086D01*
X008196Y001116D01*
X008159Y001150D01*
X008125Y001187D01*
X008093Y001226D01*
X008065Y001267D01*
X008040Y001311D01*
X008019Y001356D01*
X008002Y001403D01*
X007988Y001451D01*
X007978Y001500D01*
X007972Y001550D01*
X007970Y001600D01*
X028470Y003600D02*
X028472Y003650D01*
X028478Y003700D01*
X028488Y003749D01*
X028502Y003797D01*
X028519Y003844D01*
X028540Y003889D01*
X028565Y003933D01*
X028593Y003974D01*
X028625Y004013D01*
X028659Y004050D01*
X028696Y004084D01*
X028736Y004114D01*
X028778Y004141D01*
X028822Y004165D01*
X028868Y004186D01*
X028915Y004202D01*
X028963Y004215D01*
X029013Y004224D01*
X029062Y004229D01*
X029113Y004230D01*
X029163Y004227D01*
X029212Y004220D01*
X029261Y004209D01*
X029309Y004194D01*
X029355Y004176D01*
X029400Y004154D01*
X029443Y004128D01*
X029484Y004099D01*
X029523Y004067D01*
X029559Y004032D01*
X029591Y003994D01*
X029621Y003954D01*
X029648Y003911D01*
X029671Y003867D01*
X029690Y003821D01*
X029706Y003773D01*
X029718Y003724D01*
X029726Y003675D01*
X029730Y003625D01*
X029730Y003575D01*
X029726Y003525D01*
X029718Y003476D01*
X029706Y003427D01*
X029690Y003379D01*
X029671Y003333D01*
X029648Y003289D01*
X029621Y003246D01*
X029591Y003206D01*
X029559Y003168D01*
X029523Y003133D01*
X029484Y003101D01*
X029443Y003072D01*
X029400Y003046D01*
X029355Y003024D01*
X029309Y003006D01*
X029261Y002991D01*
X029212Y002980D01*
X029163Y002973D01*
X029113Y002970D01*
X029062Y002971D01*
X029013Y002976D01*
X028963Y002985D01*
X028915Y002998D01*
X028868Y003014D01*
X028822Y003035D01*
X028778Y003059D01*
X028736Y003086D01*
X028696Y003116D01*
X028659Y003150D01*
X028625Y003187D01*
X028593Y003226D01*
X028565Y003267D01*
X028540Y003311D01*
X028519Y003356D01*
X028502Y003403D01*
X028488Y003451D01*
X028478Y003500D01*
X028472Y003550D01*
X028470Y003600D01*
X028470Y014600D02*
X028472Y014650D01*
X028478Y014700D01*
X028488Y014749D01*
X028502Y014797D01*
X028519Y014844D01*
X028540Y014889D01*
X028565Y014933D01*
X028593Y014974D01*
X028625Y015013D01*
X028659Y015050D01*
X028696Y015084D01*
X028736Y015114D01*
X028778Y015141D01*
X028822Y015165D01*
X028868Y015186D01*
X028915Y015202D01*
X028963Y015215D01*
X029013Y015224D01*
X029062Y015229D01*
X029113Y015230D01*
X029163Y015227D01*
X029212Y015220D01*
X029261Y015209D01*
X029309Y015194D01*
X029355Y015176D01*
X029400Y015154D01*
X029443Y015128D01*
X029484Y015099D01*
X029523Y015067D01*
X029559Y015032D01*
X029591Y014994D01*
X029621Y014954D01*
X029648Y014911D01*
X029671Y014867D01*
X029690Y014821D01*
X029706Y014773D01*
X029718Y014724D01*
X029726Y014675D01*
X029730Y014625D01*
X029730Y014575D01*
X029726Y014525D01*
X029718Y014476D01*
X029706Y014427D01*
X029690Y014379D01*
X029671Y014333D01*
X029648Y014289D01*
X029621Y014246D01*
X029591Y014206D01*
X029559Y014168D01*
X029523Y014133D01*
X029484Y014101D01*
X029443Y014072D01*
X029400Y014046D01*
X029355Y014024D01*
X029309Y014006D01*
X029261Y013991D01*
X029212Y013980D01*
X029163Y013973D01*
X029113Y013970D01*
X029062Y013971D01*
X029013Y013976D01*
X028963Y013985D01*
X028915Y013998D01*
X028868Y014014D01*
X028822Y014035D01*
X028778Y014059D01*
X028736Y014086D01*
X028696Y014116D01*
X028659Y014150D01*
X028625Y014187D01*
X028593Y014226D01*
X028565Y014267D01*
X028540Y014311D01*
X028519Y014356D01*
X028502Y014403D01*
X028488Y014451D01*
X028478Y014500D01*
X028472Y014550D01*
X028470Y014600D01*
X008470Y020600D02*
X008472Y020650D01*
X008478Y020700D01*
X008488Y020749D01*
X008502Y020797D01*
X008519Y020844D01*
X008540Y020889D01*
X008565Y020933D01*
X008593Y020974D01*
X008625Y021013D01*
X008659Y021050D01*
X008696Y021084D01*
X008736Y021114D01*
X008778Y021141D01*
X008822Y021165D01*
X008868Y021186D01*
X008915Y021202D01*
X008963Y021215D01*
X009013Y021224D01*
X009062Y021229D01*
X009113Y021230D01*
X009163Y021227D01*
X009212Y021220D01*
X009261Y021209D01*
X009309Y021194D01*
X009355Y021176D01*
X009400Y021154D01*
X009443Y021128D01*
X009484Y021099D01*
X009523Y021067D01*
X009559Y021032D01*
X009591Y020994D01*
X009621Y020954D01*
X009648Y020911D01*
X009671Y020867D01*
X009690Y020821D01*
X009706Y020773D01*
X009718Y020724D01*
X009726Y020675D01*
X009730Y020625D01*
X009730Y020575D01*
X009726Y020525D01*
X009718Y020476D01*
X009706Y020427D01*
X009690Y020379D01*
X009671Y020333D01*
X009648Y020289D01*
X009621Y020246D01*
X009591Y020206D01*
X009559Y020168D01*
X009523Y020133D01*
X009484Y020101D01*
X009443Y020072D01*
X009400Y020046D01*
X009355Y020024D01*
X009309Y020006D01*
X009261Y019991D01*
X009212Y019980D01*
X009163Y019973D01*
X009113Y019970D01*
X009062Y019971D01*
X009013Y019976D01*
X008963Y019985D01*
X008915Y019998D01*
X008868Y020014D01*
X008822Y020035D01*
X008778Y020059D01*
X008736Y020086D01*
X008696Y020116D01*
X008659Y020150D01*
X008625Y020187D01*
X008593Y020226D01*
X008565Y020267D01*
X008540Y020311D01*
X008519Y020356D01*
X008502Y020403D01*
X008488Y020451D01*
X008478Y020500D01*
X008472Y020550D01*
X008470Y020600D01*
D11*
X004100Y024100D03*
X004100Y025100D03*
X009100Y027100D03*
X009100Y028100D03*
X011600Y029600D03*
X011600Y030600D03*
X013600Y030100D03*
X014600Y030100D03*
X017100Y028100D03*
X017100Y027100D03*
X017100Y026100D03*
X017100Y025100D03*
X015100Y026600D03*
X014100Y026600D03*
X020100Y026100D03*
X020100Y025100D03*
X020100Y027100D03*
X020100Y028100D03*
X021100Y029600D03*
X021100Y030600D03*
X028100Y028100D03*
X029100Y028100D03*
X029100Y027100D03*
X028100Y027100D03*
X025850Y023850D03*
X024850Y023850D03*
X032100Y024100D03*
X033100Y024100D03*
X033100Y023100D03*
X032100Y023100D03*
X035100Y026600D03*
X035100Y027600D03*
X034600Y018100D03*
X034600Y017100D03*
X031100Y007350D03*
X031100Y006350D03*
X031100Y003850D03*
X031100Y002850D03*
X036350Y006850D03*
X037350Y006850D03*
X023100Y006100D03*
X023100Y005100D03*
X017100Y005100D03*
X017100Y006100D03*
X017100Y007600D03*
X016100Y007600D03*
X012100Y007100D03*
X011100Y007100D03*
X014100Y003100D03*
X015100Y003100D03*
X012100Y002600D03*
X011100Y002600D03*
X019100Y013350D03*
X020100Y013350D03*
X019100Y015600D03*
X019100Y016600D03*
X014100Y016100D03*
X014100Y015100D03*
D12*
X028350Y005600D03*
X038100Y009350D03*
X037100Y018600D03*
X029600Y024600D03*
D13*
X029600Y022600D03*
X037100Y016600D03*
X036100Y009350D03*
X028350Y007600D03*
D14*
X032115Y010100D03*
X034085Y010100D03*
X033335Y013600D03*
X031365Y013600D03*
X024850Y026100D03*
D15*
X025850Y026100D03*
D16*
X030100Y020675D03*
X030100Y017525D03*
X033600Y004675D03*
X033600Y001525D03*
D17*
X032100Y001100D03*
X030100Y001100D03*
X028100Y001600D03*
X027100Y001600D03*
X026100Y001600D03*
X025100Y001600D03*
X024100Y001600D03*
X023100Y001600D03*
X021100Y001600D03*
X020100Y001600D03*
X019100Y001600D03*
X018100Y001600D03*
X017100Y001600D03*
X016100Y001600D03*
X015100Y001600D03*
X014100Y001600D03*
X006100Y008350D03*
X004240Y007820D03*
X002460Y007820D03*
X002460Y010380D03*
X004240Y010380D03*
X006100Y010350D03*
X010500Y020600D03*
X011500Y020600D03*
X012500Y020600D03*
X013500Y020600D03*
X014500Y020600D03*
X015500Y020600D03*
X016500Y020600D03*
X017500Y020600D03*
X018500Y020600D03*
X019500Y020600D03*
X021100Y020600D03*
X022100Y020600D03*
X023100Y020600D03*
X024100Y020600D03*
X025100Y020600D03*
X026100Y020600D03*
X027100Y020600D03*
X028100Y020600D03*
X032100Y018100D03*
X032100Y016100D03*
X037600Y014100D03*
X037600Y013100D03*
X037600Y012100D03*
X022600Y024100D03*
X022600Y025100D03*
X022600Y026100D03*
X022600Y027100D03*
X022600Y028100D03*
X022600Y029100D03*
D18*
X030600Y028600D03*
X030600Y029600D03*
X030600Y027600D03*
X030600Y026600D03*
X033600Y026600D03*
X033600Y027600D03*
X033600Y028600D03*
X033600Y029600D03*
X018100Y017600D03*
X018100Y016600D03*
X018100Y015600D03*
X018100Y014600D03*
X015100Y014600D03*
X015100Y015600D03*
X015100Y016600D03*
X015100Y017600D03*
X008100Y025100D03*
X008100Y026100D03*
X008100Y027100D03*
X008100Y028100D03*
X005100Y028100D03*
X005100Y027100D03*
X005100Y026100D03*
X005100Y025100D03*
X019150Y006100D03*
X021050Y006100D03*
D19*
X035260Y005400D02*
X035260Y004800D01*
X036600Y004800D02*
X036600Y005400D01*
X037940Y005400D02*
X037940Y004800D01*
X037270Y003760D02*
X037270Y003160D01*
X035930Y003160D02*
X035930Y003760D01*
X035260Y020300D02*
X035260Y020900D01*
X036600Y020900D02*
X036600Y020300D01*
X037940Y020300D02*
X037940Y020900D01*
X037270Y021940D02*
X037270Y022540D01*
X035930Y022540D02*
X035930Y021940D01*
X027350Y029800D02*
X027350Y030400D01*
X026350Y030400D02*
X026350Y029800D01*
X025350Y029800D02*
X025350Y030400D01*
D20*
X002100Y019600D03*
X001100Y019600D03*
X001100Y017100D03*
X002100Y017100D03*
X002100Y014600D03*
X001100Y014600D03*
X001100Y012100D03*
X002100Y012100D03*
D21*
X009100Y020600D03*
X029100Y014600D03*
X029100Y003600D03*
X008600Y001600D03*
D22*
X006160Y015100D03*
X006160Y015510D03*
X006160Y015910D03*
X006160Y016300D03*
D23*
X004816Y002974D02*
X004424Y002974D01*
X004424Y003166D01*
X004816Y003166D01*
X004816Y002974D01*
X004816Y003021D02*
X004424Y003021D01*
X004424Y003068D02*
X004816Y003068D01*
X004816Y003115D02*
X004424Y003115D01*
X004424Y003162D02*
X004816Y003162D01*
X004816Y001974D02*
X004424Y001974D01*
X004424Y002166D01*
X004816Y002166D01*
X004816Y001974D01*
X004816Y002021D02*
X004424Y002021D01*
X004424Y002068D02*
X004816Y002068D01*
X004816Y002115D02*
X004424Y002115D01*
X004424Y002162D02*
X004816Y002162D01*
D24*
X028150Y010600D03*
X029150Y010600D03*
X029150Y011600D03*
X028150Y011600D03*
X028150Y012600D03*
X029150Y012600D03*
D25*
X023600Y017100D03*
X022600Y017100D03*
X021600Y017100D03*
X015100Y023100D03*
X015100Y024100D03*
X015100Y025100D03*
X009600Y024600D03*
X009600Y023600D03*
X009600Y025600D03*
X002600Y025600D03*
X002600Y026600D03*
X002600Y027600D03*
X038100Y027100D03*
X038100Y026100D03*
X038100Y028100D03*
D26*
X033600Y022100D03*
X033600Y021100D03*
X033350Y019600D03*
X032350Y019600D03*
X020600Y023100D03*
X016600Y023100D03*
X015600Y028600D03*
X011600Y028600D03*
X006850Y029850D03*
X002850Y029850D03*
X002100Y022600D03*
X003600Y019600D03*
X003600Y017100D03*
X003600Y014600D03*
X003600Y012100D03*
X007600Y012100D03*
X009600Y012600D03*
X007600Y014600D03*
X007600Y017100D03*
X007600Y019600D03*
X006100Y022600D03*
X009600Y008600D03*
X032850Y007600D03*
X033850Y007600D03*
X033350Y006350D03*
X034350Y006350D03*
D27*
X024100Y008840D02*
X024100Y009360D01*
X023100Y009360D02*
X023100Y008840D01*
X022100Y008840D02*
X022100Y009360D01*
X021100Y009360D02*
X021100Y008840D01*
X020100Y008840D02*
X020100Y009360D01*
X019100Y009360D02*
X019100Y008840D01*
X018100Y008840D02*
X018100Y009360D01*
X017100Y009360D02*
X017100Y008840D01*
X016100Y008840D02*
X016100Y009360D01*
X015100Y009360D02*
X015100Y008840D01*
X014100Y008840D02*
X014100Y009360D01*
X013100Y009360D02*
X013100Y008840D01*
X012100Y008840D02*
X012100Y009360D01*
X011100Y009360D02*
X011100Y008840D01*
X011100Y011840D02*
X011100Y012360D01*
X012100Y012360D02*
X012100Y011840D01*
X013100Y011840D02*
X013100Y012360D01*
X014100Y012360D02*
X014100Y011840D01*
X015100Y011840D02*
X015100Y012360D01*
X016100Y012360D02*
X016100Y011840D01*
X017100Y011840D02*
X017100Y012360D01*
X018100Y012360D02*
X018100Y011840D01*
X019100Y011840D02*
X019100Y012360D01*
X020100Y012360D02*
X020100Y011840D01*
X021100Y011840D02*
X021100Y012360D01*
X022100Y012360D02*
X022100Y011840D01*
X023100Y011840D02*
X023100Y012360D01*
X024100Y012360D02*
X024100Y011840D01*
D28*
X010430Y006100D02*
X009770Y006100D01*
X009770Y005100D02*
X010430Y005100D01*
X010430Y004100D02*
X009770Y004100D01*
D29*
X004200Y005100D03*
M02*
