G75*
%MOIN*%
%OFA0B0*%
%FSLAX24Y24*%
%IPPOS*%
%LPD*%
%AMOC8*
5,1,8,0,0,1.08239X$1,22.5*
%
%ADD10C,0.0000*%
%ADD11OC8,0.0630*%
%ADD12C,0.1000*%
%ADD13OC8,0.1000*%
%ADD14C,0.0650*%
%ADD15R,0.0650X0.0650*%
%ADD16C,0.0760*%
%ADD17C,0.0740*%
%ADD18C,0.0520*%
%ADD19C,0.0600*%
%ADD20OC8,0.0660*%
%ADD21OC8,0.0740*%
%ADD22C,0.0440*%
%ADD23OC8,0.0520*%
%ADD24C,0.0520*%
%ADD25C,0.0660*%
%ADD26C,0.0197*%
%ADD27C,0.0100*%
%ADD28C,0.0160*%
%ADD29OC8,0.0560*%
%ADD30C,0.0170*%
%ADD31C,0.0320*%
%ADD32C,0.0240*%
D10*
X000100Y000100D02*
X000100Y031596D01*
X039470Y031596D01*
X039470Y000100D01*
X000100Y000100D01*
X003550Y005100D02*
X003552Y005150D01*
X003558Y005200D01*
X003568Y005250D01*
X003581Y005298D01*
X003598Y005346D01*
X003619Y005392D01*
X003643Y005436D01*
X003671Y005478D01*
X003702Y005518D01*
X003736Y005555D01*
X003773Y005590D01*
X003812Y005621D01*
X003853Y005650D01*
X003897Y005675D01*
X003943Y005697D01*
X003990Y005715D01*
X004038Y005729D01*
X004087Y005740D01*
X004137Y005747D01*
X004187Y005750D01*
X004238Y005749D01*
X004288Y005744D01*
X004338Y005735D01*
X004386Y005723D01*
X004434Y005706D01*
X004480Y005686D01*
X004525Y005663D01*
X004568Y005636D01*
X004608Y005606D01*
X004646Y005573D01*
X004681Y005537D01*
X004714Y005498D01*
X004743Y005457D01*
X004769Y005414D01*
X004792Y005369D01*
X004811Y005322D01*
X004826Y005274D01*
X004838Y005225D01*
X004846Y005175D01*
X004850Y005125D01*
X004850Y005075D01*
X004846Y005025D01*
X004838Y004975D01*
X004826Y004926D01*
X004811Y004878D01*
X004792Y004831D01*
X004769Y004786D01*
X004743Y004743D01*
X004714Y004702D01*
X004681Y004663D01*
X004646Y004627D01*
X004608Y004594D01*
X004568Y004564D01*
X004525Y004537D01*
X004480Y004514D01*
X004434Y004494D01*
X004386Y004477D01*
X004338Y004465D01*
X004288Y004456D01*
X004238Y004451D01*
X004187Y004450D01*
X004137Y004453D01*
X004087Y004460D01*
X004038Y004471D01*
X003990Y004485D01*
X003943Y004503D01*
X003897Y004525D01*
X003853Y004550D01*
X003812Y004579D01*
X003773Y004610D01*
X003736Y004645D01*
X003702Y004682D01*
X003671Y004722D01*
X003643Y004764D01*
X003619Y004808D01*
X003598Y004854D01*
X003581Y004902D01*
X003568Y004950D01*
X003558Y005000D01*
X003552Y005050D01*
X003550Y005100D01*
X007970Y001600D02*
X007972Y001650D01*
X007978Y001700D01*
X007988Y001749D01*
X008002Y001797D01*
X008019Y001844D01*
X008040Y001889D01*
X008065Y001933D01*
X008093Y001974D01*
X008125Y002013D01*
X008159Y002050D01*
X008196Y002084D01*
X008236Y002114D01*
X008278Y002141D01*
X008322Y002165D01*
X008368Y002186D01*
X008415Y002202D01*
X008463Y002215D01*
X008513Y002224D01*
X008562Y002229D01*
X008613Y002230D01*
X008663Y002227D01*
X008712Y002220D01*
X008761Y002209D01*
X008809Y002194D01*
X008855Y002176D01*
X008900Y002154D01*
X008943Y002128D01*
X008984Y002099D01*
X009023Y002067D01*
X009059Y002032D01*
X009091Y001994D01*
X009121Y001954D01*
X009148Y001911D01*
X009171Y001867D01*
X009190Y001821D01*
X009206Y001773D01*
X009218Y001724D01*
X009226Y001675D01*
X009230Y001625D01*
X009230Y001575D01*
X009226Y001525D01*
X009218Y001476D01*
X009206Y001427D01*
X009190Y001379D01*
X009171Y001333D01*
X009148Y001289D01*
X009121Y001246D01*
X009091Y001206D01*
X009059Y001168D01*
X009023Y001133D01*
X008984Y001101D01*
X008943Y001072D01*
X008900Y001046D01*
X008855Y001024D01*
X008809Y001006D01*
X008761Y000991D01*
X008712Y000980D01*
X008663Y000973D01*
X008613Y000970D01*
X008562Y000971D01*
X008513Y000976D01*
X008463Y000985D01*
X008415Y000998D01*
X008368Y001014D01*
X008322Y001035D01*
X008278Y001059D01*
X008236Y001086D01*
X008196Y001116D01*
X008159Y001150D01*
X008125Y001187D01*
X008093Y001226D01*
X008065Y001267D01*
X008040Y001311D01*
X008019Y001356D01*
X008002Y001403D01*
X007988Y001451D01*
X007978Y001500D01*
X007972Y001550D01*
X007970Y001600D01*
X028470Y003600D02*
X028472Y003650D01*
X028478Y003700D01*
X028488Y003749D01*
X028502Y003797D01*
X028519Y003844D01*
X028540Y003889D01*
X028565Y003933D01*
X028593Y003974D01*
X028625Y004013D01*
X028659Y004050D01*
X028696Y004084D01*
X028736Y004114D01*
X028778Y004141D01*
X028822Y004165D01*
X028868Y004186D01*
X028915Y004202D01*
X028963Y004215D01*
X029013Y004224D01*
X029062Y004229D01*
X029113Y004230D01*
X029163Y004227D01*
X029212Y004220D01*
X029261Y004209D01*
X029309Y004194D01*
X029355Y004176D01*
X029400Y004154D01*
X029443Y004128D01*
X029484Y004099D01*
X029523Y004067D01*
X029559Y004032D01*
X029591Y003994D01*
X029621Y003954D01*
X029648Y003911D01*
X029671Y003867D01*
X029690Y003821D01*
X029706Y003773D01*
X029718Y003724D01*
X029726Y003675D01*
X029730Y003625D01*
X029730Y003575D01*
X029726Y003525D01*
X029718Y003476D01*
X029706Y003427D01*
X029690Y003379D01*
X029671Y003333D01*
X029648Y003289D01*
X029621Y003246D01*
X029591Y003206D01*
X029559Y003168D01*
X029523Y003133D01*
X029484Y003101D01*
X029443Y003072D01*
X029400Y003046D01*
X029355Y003024D01*
X029309Y003006D01*
X029261Y002991D01*
X029212Y002980D01*
X029163Y002973D01*
X029113Y002970D01*
X029062Y002971D01*
X029013Y002976D01*
X028963Y002985D01*
X028915Y002998D01*
X028868Y003014D01*
X028822Y003035D01*
X028778Y003059D01*
X028736Y003086D01*
X028696Y003116D01*
X028659Y003150D01*
X028625Y003187D01*
X028593Y003226D01*
X028565Y003267D01*
X028540Y003311D01*
X028519Y003356D01*
X028502Y003403D01*
X028488Y003451D01*
X028478Y003500D01*
X028472Y003550D01*
X028470Y003600D01*
X028470Y014600D02*
X028472Y014650D01*
X028478Y014700D01*
X028488Y014749D01*
X028502Y014797D01*
X028519Y014844D01*
X028540Y014889D01*
X028565Y014933D01*
X028593Y014974D01*
X028625Y015013D01*
X028659Y015050D01*
X028696Y015084D01*
X028736Y015114D01*
X028778Y015141D01*
X028822Y015165D01*
X028868Y015186D01*
X028915Y015202D01*
X028963Y015215D01*
X029013Y015224D01*
X029062Y015229D01*
X029113Y015230D01*
X029163Y015227D01*
X029212Y015220D01*
X029261Y015209D01*
X029309Y015194D01*
X029355Y015176D01*
X029400Y015154D01*
X029443Y015128D01*
X029484Y015099D01*
X029523Y015067D01*
X029559Y015032D01*
X029591Y014994D01*
X029621Y014954D01*
X029648Y014911D01*
X029671Y014867D01*
X029690Y014821D01*
X029706Y014773D01*
X029718Y014724D01*
X029726Y014675D01*
X029730Y014625D01*
X029730Y014575D01*
X029726Y014525D01*
X029718Y014476D01*
X029706Y014427D01*
X029690Y014379D01*
X029671Y014333D01*
X029648Y014289D01*
X029621Y014246D01*
X029591Y014206D01*
X029559Y014168D01*
X029523Y014133D01*
X029484Y014101D01*
X029443Y014072D01*
X029400Y014046D01*
X029355Y014024D01*
X029309Y014006D01*
X029261Y013991D01*
X029212Y013980D01*
X029163Y013973D01*
X029113Y013970D01*
X029062Y013971D01*
X029013Y013976D01*
X028963Y013985D01*
X028915Y013998D01*
X028868Y014014D01*
X028822Y014035D01*
X028778Y014059D01*
X028736Y014086D01*
X028696Y014116D01*
X028659Y014150D01*
X028625Y014187D01*
X028593Y014226D01*
X028565Y014267D01*
X028540Y014311D01*
X028519Y014356D01*
X028502Y014403D01*
X028488Y014451D01*
X028478Y014500D01*
X028472Y014550D01*
X028470Y014600D01*
X008470Y020600D02*
X008472Y020650D01*
X008478Y020700D01*
X008488Y020749D01*
X008502Y020797D01*
X008519Y020844D01*
X008540Y020889D01*
X008565Y020933D01*
X008593Y020974D01*
X008625Y021013D01*
X008659Y021050D01*
X008696Y021084D01*
X008736Y021114D01*
X008778Y021141D01*
X008822Y021165D01*
X008868Y021186D01*
X008915Y021202D01*
X008963Y021215D01*
X009013Y021224D01*
X009062Y021229D01*
X009113Y021230D01*
X009163Y021227D01*
X009212Y021220D01*
X009261Y021209D01*
X009309Y021194D01*
X009355Y021176D01*
X009400Y021154D01*
X009443Y021128D01*
X009484Y021099D01*
X009523Y021067D01*
X009559Y021032D01*
X009591Y020994D01*
X009621Y020954D01*
X009648Y020911D01*
X009671Y020867D01*
X009690Y020821D01*
X009706Y020773D01*
X009718Y020724D01*
X009726Y020675D01*
X009730Y020625D01*
X009730Y020575D01*
X009726Y020525D01*
X009718Y020476D01*
X009706Y020427D01*
X009690Y020379D01*
X009671Y020333D01*
X009648Y020289D01*
X009621Y020246D01*
X009591Y020206D01*
X009559Y020168D01*
X009523Y020133D01*
X009484Y020101D01*
X009443Y020072D01*
X009400Y020046D01*
X009355Y020024D01*
X009309Y020006D01*
X009261Y019991D01*
X009212Y019980D01*
X009163Y019973D01*
X009113Y019970D01*
X009062Y019971D01*
X009013Y019976D01*
X008963Y019985D01*
X008915Y019998D01*
X008868Y020014D01*
X008822Y020035D01*
X008778Y020059D01*
X008736Y020086D01*
X008696Y020116D01*
X008659Y020150D01*
X008625Y020187D01*
X008593Y020226D01*
X008565Y020267D01*
X008540Y020311D01*
X008519Y020356D01*
X008502Y020403D01*
X008488Y020451D01*
X008478Y020500D01*
X008472Y020550D01*
X008470Y020600D01*
D11*
X004100Y024100D03*
X004100Y025100D03*
X009100Y027100D03*
X009100Y028100D03*
X011600Y029600D03*
X011600Y030600D03*
X013600Y030100D03*
X014600Y030100D03*
X017100Y028100D03*
X017100Y027100D03*
X017100Y026100D03*
X017100Y025100D03*
X015100Y026600D03*
X014100Y026600D03*
X020100Y026100D03*
X020100Y025100D03*
X020100Y027100D03*
X020100Y028100D03*
X021100Y029600D03*
X021100Y030600D03*
X028100Y028100D03*
X029100Y028100D03*
X029100Y027100D03*
X028100Y027100D03*
X025850Y023850D03*
X024850Y023850D03*
X032100Y024100D03*
X033100Y024100D03*
X033100Y023100D03*
X032100Y023100D03*
X035100Y026600D03*
X035100Y027600D03*
X034600Y018100D03*
X034600Y017100D03*
X031100Y007350D03*
X031100Y006350D03*
X031100Y003850D03*
X031100Y002850D03*
X036350Y006850D03*
X037350Y006850D03*
X023100Y006100D03*
X023100Y005100D03*
X017100Y005100D03*
X017100Y006100D03*
X017100Y007600D03*
X016100Y007600D03*
X012100Y007100D03*
X011100Y007100D03*
X014100Y003100D03*
X015100Y003100D03*
X012100Y002600D03*
X011100Y002600D03*
X019100Y013350D03*
X020100Y013350D03*
X019100Y015600D03*
X019100Y016600D03*
X014100Y016100D03*
X014100Y015100D03*
D12*
X028350Y005600D03*
X038100Y009350D03*
X037100Y018600D03*
X029600Y024600D03*
D13*
X029600Y022600D03*
X037100Y016600D03*
X036100Y009350D03*
X028350Y007600D03*
D14*
X032115Y010100D03*
X034085Y010100D03*
X033335Y013600D03*
X031365Y013600D03*
X024850Y026100D03*
D15*
X025850Y026100D03*
D16*
X030100Y020675D03*
X030100Y017525D03*
X033600Y004675D03*
X033600Y001525D03*
D17*
X032100Y001100D03*
X030100Y001100D03*
X028100Y001600D03*
X027100Y001600D03*
X026100Y001600D03*
X025100Y001600D03*
X024100Y001600D03*
X023100Y001600D03*
X021100Y001600D03*
X020100Y001600D03*
X019100Y001600D03*
X018100Y001600D03*
X017100Y001600D03*
X016100Y001600D03*
X015100Y001600D03*
X014100Y001600D03*
X006100Y008350D03*
X004240Y007820D03*
X002460Y007820D03*
X002460Y010380D03*
X004240Y010380D03*
X006100Y010350D03*
X010500Y020600D03*
X011500Y020600D03*
X012500Y020600D03*
X013500Y020600D03*
X014500Y020600D03*
X015500Y020600D03*
X016500Y020600D03*
X017500Y020600D03*
X018500Y020600D03*
X019500Y020600D03*
X021100Y020600D03*
X022100Y020600D03*
X023100Y020600D03*
X024100Y020600D03*
X025100Y020600D03*
X026100Y020600D03*
X027100Y020600D03*
X028100Y020600D03*
X032100Y018100D03*
X032100Y016100D03*
X037600Y014100D03*
X037600Y013100D03*
X037600Y012100D03*
X022600Y024100D03*
X022600Y025100D03*
X022600Y026100D03*
X022600Y027100D03*
X022600Y028100D03*
X022600Y029100D03*
D18*
X030600Y028600D03*
X030600Y029600D03*
X030600Y027600D03*
X030600Y026600D03*
X033600Y026600D03*
X033600Y027600D03*
X033600Y028600D03*
X033600Y029600D03*
X018100Y017600D03*
X018100Y016600D03*
X018100Y015600D03*
X018100Y014600D03*
X015100Y014600D03*
X015100Y015600D03*
X015100Y016600D03*
X015100Y017600D03*
X008100Y025100D03*
X008100Y026100D03*
X008100Y027100D03*
X008100Y028100D03*
X005100Y028100D03*
X005100Y027100D03*
X005100Y026100D03*
X005100Y025100D03*
X019150Y006100D03*
X021050Y006100D03*
D19*
X035260Y005400D02*
X035260Y004800D01*
X036600Y004800D02*
X036600Y005400D01*
X037940Y005400D02*
X037940Y004800D01*
X037270Y003760D02*
X037270Y003160D01*
X035930Y003160D02*
X035930Y003760D01*
X035260Y020300D02*
X035260Y020900D01*
X036600Y020900D02*
X036600Y020300D01*
X037940Y020300D02*
X037940Y020900D01*
X037270Y021940D02*
X037270Y022540D01*
X035930Y022540D02*
X035930Y021940D01*
X027350Y029800D02*
X027350Y030400D01*
X026350Y030400D02*
X026350Y029800D01*
X025350Y029800D02*
X025350Y030400D01*
D20*
X002100Y019600D03*
X001100Y019600D03*
X001100Y017100D03*
X002100Y017100D03*
X002100Y014600D03*
X001100Y014600D03*
X001100Y012100D03*
X002100Y012100D03*
D21*
X028150Y011600D03*
X029150Y011600D03*
X029150Y010600D03*
X028150Y010600D03*
X028150Y012600D03*
X029150Y012600D03*
D22*
X023600Y017100D03*
X022600Y017100D03*
X021600Y017100D03*
X015100Y023100D03*
X015100Y024100D03*
X015100Y025100D03*
X009600Y024600D03*
X009600Y023600D03*
X009600Y025600D03*
X002600Y025600D03*
X002600Y026600D03*
X002600Y027600D03*
X038100Y027100D03*
X038100Y026100D03*
X038100Y028100D03*
D23*
X033600Y022100D03*
X033600Y021100D03*
X033350Y019600D03*
X032350Y019600D03*
X020600Y023100D03*
X016600Y023100D03*
X015600Y028600D03*
X011600Y028600D03*
X006850Y029850D03*
X002850Y029850D03*
X002100Y022600D03*
X003600Y019600D03*
X003600Y017100D03*
X003600Y014600D03*
X003600Y012100D03*
X007600Y012100D03*
X009600Y012600D03*
X007600Y014600D03*
X007600Y017100D03*
X007600Y019600D03*
X006100Y022600D03*
X009600Y008600D03*
X032850Y007600D03*
X033850Y007600D03*
X033350Y006350D03*
X034350Y006350D03*
D24*
X024100Y008840D02*
X024100Y009360D01*
X023100Y009360D02*
X023100Y008840D01*
X022100Y008840D02*
X022100Y009360D01*
X021100Y009360D02*
X021100Y008840D01*
X020100Y008840D02*
X020100Y009360D01*
X019100Y009360D02*
X019100Y008840D01*
X018100Y008840D02*
X018100Y009360D01*
X017100Y009360D02*
X017100Y008840D01*
X016100Y008840D02*
X016100Y009360D01*
X015100Y009360D02*
X015100Y008840D01*
X014100Y008840D02*
X014100Y009360D01*
X013100Y009360D02*
X013100Y008840D01*
X012100Y008840D02*
X012100Y009360D01*
X011100Y009360D02*
X011100Y008840D01*
X011100Y011840D02*
X011100Y012360D01*
X012100Y012360D02*
X012100Y011840D01*
X013100Y011840D02*
X013100Y012360D01*
X014100Y012360D02*
X014100Y011840D01*
X015100Y011840D02*
X015100Y012360D01*
X016100Y012360D02*
X016100Y011840D01*
X017100Y011840D02*
X017100Y012360D01*
X018100Y012360D02*
X018100Y011840D01*
X019100Y011840D02*
X019100Y012360D01*
X020100Y012360D02*
X020100Y011840D01*
X021100Y011840D02*
X021100Y012360D01*
X022100Y012360D02*
X022100Y011840D01*
X023100Y011840D02*
X023100Y012360D01*
X024100Y012360D02*
X024100Y011840D01*
D25*
X010430Y006100D02*
X009770Y006100D01*
X009770Y005100D02*
X010430Y005100D01*
X010430Y004100D02*
X009770Y004100D01*
D26*
X010807Y006651D02*
X013789Y003669D01*
X014466Y003669D01*
X015008Y003127D01*
X015100Y003100D01*
X015144Y003082D01*
X017403Y003082D01*
X018849Y001636D01*
X019074Y001636D01*
X019100Y001600D01*
X018100Y001600D02*
X018081Y001636D01*
X017855Y001636D01*
X017313Y002178D01*
X015686Y002178D01*
X015189Y001681D01*
X015100Y001600D01*
X015099Y001636D01*
X014105Y002630D01*
X014105Y003082D01*
X014100Y003100D01*
X015234Y004076D02*
X012614Y006696D01*
X012614Y007328D01*
X011575Y008367D01*
X010943Y008367D01*
X007645Y011665D01*
X007645Y012027D01*
X007600Y012100D01*
X007599Y012117D01*
X007599Y013969D01*
X006109Y015460D01*
X006109Y022508D01*
X006100Y022600D01*
X006109Y022643D01*
X006831Y023366D01*
X005115Y025083D01*
X005100Y025100D01*
X006831Y023366D02*
X008051Y024586D01*
X009587Y024586D01*
X009600Y024600D01*
X009678Y024631D01*
X012162Y027116D01*
X014737Y027116D01*
X016228Y028607D01*
X017313Y028607D01*
X017809Y028110D01*
X020068Y028110D01*
X020100Y028100D01*
X017132Y026077D02*
X017100Y026100D01*
X017132Y026077D02*
X020068Y023140D01*
X020068Y022643D01*
X020100Y021643D01*
X020850Y022600D01*
X027100Y022600D01*
X028850Y024143D01*
X028878Y022643D01*
X028878Y020520D01*
X032085Y017313D01*
X032085Y016138D01*
X032100Y016100D01*
X035293Y014421D02*
X037597Y012117D01*
X037600Y012100D01*
X035293Y014421D02*
X035293Y020520D01*
X035260Y020600D01*
X035248Y020610D01*
X035248Y021966D01*
X033125Y024089D01*
X033100Y024100D01*
X033034Y024134D01*
X032131Y024134D01*
X032100Y024100D01*
X032040Y024179D01*
X031634Y024586D01*
X029601Y024586D01*
X029600Y024600D01*
X028878Y026167D02*
X029601Y026890D01*
X029601Y027568D01*
X029104Y028065D01*
X029100Y028100D01*
X028878Y026167D02*
X028878Y022643D01*
X023005Y017267D02*
X022734Y017538D01*
X021469Y017538D01*
X020565Y016635D01*
X019120Y016635D01*
X019100Y016600D01*
X016319Y016635D02*
X020068Y020385D01*
X020068Y022643D01*
X023005Y017267D02*
X023005Y012850D01*
X020113Y012850D02*
X020113Y013337D01*
X020100Y013350D01*
X020656Y010400D02*
X020600Y010350D01*
X014100Y016100D02*
X014150Y016183D01*
X014557Y016590D01*
X015099Y016590D01*
X015100Y016600D01*
X015189Y016635D01*
X016319Y016635D01*
X014100Y016100D02*
X014060Y016093D01*
X012569Y014602D01*
X007645Y014602D01*
X007600Y014600D01*
X003488Y007780D02*
X002494Y007780D01*
X002460Y007820D01*
X003488Y007780D02*
X004618Y006651D01*
X010807Y006651D01*
X015234Y004076D02*
X026938Y004076D01*
X029625Y001139D01*
X030098Y001139D01*
X030100Y001100D01*
X032131Y002991D02*
X033576Y001546D01*
X033600Y001525D01*
X032131Y002991D02*
X032131Y010084D01*
X032115Y010100D01*
X033802Y006831D02*
X033350Y006380D01*
X033350Y006350D01*
X033802Y006831D02*
X036332Y006831D01*
X036350Y006850D01*
X037100Y018600D02*
X037100Y018623D01*
X037236Y018758D01*
X037236Y022237D01*
X037270Y022240D01*
D27*
X033600Y027600D02*
X033576Y027613D01*
X032176Y029013D01*
X026438Y029013D01*
X025354Y030098D01*
X025350Y030100D01*
X014600Y030100D02*
X014557Y030098D01*
X010581Y026122D01*
X008142Y026122D01*
X008100Y026100D01*
X008096Y026122D01*
X007148Y027071D01*
X005115Y027071D01*
X005100Y027100D01*
X017674Y015731D02*
X018126Y016183D01*
X018261Y016183D01*
X018623Y016544D01*
X018623Y016770D01*
X021921Y020068D01*
X023592Y020068D01*
X024089Y020565D01*
X024100Y020600D01*
X022600Y017100D02*
X022598Y017087D01*
X022101Y017087D01*
X019617Y014602D01*
X018126Y014602D01*
X018100Y014600D01*
X017674Y015731D02*
X017674Y011846D01*
X016138Y010310D01*
X016138Y009135D01*
X016100Y009100D01*
D28*
X018600Y011100D02*
X018600Y012850D01*
X027100Y012850D01*
X027600Y013350D01*
X029850Y013350D01*
X029850Y009850D01*
X027100Y009850D01*
X025600Y011350D01*
X018600Y011100D01*
X018600Y011195D02*
X021260Y011195D01*
X021184Y011419D02*
X021338Y011483D01*
X021457Y011602D01*
X021521Y011756D01*
X021521Y012444D01*
X021457Y012598D01*
X021338Y012717D01*
X021184Y012781D01*
X021016Y012781D01*
X020862Y012717D01*
X020743Y012598D01*
X020679Y012444D01*
X020679Y011756D01*
X020743Y011602D01*
X020862Y011483D01*
X021016Y011419D01*
X021184Y011419D01*
X021367Y011512D02*
X021833Y011512D01*
X021862Y011483D02*
X022016Y011419D01*
X022184Y011419D01*
X022338Y011483D01*
X022457Y011602D01*
X022521Y011756D01*
X022521Y012444D01*
X022457Y012598D01*
X022338Y012717D01*
X022184Y012781D01*
X022016Y012781D01*
X021862Y012717D01*
X021743Y012598D01*
X021679Y012444D01*
X021679Y011756D01*
X021743Y011602D01*
X021862Y011483D01*
X021715Y011671D02*
X021485Y011671D01*
X021521Y011829D02*
X021679Y011829D01*
X021679Y011988D02*
X021521Y011988D01*
X021521Y012146D02*
X021679Y012146D01*
X021679Y012305D02*
X021521Y012305D01*
X021513Y012463D02*
X021687Y012463D01*
X021767Y012622D02*
X021433Y012622D01*
X021185Y012780D02*
X022015Y012780D01*
X022185Y012780D02*
X023015Y012780D01*
X023016Y012781D02*
X022862Y012717D01*
X022743Y012598D01*
X022679Y012444D01*
X022679Y011756D01*
X022743Y011602D01*
X022862Y011483D01*
X023016Y011419D01*
X023184Y011419D01*
X023338Y011483D01*
X023457Y011602D01*
X023521Y011756D01*
X023521Y012444D01*
X023457Y012598D01*
X023338Y012717D01*
X023184Y012781D01*
X023016Y012781D01*
X023185Y012780D02*
X024015Y012780D01*
X024016Y012781D02*
X023862Y012717D01*
X023743Y012598D01*
X023679Y012444D01*
X023679Y011756D01*
X023743Y011602D01*
X023862Y011483D01*
X024016Y011419D01*
X024184Y011419D01*
X024338Y011483D01*
X024457Y011602D01*
X024521Y011756D01*
X024521Y012444D01*
X024457Y012598D01*
X024338Y012717D01*
X024184Y012781D01*
X024016Y012781D01*
X024185Y012780D02*
X027619Y012780D01*
X027619Y012820D02*
X027619Y012380D01*
X027899Y012100D01*
X027619Y011820D01*
X027619Y011380D01*
X027899Y011100D01*
X027619Y010820D01*
X027619Y010380D01*
X027930Y010069D01*
X028370Y010069D01*
X028636Y010336D01*
X028922Y010050D01*
X029130Y010050D01*
X029130Y010580D01*
X029170Y010580D01*
X029170Y010620D01*
X029700Y010620D01*
X029700Y010828D01*
X029414Y011114D01*
X029681Y011380D01*
X029681Y011820D01*
X029401Y012100D01*
X029681Y012380D01*
X029681Y012820D01*
X029370Y013131D01*
X028930Y013131D01*
X028650Y012851D01*
X028370Y013131D01*
X027930Y013131D01*
X027619Y012820D01*
X027738Y012939D02*
X027189Y012939D01*
X027347Y013097D02*
X027896Y013097D01*
X027506Y013256D02*
X029850Y013256D01*
X029850Y013097D02*
X029404Y013097D01*
X029562Y012939D02*
X029850Y012939D01*
X029850Y012780D02*
X029681Y012780D01*
X029681Y012622D02*
X029850Y012622D01*
X029850Y012463D02*
X029681Y012463D01*
X029605Y012305D02*
X029850Y012305D01*
X029850Y012146D02*
X029447Y012146D01*
X029513Y011988D02*
X029850Y011988D01*
X029850Y011829D02*
X029672Y011829D01*
X029681Y011671D02*
X029850Y011671D01*
X029850Y011512D02*
X029681Y011512D01*
X029654Y011354D02*
X029850Y011354D01*
X029850Y011195D02*
X029496Y011195D01*
X029491Y011037D02*
X029850Y011037D01*
X029850Y010878D02*
X029650Y010878D01*
X029700Y010720D02*
X029850Y010720D01*
X029850Y010561D02*
X029700Y010561D01*
X029700Y010580D02*
X029170Y010580D01*
X029170Y010050D01*
X029378Y010050D01*
X029700Y010372D01*
X029700Y010580D01*
X029700Y010403D02*
X029850Y010403D01*
X029850Y010244D02*
X029572Y010244D01*
X029413Y010086D02*
X029850Y010086D01*
X029850Y009927D02*
X027023Y009927D01*
X026864Y010086D02*
X027914Y010086D01*
X027755Y010244D02*
X026706Y010244D01*
X026547Y010403D02*
X027619Y010403D01*
X027619Y010561D02*
X026389Y010561D01*
X026230Y010720D02*
X027619Y010720D01*
X027677Y010878D02*
X026072Y010878D01*
X025913Y011037D02*
X027836Y011037D01*
X027804Y011195D02*
X025755Y011195D01*
X024485Y011671D02*
X027619Y011671D01*
X027628Y011829D02*
X024521Y011829D01*
X024521Y011988D02*
X027787Y011988D01*
X027853Y012146D02*
X024521Y012146D01*
X024521Y012305D02*
X027695Y012305D01*
X027619Y012463D02*
X024513Y012463D01*
X024433Y012622D02*
X027619Y012622D01*
X028404Y013097D02*
X028896Y013097D01*
X028738Y012939D02*
X028562Y012939D01*
X028455Y014100D02*
X023264Y014100D01*
X023264Y016916D01*
X023277Y016884D01*
X023384Y016777D01*
X023524Y016719D01*
X023676Y016719D01*
X023816Y016777D01*
X023923Y016884D01*
X023981Y017024D01*
X023981Y017176D01*
X023923Y017316D01*
X023816Y017423D01*
X023676Y017481D01*
X023524Y017481D01*
X023384Y017423D01*
X023277Y017316D01*
X023264Y017284D01*
X023264Y017319D01*
X023225Y017414D01*
X023152Y017487D01*
X022881Y017758D01*
X022785Y017798D01*
X021417Y017798D01*
X021322Y017758D01*
X021249Y017685D01*
X020458Y016894D01*
X019479Y016894D01*
X019297Y017076D01*
X019226Y017076D01*
X022008Y019858D01*
X023679Y019858D01*
X023921Y020100D01*
X023994Y020069D01*
X024206Y020069D01*
X024401Y020150D01*
X024550Y020299D01*
X024600Y020420D01*
X024650Y020299D01*
X024799Y020150D01*
X024994Y020069D01*
X025206Y020069D01*
X025401Y020150D01*
X025550Y020299D01*
X025600Y020420D01*
X025650Y020299D01*
X025799Y020150D01*
X025994Y020069D01*
X026206Y020069D01*
X026401Y020150D01*
X026550Y020299D01*
X026600Y020420D01*
X026650Y020299D01*
X026799Y020150D01*
X026994Y020069D01*
X027206Y020069D01*
X027401Y020150D01*
X027550Y020299D01*
X027600Y020420D01*
X027650Y020299D01*
X027799Y020150D01*
X027994Y020069D01*
X028206Y020069D01*
X028401Y020150D01*
X028550Y020299D01*
X028619Y020467D01*
X028658Y020373D01*
X028731Y020300D01*
X031826Y017205D01*
X031826Y016561D01*
X031799Y016550D01*
X031650Y016401D01*
X031569Y016206D01*
X031569Y015994D01*
X031650Y015799D01*
X031799Y015650D01*
X031994Y015569D01*
X032206Y015569D01*
X032401Y015650D01*
X032550Y015799D01*
X032631Y015994D01*
X032631Y016206D01*
X032550Y016401D01*
X032401Y016550D01*
X032345Y016573D01*
X032345Y017364D01*
X032305Y017459D01*
X032195Y017569D01*
X032206Y017569D01*
X032401Y017650D01*
X032550Y017799D01*
X032631Y017994D01*
X032631Y018206D01*
X032550Y018401D01*
X032401Y018550D01*
X032206Y018631D01*
X031994Y018631D01*
X031799Y018550D01*
X031650Y018401D01*
X031569Y018206D01*
X031569Y018195D01*
X029137Y020627D01*
X029137Y022101D01*
X029318Y021920D01*
X029580Y021920D01*
X029580Y022580D01*
X029620Y022580D01*
X029620Y022620D01*
X029580Y022620D01*
X029580Y023280D01*
X029318Y023280D01*
X029137Y023099D01*
X029137Y024129D01*
X029226Y024040D01*
X029469Y023939D01*
X029731Y023939D01*
X029974Y024040D01*
X030160Y024226D01*
X030202Y024327D01*
X031526Y024327D01*
X031624Y024229D01*
X031624Y023903D01*
X031903Y023624D01*
X032297Y023624D01*
X032548Y023875D01*
X032652Y023875D01*
X032903Y023624D01*
X033223Y023624D01*
X033271Y023576D01*
X032903Y023576D01*
X032624Y023297D01*
X032624Y022903D01*
X032903Y022624D01*
X033297Y022624D01*
X033576Y022903D01*
X033576Y023271D01*
X034989Y021858D01*
X034989Y021280D01*
X034869Y021161D01*
X034799Y020992D01*
X034799Y020208D01*
X034869Y020039D01*
X034999Y019909D01*
X035034Y019895D01*
X035034Y018339D01*
X034797Y018576D01*
X034403Y018576D01*
X034124Y018297D01*
X034124Y017903D01*
X034403Y017624D01*
X034797Y017624D01*
X035034Y017861D01*
X035034Y017366D01*
X034805Y017595D01*
X034600Y017595D01*
X034600Y017100D01*
X034600Y017100D01*
X034600Y016605D01*
X034805Y016605D01*
X035034Y016834D01*
X035034Y014370D01*
X035073Y014274D01*
X037091Y012257D01*
X037069Y012206D01*
X037069Y011994D01*
X037150Y011799D01*
X037299Y011650D01*
X037494Y011569D01*
X037706Y011569D01*
X037901Y011650D01*
X038050Y011799D01*
X038131Y011994D01*
X038131Y012206D01*
X038050Y012401D01*
X037901Y012550D01*
X037807Y012589D01*
X037811Y012590D01*
X037888Y012630D01*
X037958Y012680D01*
X038020Y012742D01*
X038070Y012812D01*
X038110Y012889D01*
X038136Y012971D01*
X038150Y013057D01*
X038150Y013080D01*
X037620Y013080D01*
X037620Y013120D01*
X038150Y013120D01*
X038150Y013143D01*
X038136Y013229D01*
X038110Y013311D01*
X038070Y013388D01*
X038020Y013458D01*
X037958Y013520D01*
X037888Y013570D01*
X037830Y013600D01*
X037888Y013630D01*
X037958Y013680D01*
X038020Y013742D01*
X038070Y013812D01*
X038110Y013889D01*
X038136Y013971D01*
X038150Y014057D01*
X038150Y014080D01*
X037620Y014080D01*
X037620Y014120D01*
X037580Y014120D01*
X037580Y014650D01*
X037557Y014650D01*
X037471Y014636D01*
X037389Y014610D01*
X037312Y014570D01*
X037242Y014520D01*
X037180Y014458D01*
X037130Y014388D01*
X037090Y014311D01*
X037064Y014229D01*
X037050Y014143D01*
X037050Y014120D01*
X037580Y014120D01*
X037580Y014080D01*
X037050Y014080D01*
X037050Y014057D01*
X037064Y013971D01*
X037090Y013889D01*
X037130Y013812D01*
X037180Y013742D01*
X037242Y013680D01*
X037312Y013630D01*
X037370Y013600D01*
X037312Y013570D01*
X037242Y013520D01*
X037180Y013458D01*
X037130Y013388D01*
X037090Y013311D01*
X037064Y013229D01*
X037050Y013143D01*
X037050Y013120D01*
X037580Y013120D01*
X037580Y014080D01*
X037620Y014080D01*
X037620Y013550D01*
X037620Y013120D01*
X037580Y013120D01*
X037580Y013080D01*
X037050Y013080D01*
X037050Y013057D01*
X037055Y013026D01*
X035552Y014528D01*
X035552Y019941D01*
X035651Y020039D01*
X035721Y020208D01*
X035721Y020992D01*
X035651Y021161D01*
X035521Y021291D01*
X035507Y021296D01*
X035507Y021757D01*
X035539Y021679D01*
X035669Y021549D01*
X035838Y021479D01*
X036022Y021479D01*
X036191Y021549D01*
X036321Y021679D01*
X036391Y021848D01*
X036391Y022632D01*
X036321Y022801D01*
X036191Y022931D01*
X036022Y023001D01*
X035838Y023001D01*
X035669Y022931D01*
X035539Y022801D01*
X035469Y022632D01*
X035469Y022108D01*
X035468Y022113D01*
X033576Y024004D01*
X033576Y024297D01*
X033297Y024576D01*
X032903Y024576D01*
X032721Y024393D01*
X032479Y024393D01*
X032297Y024576D01*
X032010Y024576D01*
X031780Y024806D01*
X031685Y024845D01*
X030214Y024845D01*
X030160Y024974D01*
X029974Y025160D01*
X029731Y025261D01*
X029469Y025261D01*
X029226Y025160D01*
X029137Y025071D01*
X029137Y026060D01*
X029747Y026670D01*
X029820Y026743D01*
X029860Y026839D01*
X029860Y027619D01*
X029820Y027715D01*
X029576Y027959D01*
X029576Y028297D01*
X029297Y028576D01*
X028903Y028576D01*
X028624Y028297D01*
X028624Y027903D01*
X028903Y027624D01*
X029178Y027624D01*
X029207Y027595D01*
X029100Y027595D01*
X029100Y027100D01*
X029100Y027100D01*
X029100Y027100D01*
X028605Y027100D01*
X028605Y027305D01*
X028895Y027595D01*
X029100Y027595D01*
X029100Y027100D01*
X028605Y027100D01*
X028605Y026895D01*
X028895Y026605D01*
X028949Y026605D01*
X028658Y026314D01*
X028619Y026219D01*
X028619Y024285D01*
X027002Y022859D01*
X020954Y022859D01*
X021021Y022926D01*
X021021Y023274D01*
X020774Y023521D01*
X020426Y023521D01*
X020240Y023335D01*
X017576Y025999D01*
X017576Y026297D01*
X017297Y026576D01*
X016903Y026576D01*
X016624Y026297D01*
X016624Y025903D01*
X016903Y025624D01*
X017218Y025624D01*
X017266Y025576D01*
X016903Y025576D01*
X016624Y025297D01*
X016624Y024903D01*
X016903Y024624D01*
X017297Y024624D01*
X017576Y024903D01*
X017576Y025266D01*
X019809Y023033D01*
X019809Y022691D01*
X019808Y022687D01*
X019809Y022639D01*
X019809Y021041D01*
X019801Y021050D01*
X019606Y021131D01*
X019394Y021131D01*
X019199Y021050D01*
X019050Y020901D01*
X019000Y020780D01*
X018950Y020901D01*
X018801Y021050D01*
X018606Y021131D01*
X018394Y021131D01*
X018199Y021050D01*
X018050Y020901D01*
X018000Y020780D01*
X017950Y020901D01*
X017801Y021050D01*
X017606Y021131D01*
X017394Y021131D01*
X017199Y021050D01*
X017050Y020901D01*
X017000Y020780D01*
X016950Y020901D01*
X016801Y021050D01*
X016606Y021131D01*
X016394Y021131D01*
X016199Y021050D01*
X016050Y020901D01*
X016000Y020780D01*
X015950Y020901D01*
X015801Y021050D01*
X015606Y021131D01*
X015394Y021131D01*
X015199Y021050D01*
X015050Y020901D01*
X015000Y020780D01*
X014950Y020901D01*
X014801Y021050D01*
X014606Y021131D01*
X014394Y021131D01*
X014199Y021050D01*
X014050Y020901D01*
X014000Y020780D01*
X013950Y020901D01*
X013801Y021050D01*
X013606Y021131D01*
X013394Y021131D01*
X013199Y021050D01*
X013050Y020901D01*
X013000Y020780D01*
X012950Y020901D01*
X012801Y021050D01*
X012606Y021131D01*
X012394Y021131D01*
X012199Y021050D01*
X012050Y020901D01*
X012000Y020780D01*
X011950Y020901D01*
X011801Y021050D01*
X011606Y021131D01*
X011394Y021131D01*
X011199Y021050D01*
X011050Y020901D01*
X011000Y020780D01*
X010950Y020901D01*
X010801Y021050D01*
X010606Y021131D01*
X010394Y021131D01*
X010199Y021050D01*
X010050Y020901D01*
X009969Y020706D01*
X009969Y020494D01*
X010050Y020299D01*
X010199Y020150D01*
X010394Y020069D01*
X010606Y020069D01*
X010801Y020150D01*
X010950Y020299D01*
X011000Y020420D01*
X011050Y020299D01*
X011199Y020150D01*
X011394Y020069D01*
X011606Y020069D01*
X011801Y020150D01*
X011950Y020299D01*
X012000Y020420D01*
X012050Y020299D01*
X012199Y020150D01*
X012394Y020069D01*
X012606Y020069D01*
X012801Y020150D01*
X012950Y020299D01*
X013000Y020420D01*
X013050Y020299D01*
X013199Y020150D01*
X013394Y020069D01*
X013606Y020069D01*
X013801Y020150D01*
X013950Y020299D01*
X014000Y020420D01*
X014050Y020299D01*
X014199Y020150D01*
X014394Y020069D01*
X014606Y020069D01*
X014801Y020150D01*
X014950Y020299D01*
X015000Y020420D01*
X015050Y020299D01*
X015199Y020150D01*
X015394Y020069D01*
X015606Y020069D01*
X015801Y020150D01*
X015950Y020299D01*
X016000Y020420D01*
X016050Y020299D01*
X016199Y020150D01*
X016394Y020069D01*
X016606Y020069D01*
X016801Y020150D01*
X016950Y020299D01*
X017000Y020420D01*
X017050Y020299D01*
X017199Y020150D01*
X017394Y020069D01*
X017606Y020069D01*
X017801Y020150D01*
X017950Y020299D01*
X018000Y020420D01*
X018050Y020299D01*
X018199Y020150D01*
X018394Y020069D01*
X018606Y020069D01*
X018801Y020150D01*
X018950Y020299D01*
X019000Y020420D01*
X019050Y020299D01*
X019199Y020150D01*
X019389Y020072D01*
X016211Y016894D01*
X015401Y016894D01*
X015338Y016957D01*
X015184Y017021D01*
X015016Y017021D01*
X014862Y016957D01*
X014754Y016849D01*
X014505Y016849D01*
X014410Y016809D01*
X014176Y016576D01*
X013903Y016576D01*
X013624Y016297D01*
X013624Y016024D01*
X012462Y014861D01*
X007934Y014861D01*
X007774Y015021D01*
X007426Y015021D01*
X007179Y014774D01*
X007179Y014756D01*
X006368Y015568D01*
X006368Y022273D01*
X006521Y022426D01*
X006521Y022689D01*
X006978Y023147D01*
X007051Y023219D01*
X007051Y023219D01*
X008159Y024327D01*
X009335Y024327D01*
X009384Y024277D01*
X009524Y024219D01*
X009676Y024219D01*
X009816Y024277D01*
X009923Y024384D01*
X009981Y024524D01*
X009981Y024568D01*
X012270Y026857D01*
X013657Y026857D01*
X013605Y026805D01*
X013605Y026600D01*
X014100Y026600D01*
X014595Y026600D01*
X014595Y026805D01*
X014543Y026857D01*
X014684Y026857D01*
X014624Y026797D01*
X014624Y026403D01*
X014903Y026124D01*
X015297Y026124D01*
X015576Y026403D01*
X015576Y026797D01*
X015297Y027076D01*
X015064Y027076D01*
X016336Y028348D01*
X016675Y028348D01*
X016624Y028297D01*
X016624Y027903D01*
X016903Y027624D01*
X017297Y027624D01*
X017576Y027903D01*
X017576Y027977D01*
X017663Y027890D01*
X017758Y027851D01*
X019677Y027851D01*
X019903Y027624D01*
X020297Y027624D01*
X020576Y027903D01*
X020576Y028297D01*
X020297Y028576D01*
X019903Y028576D01*
X019696Y028369D01*
X017917Y028369D01*
X017532Y028754D01*
X017459Y028826D01*
X017364Y028866D01*
X016177Y028866D01*
X016081Y028826D01*
X016021Y028766D01*
X016021Y028774D01*
X015774Y029021D01*
X015426Y029021D01*
X015179Y028774D01*
X015179Y028426D01*
X015426Y028179D01*
X015434Y028179D01*
X014630Y027375D01*
X012132Y027375D01*
X014392Y029635D01*
X014403Y029624D01*
X014797Y029624D01*
X015076Y029903D01*
X015076Y030297D01*
X014797Y030576D01*
X014403Y030576D01*
X014124Y030297D01*
X014124Y029963D01*
X014095Y029934D01*
X014095Y030100D01*
X014095Y030305D01*
X013805Y030595D01*
X013600Y030595D01*
X013600Y030100D01*
X013600Y030100D01*
X014095Y030100D01*
X013600Y030100D01*
X013600Y030100D01*
X013600Y029605D01*
X013766Y029605D01*
X010494Y026333D01*
X008459Y026333D01*
X008457Y026338D01*
X008338Y026457D01*
X008184Y026521D01*
X008016Y026521D01*
X008002Y026515D01*
X007235Y027281D01*
X005480Y027281D01*
X005457Y027338D01*
X005338Y027457D01*
X005184Y027521D01*
X005016Y027521D01*
X004862Y027457D01*
X004743Y027338D01*
X004679Y027184D01*
X004679Y027016D01*
X004743Y026862D01*
X004862Y026743D01*
X005016Y026679D01*
X005184Y026679D01*
X005338Y026743D01*
X005455Y026860D01*
X007060Y026860D01*
X007696Y026224D01*
X007679Y026184D01*
X007679Y026016D01*
X007743Y025862D01*
X007862Y025743D01*
X008016Y025679D01*
X008184Y025679D01*
X008338Y025743D01*
X008457Y025862D01*
X008477Y025911D01*
X009373Y025911D01*
X009277Y025816D01*
X009219Y025676D01*
X009219Y025524D01*
X009277Y025384D01*
X009384Y025277D01*
X009524Y025219D01*
X009676Y025219D01*
X009816Y025277D01*
X009923Y025384D01*
X009981Y025524D01*
X009981Y025676D01*
X009923Y025816D01*
X009827Y025911D01*
X010591Y025911D01*
X009661Y024981D01*
X009524Y024981D01*
X009384Y024923D01*
X009307Y024845D01*
X008440Y024845D01*
X008457Y024862D01*
X008521Y025016D01*
X008521Y025184D01*
X008457Y025338D01*
X008338Y025457D01*
X008184Y025521D01*
X008016Y025521D01*
X007862Y025457D01*
X007743Y025338D01*
X007679Y025184D01*
X007679Y025016D01*
X007743Y024862D01*
X007852Y024753D01*
X006831Y023733D01*
X005521Y025043D01*
X005521Y025184D01*
X005457Y025338D01*
X005338Y025457D01*
X005184Y025521D01*
X005016Y025521D01*
X004862Y025457D01*
X004743Y025338D01*
X004679Y025184D01*
X004679Y025016D01*
X004743Y024862D01*
X004862Y024743D01*
X005016Y024679D01*
X005152Y024679D01*
X006465Y023366D01*
X006119Y023021D01*
X005926Y023021D01*
X005679Y022774D01*
X005679Y022426D01*
X005849Y022256D01*
X005849Y015409D01*
X005889Y015313D01*
X005962Y015241D01*
X007340Y013862D01*
X007340Y012435D01*
X007179Y012274D01*
X007179Y011926D01*
X007385Y011720D01*
X007385Y011614D01*
X007425Y011519D01*
X007498Y011446D01*
X008350Y010593D01*
X008350Y008100D01*
X011476Y008100D01*
X011981Y007595D01*
X011895Y007595D01*
X011605Y007305D01*
X011605Y007100D01*
X012100Y007100D01*
X012100Y006605D01*
X012305Y006605D01*
X012355Y006655D01*
X012355Y006644D01*
X012394Y006549D01*
X012467Y006476D01*
X013100Y005843D01*
X013100Y004724D01*
X011200Y006624D01*
X011297Y006624D01*
X011576Y006903D01*
X011576Y007297D01*
X011297Y007576D01*
X010903Y007576D01*
X010624Y007297D01*
X010624Y006910D01*
X004725Y006910D01*
X004346Y007289D01*
X004541Y007370D01*
X004690Y007519D01*
X004771Y007714D01*
X004771Y007926D01*
X004690Y008121D01*
X004541Y008270D01*
X004346Y008351D01*
X004134Y008351D01*
X003939Y008270D01*
X003790Y008121D01*
X003709Y007926D01*
X003635Y008000D01*
X003540Y008039D01*
X002944Y008039D01*
X002910Y008121D01*
X002761Y008270D01*
X002566Y008351D01*
X002354Y008351D01*
X002159Y008270D01*
X002010Y008121D01*
X001929Y007926D01*
X001929Y007714D01*
X002010Y007519D01*
X002159Y007370D01*
X002354Y007289D01*
X002566Y007289D01*
X002761Y007370D01*
X002910Y007519D01*
X002911Y007521D01*
X003381Y007521D01*
X004398Y006504D01*
X004471Y006431D01*
X004566Y006392D01*
X009368Y006392D01*
X009354Y006378D01*
X009279Y006198D01*
X009279Y006002D01*
X009354Y005822D01*
X009492Y005684D01*
X009672Y005609D01*
X009725Y005609D01*
X009651Y005597D01*
X009574Y005573D01*
X009503Y005536D01*
X009438Y005489D01*
X005214Y005489D01*
X005206Y005517D02*
X005064Y005763D01*
X004863Y005964D01*
X004617Y006106D01*
X004342Y006180D01*
X004058Y006180D01*
X003783Y006106D01*
X003537Y005964D01*
X003336Y005763D01*
X003194Y005517D01*
X003120Y005242D01*
X003120Y004958D01*
X003194Y004683D01*
X003336Y004437D01*
X003537Y004236D01*
X003783Y004094D01*
X004058Y004020D01*
X004342Y004020D01*
X004617Y004094D01*
X004863Y004236D01*
X005064Y004437D01*
X005206Y004683D01*
X005280Y004958D01*
X005280Y005242D01*
X005206Y005517D01*
X005131Y005648D02*
X009580Y005648D01*
X009438Y005489D02*
X009381Y005432D01*
X009334Y005367D01*
X009297Y005296D01*
X009273Y005219D01*
X009260Y005140D01*
X009260Y005130D01*
X010070Y005130D01*
X010070Y005070D01*
X009260Y005070D01*
X009260Y005060D01*
X009273Y004981D01*
X009297Y004904D01*
X009334Y004833D01*
X009381Y004768D01*
X009438Y004711D01*
X009503Y004664D01*
X009574Y004627D01*
X009651Y004603D01*
X009725Y004591D01*
X009672Y004591D01*
X009492Y004516D01*
X009354Y004378D01*
X009279Y004198D01*
X009279Y004002D01*
X009354Y003822D01*
X009492Y003684D01*
X009672Y003609D01*
X010528Y003609D01*
X010708Y003684D01*
X010846Y003822D01*
X010921Y004002D01*
X010921Y004198D01*
X010846Y004378D01*
X010708Y004516D01*
X010528Y004591D01*
X010475Y004591D01*
X010549Y004603D01*
X010626Y004627D01*
X010697Y004664D01*
X010762Y004711D01*
X010819Y004768D01*
X010866Y004833D01*
X010903Y004904D01*
X010927Y004981D01*
X010940Y005060D01*
X010940Y005070D01*
X010130Y005070D01*
X010130Y005130D01*
X010940Y005130D01*
X010940Y005140D01*
X010927Y005219D01*
X010903Y005296D01*
X010866Y005367D01*
X010819Y005432D01*
X010762Y005489D01*
X011602Y005489D01*
X011444Y005648D02*
X010620Y005648D01*
X010626Y005573D02*
X010549Y005597D01*
X010475Y005609D01*
X010528Y005609D01*
X010708Y005684D01*
X010846Y005822D01*
X010921Y006002D01*
X010921Y006170D01*
X013100Y003991D01*
X013100Y000350D01*
X000350Y000350D01*
X000350Y031350D01*
X039290Y031350D01*
X039290Y000350D01*
X029100Y000350D01*
X029100Y001329D01*
X029403Y000998D01*
X029405Y000992D01*
X029438Y000960D01*
X029468Y000926D01*
X029474Y000924D01*
X029478Y000919D01*
X029520Y000902D01*
X029562Y000882D01*
X029568Y000882D01*
X029573Y000880D01*
X029617Y000880D01*
X029650Y000799D01*
X029799Y000650D01*
X029994Y000569D01*
X030206Y000569D01*
X030401Y000650D01*
X030550Y000799D01*
X030631Y000994D01*
X030631Y001206D01*
X030550Y001401D01*
X030401Y001550D01*
X030206Y001631D01*
X029994Y001631D01*
X029799Y001550D01*
X029695Y001446D01*
X029234Y001950D01*
X030100Y002600D01*
X030100Y004600D01*
X025850Y004600D01*
X025850Y009100D01*
X030600Y009100D01*
X030600Y014100D01*
X029745Y014100D01*
X029787Y014141D01*
X029910Y014439D01*
X029910Y014761D01*
X029787Y015059D01*
X029559Y015287D01*
X029261Y015410D01*
X028939Y015410D01*
X028641Y015287D01*
X028413Y015059D01*
X028290Y014761D01*
X028290Y014439D01*
X028413Y014141D01*
X028455Y014100D01*
X028386Y014207D02*
X023264Y014207D01*
X023264Y014365D02*
X028321Y014365D01*
X028290Y014524D02*
X023264Y014524D01*
X023264Y014682D02*
X028290Y014682D01*
X028323Y014841D02*
X023264Y014841D01*
X023264Y014999D02*
X028389Y014999D01*
X028512Y015158D02*
X023264Y015158D01*
X023264Y015316D02*
X028712Y015316D01*
X029488Y015316D02*
X035034Y015316D01*
X035034Y015158D02*
X029688Y015158D01*
X029811Y014999D02*
X035034Y014999D01*
X035034Y014841D02*
X029877Y014841D01*
X029910Y014682D02*
X035034Y014682D01*
X035034Y014524D02*
X029910Y014524D01*
X029879Y014365D02*
X035036Y014365D01*
X035141Y014207D02*
X029814Y014207D01*
X030600Y014048D02*
X031177Y014048D01*
X031090Y014012D02*
X030953Y013875D01*
X030879Y013697D01*
X030879Y013503D01*
X030953Y013325D01*
X031090Y013188D01*
X031268Y013114D01*
X031462Y013114D01*
X031640Y013188D01*
X031777Y013325D01*
X031851Y013503D01*
X031851Y013697D01*
X031777Y013875D01*
X031640Y014012D01*
X031462Y014086D01*
X031268Y014086D01*
X031090Y014012D01*
X030968Y013890D02*
X030600Y013890D01*
X030600Y013731D02*
X030894Y013731D01*
X030879Y013573D02*
X030600Y013573D01*
X030600Y013414D02*
X030916Y013414D01*
X031023Y013256D02*
X030600Y013256D01*
X030600Y013097D02*
X036251Y013097D01*
X036409Y012939D02*
X030600Y012939D01*
X030600Y012780D02*
X036568Y012780D01*
X036726Y012622D02*
X030600Y012622D01*
X030600Y012463D02*
X036885Y012463D01*
X037043Y012305D02*
X030600Y012305D01*
X030600Y012146D02*
X037069Y012146D01*
X037072Y011988D02*
X030600Y011988D01*
X030600Y011829D02*
X037138Y011829D01*
X037279Y011671D02*
X030600Y011671D01*
X030600Y011512D02*
X039290Y011512D01*
X039290Y011354D02*
X030600Y011354D01*
X030600Y011195D02*
X039290Y011195D01*
X039290Y011037D02*
X030600Y011037D01*
X030600Y010878D02*
X039290Y010878D01*
X039290Y010720D02*
X030600Y010720D01*
X030600Y010561D02*
X031959Y010561D01*
X032018Y010586D02*
X031840Y010512D01*
X031703Y010375D01*
X031629Y010197D01*
X031629Y010003D01*
X031703Y009825D01*
X031840Y009688D01*
X031871Y009675D01*
X031871Y002940D01*
X031911Y002845D01*
X033078Y001678D01*
X033059Y001633D01*
X033059Y001418D01*
X033142Y001219D01*
X033294Y001067D01*
X033492Y000984D01*
X033708Y000984D01*
X033906Y001067D01*
X034058Y001219D01*
X034141Y001418D01*
X034141Y001633D01*
X034058Y001831D01*
X033906Y001984D01*
X033708Y002066D01*
X033492Y002066D01*
X033443Y002045D01*
X032390Y003099D01*
X032390Y009688D01*
X032390Y009688D01*
X032527Y009825D01*
X032601Y010003D01*
X032601Y010197D01*
X032527Y010375D01*
X032390Y010512D01*
X032212Y010586D01*
X032018Y010586D01*
X032271Y010561D02*
X033877Y010561D01*
X033891Y010568D02*
X033820Y010532D01*
X033756Y010485D01*
X033700Y010429D01*
X033653Y010365D01*
X033617Y010294D01*
X033592Y010218D01*
X033580Y010140D01*
X033580Y010100D01*
X034085Y010100D01*
X034590Y010100D01*
X034590Y010140D01*
X034578Y010218D01*
X034553Y010294D01*
X034517Y010365D01*
X034470Y010429D01*
X034414Y010485D01*
X034350Y010532D01*
X034279Y010568D01*
X034203Y010593D01*
X034125Y010605D01*
X034085Y010605D01*
X034085Y010100D01*
X034085Y010100D01*
X034085Y010100D01*
X034590Y010100D01*
X034590Y010060D01*
X034578Y009982D01*
X034553Y009906D01*
X034517Y009835D01*
X034470Y009771D01*
X034414Y009715D01*
X034350Y009668D01*
X034279Y009632D01*
X034203Y009607D01*
X034125Y009595D01*
X034085Y009595D01*
X034085Y010100D01*
X034085Y010100D01*
X034085Y010100D01*
X034085Y010605D01*
X034045Y010605D01*
X033967Y010593D01*
X033891Y010568D01*
X034085Y010561D02*
X034085Y010561D01*
X034085Y010403D02*
X034085Y010403D01*
X034085Y010244D02*
X034085Y010244D01*
X034085Y010100D02*
X033580Y010100D01*
X033580Y010060D01*
X033592Y009982D01*
X033617Y009906D01*
X033653Y009835D01*
X033700Y009771D01*
X033756Y009715D01*
X033820Y009668D01*
X033891Y009632D01*
X033967Y009607D01*
X034045Y009595D01*
X034085Y009595D01*
X034085Y010100D01*
X034085Y010086D02*
X034085Y010086D01*
X034085Y009927D02*
X034085Y009927D01*
X034085Y009769D02*
X034085Y009769D01*
X034085Y009610D02*
X034085Y009610D01*
X034211Y009610D02*
X035439Y009610D01*
X035439Y009624D02*
X035439Y009076D01*
X035826Y008689D01*
X036374Y008689D01*
X036761Y009076D01*
X036761Y009624D01*
X036374Y010011D01*
X035826Y010011D01*
X035439Y009624D01*
X035439Y009452D02*
X032390Y009452D01*
X032390Y009610D02*
X033959Y009610D01*
X033702Y009769D02*
X032470Y009769D01*
X032569Y009927D02*
X033610Y009927D01*
X033580Y010086D02*
X032601Y010086D01*
X032581Y010244D02*
X033601Y010244D01*
X033681Y010403D02*
X032499Y010403D01*
X031731Y010403D02*
X030600Y010403D01*
X030600Y010244D02*
X031649Y010244D01*
X031629Y010086D02*
X030600Y010086D01*
X030600Y009927D02*
X031661Y009927D01*
X031760Y009769D02*
X030600Y009769D01*
X030600Y009610D02*
X031871Y009610D01*
X031871Y009452D02*
X030600Y009452D01*
X030600Y009293D02*
X031871Y009293D01*
X031871Y009135D02*
X030600Y009135D01*
X031871Y008976D02*
X025850Y008976D01*
X025850Y008818D02*
X031871Y008818D01*
X031871Y008659D02*
X025850Y008659D01*
X025850Y008501D02*
X031871Y008501D01*
X031871Y008342D02*
X025850Y008342D01*
X025850Y008184D02*
X027999Y008184D01*
X028076Y008261D02*
X027689Y007874D01*
X027689Y007326D01*
X028076Y006939D01*
X028624Y006939D01*
X029011Y007326D01*
X029011Y007874D01*
X028624Y008261D01*
X028076Y008261D01*
X027841Y008025D02*
X025850Y008025D01*
X025850Y007867D02*
X027689Y007867D01*
X027689Y007708D02*
X025850Y007708D01*
X025850Y007550D02*
X027689Y007550D01*
X027689Y007391D02*
X025850Y007391D01*
X025850Y007233D02*
X027783Y007233D01*
X027942Y007074D02*
X025850Y007074D01*
X025850Y006916D02*
X030862Y006916D01*
X030903Y006874D02*
X030624Y007153D01*
X030624Y007547D01*
X030903Y007826D01*
X031297Y007826D01*
X031576Y007547D01*
X031576Y007153D01*
X031297Y006874D01*
X030903Y006874D01*
X030903Y006826D02*
X030624Y006547D01*
X030624Y006153D01*
X030903Y005874D01*
X031297Y005874D01*
X031576Y006153D01*
X031576Y006547D01*
X031297Y006826D01*
X030903Y006826D01*
X030834Y006757D02*
X025850Y006757D01*
X025850Y006599D02*
X030676Y006599D01*
X030624Y006440D02*
X025850Y006440D01*
X025850Y006282D02*
X030624Y006282D01*
X030654Y006123D02*
X028785Y006123D01*
X028799Y006112D02*
X028729Y006167D01*
X028651Y006211D01*
X028569Y006245D01*
X028483Y006268D01*
X028395Y006280D01*
X028370Y006280D01*
X028370Y005620D01*
X028330Y005620D01*
X028330Y006280D01*
X028305Y006280D01*
X028217Y006268D01*
X028131Y006245D01*
X028049Y006211D01*
X027971Y006167D01*
X027901Y006112D01*
X027838Y006049D01*
X027783Y005979D01*
X027739Y005901D01*
X027705Y005819D01*
X027682Y005733D01*
X027670Y005645D01*
X027670Y005620D01*
X028330Y005620D01*
X028330Y005580D01*
X027670Y005580D01*
X027670Y005555D01*
X027682Y005467D01*
X027705Y005381D01*
X027739Y005299D01*
X027783Y005221D01*
X027838Y005151D01*
X027901Y005088D01*
X027971Y005033D01*
X028049Y004989D01*
X028131Y004955D01*
X028217Y004932D01*
X028305Y004920D01*
X028330Y004920D01*
X028330Y005580D01*
X028370Y005580D01*
X028370Y005620D01*
X029030Y005620D01*
X029030Y005645D01*
X029018Y005733D01*
X028995Y005819D01*
X028961Y005901D01*
X028917Y005979D01*
X028862Y006049D01*
X028799Y006112D01*
X028925Y005965D02*
X030813Y005965D01*
X031387Y005965D02*
X031871Y005965D01*
X031871Y006123D02*
X031546Y006123D01*
X031576Y006282D02*
X031871Y006282D01*
X031871Y006440D02*
X031576Y006440D01*
X031524Y006599D02*
X031871Y006599D01*
X031871Y006757D02*
X031366Y006757D01*
X031338Y006916D02*
X031871Y006916D01*
X031871Y007074D02*
X031497Y007074D01*
X031576Y007233D02*
X031871Y007233D01*
X031871Y007391D02*
X031576Y007391D01*
X031573Y007550D02*
X031871Y007550D01*
X031871Y007708D02*
X031415Y007708D01*
X031871Y007867D02*
X029011Y007867D01*
X029011Y007708D02*
X030785Y007708D01*
X030627Y007550D02*
X029011Y007550D01*
X029011Y007391D02*
X030624Y007391D01*
X030624Y007233D02*
X028917Y007233D01*
X028758Y007074D02*
X030703Y007074D01*
X031871Y008025D02*
X028859Y008025D01*
X028701Y008184D02*
X031871Y008184D01*
X032390Y008184D02*
X039290Y008184D01*
X039290Y008342D02*
X032390Y008342D01*
X032390Y008501D02*
X039290Y008501D01*
X039290Y008659D02*
X032390Y008659D01*
X032390Y008818D02*
X035698Y008818D01*
X035540Y008976D02*
X032390Y008976D01*
X032390Y009135D02*
X035439Y009135D01*
X035439Y009293D02*
X032390Y009293D01*
X032390Y008025D02*
X039290Y008025D01*
X039290Y007867D02*
X034178Y007867D01*
X034271Y007774D02*
X034024Y008021D01*
X033676Y008021D01*
X033429Y007774D01*
X033429Y007426D01*
X033676Y007179D01*
X034024Y007179D01*
X034271Y007426D01*
X034271Y007774D01*
X034271Y007708D02*
X039290Y007708D01*
X039290Y007550D02*
X034271Y007550D01*
X034236Y007391D02*
X039290Y007391D01*
X039290Y007233D02*
X037640Y007233D01*
X037547Y007326D02*
X037826Y007047D01*
X037826Y006653D01*
X037547Y006374D01*
X037153Y006374D01*
X036874Y006653D01*
X036874Y007047D01*
X037153Y007326D01*
X037547Y007326D01*
X037799Y007074D02*
X039290Y007074D01*
X039290Y006916D02*
X037826Y006916D01*
X037826Y006757D02*
X039290Y006757D01*
X039290Y006599D02*
X037771Y006599D01*
X037613Y006440D02*
X039290Y006440D01*
X039290Y006282D02*
X034771Y006282D01*
X034771Y006176D02*
X034771Y006524D01*
X034723Y006572D01*
X035955Y006572D01*
X036153Y006374D01*
X036547Y006374D01*
X036826Y006653D01*
X036826Y007047D01*
X036547Y007326D01*
X036153Y007326D01*
X035918Y007091D01*
X033751Y007091D01*
X033655Y007051D01*
X033375Y006771D01*
X033176Y006771D01*
X032929Y006524D01*
X032929Y006176D01*
X033176Y005929D01*
X033524Y005929D01*
X033771Y006176D01*
X033771Y006433D01*
X033910Y006572D01*
X033977Y006572D01*
X033929Y006524D01*
X033929Y006176D01*
X034176Y005929D01*
X034524Y005929D01*
X034771Y006176D01*
X034718Y006123D02*
X039290Y006123D01*
X039290Y005965D02*
X034559Y005965D01*
X034141Y005965D02*
X033559Y005965D01*
X033718Y006123D02*
X033982Y006123D01*
X033929Y006282D02*
X033771Y006282D01*
X033777Y006440D02*
X033929Y006440D01*
X033520Y006916D02*
X032390Y006916D01*
X032390Y007074D02*
X033711Y007074D01*
X033623Y007233D02*
X033077Y007233D01*
X033024Y007179D02*
X033271Y007426D01*
X033271Y007774D01*
X033024Y008021D01*
X032676Y008021D01*
X032429Y007774D01*
X032429Y007426D01*
X032676Y007179D01*
X033024Y007179D01*
X033236Y007391D02*
X033464Y007391D01*
X033429Y007550D02*
X033271Y007550D01*
X033271Y007708D02*
X033429Y007708D01*
X033522Y007867D02*
X033178Y007867D01*
X032522Y007867D02*
X032390Y007867D01*
X032390Y007708D02*
X032429Y007708D01*
X032429Y007550D02*
X032390Y007550D01*
X032390Y007391D02*
X032464Y007391D01*
X032390Y007233D02*
X032623Y007233D01*
X032390Y006757D02*
X033162Y006757D01*
X033004Y006599D02*
X032390Y006599D01*
X032390Y006440D02*
X032929Y006440D01*
X032929Y006282D02*
X032390Y006282D01*
X032390Y006123D02*
X032982Y006123D01*
X033141Y005965D02*
X032390Y005965D01*
X032390Y005806D02*
X035036Y005806D01*
X034999Y005791D02*
X034869Y005661D01*
X034799Y005492D01*
X034799Y004708D01*
X034869Y004539D01*
X034999Y004409D01*
X035168Y004339D01*
X035352Y004339D01*
X035521Y004409D01*
X035651Y004539D01*
X035721Y004708D01*
X035721Y005492D01*
X035651Y005661D01*
X035521Y005791D01*
X035352Y005861D01*
X035168Y005861D01*
X034999Y005791D01*
X034864Y005648D02*
X032390Y005648D01*
X032390Y005489D02*
X034799Y005489D01*
X034799Y005331D02*
X032390Y005331D01*
X032390Y005172D02*
X033387Y005172D01*
X033294Y005133D02*
X033142Y004981D01*
X033059Y004782D01*
X033059Y004567D01*
X033142Y004369D01*
X033294Y004216D01*
X033492Y004134D01*
X033708Y004134D01*
X033906Y004216D01*
X034058Y004369D01*
X034141Y004567D01*
X034141Y004782D01*
X034058Y004981D01*
X033906Y005133D01*
X033708Y005216D01*
X033492Y005216D01*
X033294Y005133D01*
X033174Y005014D02*
X032390Y005014D01*
X032390Y004855D02*
X033089Y004855D01*
X033059Y004697D02*
X032390Y004697D01*
X032390Y004538D02*
X033071Y004538D01*
X033137Y004380D02*
X032390Y004380D01*
X032390Y004221D02*
X033289Y004221D01*
X033911Y004221D02*
X035796Y004221D01*
X035818Y004228D02*
X035746Y004205D01*
X035678Y004171D01*
X035617Y004126D01*
X035564Y004073D01*
X035519Y004012D01*
X035485Y003944D01*
X035462Y003872D01*
X035450Y003798D01*
X035450Y003480D01*
X035910Y003480D01*
X035910Y004240D01*
X035892Y004240D01*
X035818Y004228D01*
X035910Y004221D02*
X035950Y004221D01*
X035950Y004240D02*
X035950Y003480D01*
X035910Y003480D01*
X035910Y003440D01*
X035450Y003440D01*
X035450Y003122D01*
X035462Y003048D01*
X035485Y002976D01*
X035519Y002908D01*
X035564Y002847D01*
X035617Y002794D01*
X035678Y002749D01*
X035746Y002715D01*
X035818Y002692D01*
X035892Y002680D01*
X035910Y002680D01*
X035910Y003440D01*
X035950Y003440D01*
X035950Y003480D01*
X036410Y003480D01*
X036410Y003798D01*
X036398Y003872D01*
X036375Y003944D01*
X036341Y004012D01*
X036296Y004073D01*
X036243Y004126D01*
X036182Y004171D01*
X036114Y004205D01*
X036042Y004228D01*
X035968Y004240D01*
X035950Y004240D01*
X036064Y004221D02*
X039290Y004221D01*
X039290Y004063D02*
X037619Y004063D01*
X037661Y004021D02*
X037531Y004151D01*
X037362Y004221D01*
X037178Y004221D01*
X037009Y004151D01*
X036879Y004021D01*
X036809Y003852D01*
X036809Y003068D01*
X036879Y002899D01*
X037009Y002769D01*
X037178Y002699D01*
X037362Y002699D01*
X037531Y002769D01*
X037661Y002899D01*
X037731Y003068D01*
X037731Y003852D01*
X037661Y004021D01*
X037709Y003904D02*
X039290Y003904D01*
X039290Y003746D02*
X037731Y003746D01*
X037731Y003587D02*
X039290Y003587D01*
X039290Y003429D02*
X037731Y003429D01*
X037731Y003270D02*
X039290Y003270D01*
X039290Y003112D02*
X037731Y003112D01*
X037683Y002953D02*
X039290Y002953D01*
X039290Y002795D02*
X037556Y002795D01*
X036984Y002795D02*
X036243Y002795D01*
X036243Y002794D02*
X036296Y002847D01*
X036341Y002908D01*
X036375Y002976D01*
X036398Y003048D01*
X036410Y003122D01*
X036410Y003440D01*
X035950Y003440D01*
X035950Y002680D01*
X035968Y002680D01*
X036042Y002692D01*
X036114Y002715D01*
X036182Y002749D01*
X036243Y002794D01*
X036363Y002953D02*
X036857Y002953D01*
X036809Y003112D02*
X036408Y003112D01*
X036410Y003270D02*
X036809Y003270D01*
X036809Y003429D02*
X036410Y003429D01*
X036410Y003587D02*
X036809Y003587D01*
X036809Y003746D02*
X036410Y003746D01*
X036388Y003904D02*
X036831Y003904D01*
X036921Y004063D02*
X036304Y004063D01*
X036411Y004380D02*
X035449Y004380D01*
X035650Y004538D02*
X036210Y004538D01*
X036209Y004539D02*
X036339Y004409D01*
X036508Y004339D01*
X036692Y004339D01*
X036861Y004409D01*
X036991Y004539D01*
X037061Y004708D01*
X037061Y005492D01*
X036991Y005661D01*
X036861Y005791D01*
X036692Y005861D01*
X036508Y005861D01*
X036339Y005791D01*
X036209Y005661D01*
X036139Y005492D01*
X036139Y004708D01*
X036209Y004539D01*
X036144Y004697D02*
X035716Y004697D01*
X035721Y004855D02*
X036139Y004855D01*
X036139Y005014D02*
X035721Y005014D01*
X035721Y005172D02*
X036139Y005172D01*
X036139Y005331D02*
X035721Y005331D01*
X035721Y005489D02*
X036139Y005489D01*
X036204Y005648D02*
X035656Y005648D01*
X035484Y005806D02*
X036376Y005806D01*
X036824Y005806D02*
X037716Y005806D01*
X037679Y005791D02*
X037549Y005661D01*
X037479Y005492D01*
X037479Y004708D01*
X037549Y004539D01*
X037679Y004409D01*
X037848Y004339D01*
X038032Y004339D01*
X038201Y004409D01*
X038331Y004539D01*
X038401Y004708D01*
X038401Y005492D01*
X038331Y005661D01*
X038201Y005791D01*
X038032Y005861D01*
X037848Y005861D01*
X037679Y005791D01*
X037544Y005648D02*
X036996Y005648D01*
X037061Y005489D02*
X037479Y005489D01*
X037479Y005331D02*
X037061Y005331D01*
X037061Y005172D02*
X037479Y005172D01*
X037479Y005014D02*
X037061Y005014D01*
X037061Y004855D02*
X037479Y004855D01*
X037484Y004697D02*
X037056Y004697D01*
X036990Y004538D02*
X037550Y004538D01*
X037751Y004380D02*
X036789Y004380D01*
X035950Y004063D02*
X035910Y004063D01*
X035910Y003904D02*
X035950Y003904D01*
X035950Y003746D02*
X035910Y003746D01*
X035910Y003587D02*
X035950Y003587D01*
X035950Y003429D02*
X035910Y003429D01*
X035910Y003270D02*
X035950Y003270D01*
X035950Y003112D02*
X035910Y003112D01*
X035910Y002953D02*
X035950Y002953D01*
X035950Y002795D02*
X035910Y002795D01*
X035617Y002795D02*
X032694Y002795D01*
X032535Y002953D02*
X035497Y002953D01*
X035452Y003112D02*
X032390Y003112D01*
X032390Y003270D02*
X035450Y003270D01*
X035450Y003429D02*
X032390Y003429D01*
X032390Y003587D02*
X035450Y003587D01*
X035450Y003746D02*
X032390Y003746D01*
X032390Y003904D02*
X035472Y003904D01*
X035556Y004063D02*
X032390Y004063D01*
X031871Y004063D02*
X031588Y004063D01*
X031595Y004055D02*
X031305Y004345D01*
X031100Y004345D01*
X031100Y003850D01*
X031100Y003850D01*
X031595Y003850D01*
X031595Y004055D01*
X031595Y003904D02*
X031871Y003904D01*
X031871Y003746D02*
X031595Y003746D01*
X031595Y003645D02*
X031595Y003850D01*
X031100Y003850D01*
X031100Y003850D01*
X031100Y003850D01*
X030605Y003850D01*
X030605Y004055D01*
X030895Y004345D01*
X031100Y004345D01*
X031100Y003850D01*
X031100Y003355D01*
X031305Y003355D01*
X031595Y003645D01*
X031537Y003587D02*
X031871Y003587D01*
X031871Y003429D02*
X031379Y003429D01*
X031297Y003326D02*
X030903Y003326D01*
X030624Y003047D01*
X030624Y002653D01*
X030903Y002374D01*
X031297Y002374D01*
X031576Y002653D01*
X031576Y003047D01*
X031297Y003326D01*
X031353Y003270D02*
X031871Y003270D01*
X031871Y003112D02*
X031511Y003112D01*
X031576Y002953D02*
X031871Y002953D01*
X031961Y002795D02*
X031576Y002795D01*
X031559Y002636D02*
X032119Y002636D01*
X032278Y002478D02*
X031400Y002478D01*
X030800Y002478D02*
X029937Y002478D01*
X030100Y002636D02*
X030641Y002636D01*
X030624Y002795D02*
X030100Y002795D01*
X030100Y002953D02*
X030624Y002953D01*
X030689Y003112D02*
X030100Y003112D01*
X030100Y003270D02*
X030847Y003270D01*
X030895Y003355D02*
X030605Y003645D01*
X030605Y003850D01*
X031100Y003850D01*
X031100Y003850D01*
X031100Y003355D01*
X030895Y003355D01*
X030821Y003429D02*
X030100Y003429D01*
X030100Y003587D02*
X030663Y003587D01*
X030605Y003746D02*
X030100Y003746D01*
X030100Y003904D02*
X030605Y003904D01*
X030612Y004063D02*
X030100Y004063D01*
X030100Y004221D02*
X030771Y004221D01*
X031100Y004221D02*
X031100Y004221D01*
X031100Y004063D02*
X031100Y004063D01*
X031100Y003904D02*
X031100Y003904D01*
X031100Y003746D02*
X031100Y003746D01*
X031100Y003587D02*
X031100Y003587D01*
X031100Y003429D02*
X031100Y003429D01*
X031429Y004221D02*
X031871Y004221D01*
X031871Y004380D02*
X030100Y004380D01*
X030100Y004538D02*
X031871Y004538D01*
X031871Y004697D02*
X025850Y004697D01*
X025850Y004855D02*
X031871Y004855D01*
X031871Y005014D02*
X028694Y005014D01*
X028729Y005033D02*
X028799Y005088D01*
X028862Y005151D01*
X028917Y005221D01*
X028961Y005299D01*
X028995Y005381D01*
X029018Y005467D01*
X029030Y005555D01*
X029030Y005580D01*
X028370Y005580D01*
X028370Y004920D01*
X028395Y004920D01*
X028483Y004932D01*
X028569Y004955D01*
X028651Y004989D01*
X028729Y005033D01*
X028879Y005172D02*
X031871Y005172D01*
X031871Y005331D02*
X028974Y005331D01*
X029021Y005489D02*
X031871Y005489D01*
X031871Y005648D02*
X029030Y005648D01*
X028999Y005806D02*
X031871Y005806D01*
X033813Y005172D02*
X034799Y005172D01*
X034799Y005014D02*
X034026Y005014D01*
X034111Y004855D02*
X034799Y004855D01*
X034804Y004697D02*
X034141Y004697D01*
X034129Y004538D02*
X034870Y004538D01*
X035071Y004380D02*
X034063Y004380D01*
X032852Y002636D02*
X039290Y002636D01*
X039290Y002478D02*
X033011Y002478D01*
X033169Y002319D02*
X039290Y002319D01*
X039290Y002161D02*
X033328Y002161D01*
X032912Y001844D02*
X029332Y001844D01*
X029303Y002002D02*
X032753Y002002D01*
X032595Y002161D02*
X029514Y002161D01*
X029725Y002319D02*
X032436Y002319D01*
X032206Y001631D02*
X031994Y001631D01*
X031799Y001550D01*
X031650Y001401D01*
X031569Y001206D01*
X031569Y000994D01*
X031650Y000799D01*
X031799Y000650D01*
X031994Y000569D01*
X032206Y000569D01*
X032401Y000650D01*
X032550Y000799D01*
X032631Y000994D01*
X032631Y001206D01*
X032550Y001401D01*
X032401Y001550D01*
X032206Y001631D01*
X032424Y001527D02*
X033059Y001527D01*
X033070Y001685D02*
X029477Y001685D01*
X029622Y001527D02*
X029776Y001527D01*
X029354Y001051D02*
X029100Y001051D01*
X029100Y000893D02*
X029540Y000893D01*
X029715Y000734D02*
X029100Y000734D01*
X029100Y000576D02*
X029979Y000576D01*
X030221Y000576D02*
X031979Y000576D01*
X032221Y000576D02*
X039290Y000576D01*
X039290Y000734D02*
X032485Y000734D01*
X032588Y000893D02*
X039290Y000893D01*
X039290Y001051D02*
X033868Y001051D01*
X034049Y001210D02*
X039290Y001210D01*
X039290Y001368D02*
X034120Y001368D01*
X034141Y001527D02*
X039290Y001527D01*
X039290Y001685D02*
X034119Y001685D01*
X034046Y001844D02*
X039290Y001844D01*
X039290Y002002D02*
X033862Y002002D01*
X033080Y001368D02*
X032563Y001368D01*
X032629Y001210D02*
X033151Y001210D01*
X033332Y001051D02*
X032631Y001051D01*
X031715Y000734D02*
X030485Y000734D01*
X030588Y000893D02*
X031612Y000893D01*
X031569Y001051D02*
X030631Y001051D01*
X030629Y001210D02*
X031571Y001210D01*
X031637Y001368D02*
X030563Y001368D01*
X030424Y001527D02*
X031776Y001527D01*
X029209Y001210D02*
X029100Y001210D01*
X029100Y000417D02*
X039290Y000417D01*
X039290Y004380D02*
X038129Y004380D01*
X038330Y004538D02*
X039290Y004538D01*
X039290Y004697D02*
X038396Y004697D01*
X038401Y004855D02*
X039290Y004855D01*
X039290Y005014D02*
X038401Y005014D01*
X038401Y005172D02*
X039290Y005172D01*
X039290Y005331D02*
X038401Y005331D01*
X038401Y005489D02*
X039290Y005489D01*
X039290Y005648D02*
X038336Y005648D01*
X038164Y005806D02*
X039290Y005806D01*
X037087Y006440D02*
X036613Y006440D01*
X036771Y006599D02*
X036929Y006599D01*
X036874Y006757D02*
X036826Y006757D01*
X036826Y006916D02*
X036874Y006916D01*
X036901Y007074D02*
X036799Y007074D01*
X036640Y007233D02*
X037060Y007233D01*
X036060Y007233D02*
X034077Y007233D01*
X034771Y006440D02*
X036087Y006440D01*
X036502Y008818D02*
X037698Y008818D01*
X037726Y008790D02*
X037969Y008689D01*
X038231Y008689D01*
X038474Y008790D01*
X038660Y008976D01*
X039290Y008976D01*
X039290Y008818D02*
X038502Y008818D01*
X038660Y008976D02*
X038761Y009219D01*
X038761Y009481D01*
X038660Y009724D01*
X038474Y009910D01*
X038231Y010011D01*
X037969Y010011D01*
X037726Y009910D01*
X037540Y009724D01*
X037439Y009481D01*
X037439Y009219D01*
X037540Y008976D01*
X036660Y008976D01*
X036761Y009135D02*
X037474Y009135D01*
X037439Y009293D02*
X036761Y009293D01*
X036761Y009452D02*
X037439Y009452D01*
X037493Y009610D02*
X036761Y009610D01*
X036616Y009769D02*
X037584Y009769D01*
X037767Y009927D02*
X036457Y009927D01*
X035743Y009927D02*
X034560Y009927D01*
X034590Y010086D02*
X039290Y010086D01*
X039290Y010244D02*
X034569Y010244D01*
X034489Y010403D02*
X039290Y010403D01*
X039290Y010561D02*
X034293Y010561D01*
X034468Y009769D02*
X035584Y009769D01*
X037540Y008976D02*
X037726Y008790D01*
X038726Y009135D02*
X039290Y009135D01*
X039290Y009293D02*
X038761Y009293D01*
X038761Y009452D02*
X039290Y009452D01*
X039290Y009610D02*
X038707Y009610D01*
X038616Y009769D02*
X039290Y009769D01*
X039290Y009927D02*
X038433Y009927D01*
X037921Y011671D02*
X039290Y011671D01*
X039290Y011829D02*
X038062Y011829D01*
X038128Y011988D02*
X039290Y011988D01*
X039290Y012146D02*
X038131Y012146D01*
X038090Y012305D02*
X039290Y012305D01*
X039290Y012463D02*
X037988Y012463D01*
X037872Y012622D02*
X039290Y012622D01*
X039290Y012780D02*
X038047Y012780D01*
X038126Y012939D02*
X039290Y012939D01*
X039290Y013097D02*
X037620Y013097D01*
X037580Y013097D02*
X036984Y013097D01*
X037072Y013256D02*
X036825Y013256D01*
X036667Y013414D02*
X037148Y013414D01*
X037316Y013573D02*
X036508Y013573D01*
X036350Y013731D02*
X037191Y013731D01*
X037090Y013890D02*
X036191Y013890D01*
X036033Y014048D02*
X037051Y014048D01*
X037060Y014207D02*
X035874Y014207D01*
X035716Y014365D02*
X037118Y014365D01*
X037247Y014524D02*
X035557Y014524D01*
X035552Y014682D02*
X039290Y014682D01*
X039290Y014524D02*
X037953Y014524D01*
X037958Y014520D02*
X037888Y014570D01*
X037811Y014610D01*
X037729Y014636D01*
X037643Y014650D01*
X037620Y014650D01*
X037620Y014120D01*
X038150Y014120D01*
X038150Y014143D01*
X038136Y014229D01*
X038110Y014311D01*
X038070Y014388D01*
X038020Y014458D01*
X037958Y014520D01*
X038082Y014365D02*
X039290Y014365D01*
X039290Y014207D02*
X038140Y014207D01*
X038149Y014048D02*
X039290Y014048D01*
X039290Y013890D02*
X038110Y013890D01*
X038009Y013731D02*
X039290Y013731D01*
X039290Y013573D02*
X037884Y013573D01*
X038052Y013414D02*
X039290Y013414D01*
X039290Y013256D02*
X038128Y013256D01*
X037620Y013256D02*
X037580Y013256D01*
X037580Y013414D02*
X037620Y013414D01*
X037620Y013573D02*
X037580Y013573D01*
X037580Y013731D02*
X037620Y013731D01*
X037620Y013890D02*
X037580Y013890D01*
X037580Y014048D02*
X037620Y014048D01*
X037620Y014207D02*
X037580Y014207D01*
X037580Y014365D02*
X037620Y014365D01*
X037620Y014524D02*
X037580Y014524D01*
X036092Y013256D02*
X033677Y013256D01*
X033610Y013188D02*
X033747Y013325D01*
X033821Y013503D01*
X033821Y013697D01*
X033747Y013875D01*
X033610Y014012D01*
X033432Y014086D01*
X033238Y014086D01*
X033060Y014012D01*
X032923Y013875D01*
X032849Y013697D01*
X032849Y013503D01*
X032923Y013325D01*
X033060Y013188D01*
X033238Y013114D01*
X033432Y013114D01*
X033610Y013188D01*
X033784Y013414D02*
X035934Y013414D01*
X035775Y013573D02*
X033821Y013573D01*
X033806Y013731D02*
X035617Y013731D01*
X035458Y013890D02*
X033732Y013890D01*
X033523Y014048D02*
X035300Y014048D01*
X035552Y014841D02*
X039290Y014841D01*
X039290Y014999D02*
X035552Y014999D01*
X035552Y015158D02*
X039290Y015158D01*
X039290Y015316D02*
X035552Y015316D01*
X035552Y015475D02*
X039290Y015475D01*
X039290Y015633D02*
X035552Y015633D01*
X035552Y015792D02*
X039290Y015792D01*
X039290Y015950D02*
X037412Y015950D01*
X037382Y015920D02*
X037780Y016318D01*
X037780Y016580D01*
X037120Y016580D01*
X037120Y016620D01*
X037080Y016620D01*
X037080Y017280D01*
X036818Y017280D01*
X036420Y016882D01*
X036420Y016620D01*
X037080Y016620D01*
X037080Y016580D01*
X036420Y016580D01*
X036420Y016318D01*
X036818Y015920D01*
X037080Y015920D01*
X037080Y016580D01*
X037120Y016580D01*
X037120Y015920D01*
X037382Y015920D01*
X037120Y015950D02*
X037080Y015950D01*
X037080Y016109D02*
X037120Y016109D01*
X037120Y016267D02*
X037080Y016267D01*
X037080Y016426D02*
X037120Y016426D01*
X037120Y016584D02*
X039290Y016584D01*
X039290Y016426D02*
X037780Y016426D01*
X037729Y016267D02*
X039290Y016267D01*
X039290Y016109D02*
X037570Y016109D01*
X037780Y016620D02*
X037120Y016620D01*
X037120Y017280D01*
X037382Y017280D01*
X037780Y016882D01*
X037780Y016620D01*
X037780Y016743D02*
X039290Y016743D01*
X039290Y016901D02*
X037761Y016901D01*
X037602Y017060D02*
X039290Y017060D01*
X039290Y017218D02*
X037444Y017218D01*
X037120Y017218D02*
X037080Y017218D01*
X037080Y017060D02*
X037120Y017060D01*
X037120Y016901D02*
X037080Y016901D01*
X037080Y016743D02*
X037120Y016743D01*
X037080Y016584D02*
X035552Y016584D01*
X035552Y016426D02*
X036420Y016426D01*
X036471Y016267D02*
X035552Y016267D01*
X035552Y016109D02*
X036630Y016109D01*
X036788Y015950D02*
X035552Y015950D01*
X035034Y015950D02*
X032612Y015950D01*
X032631Y016109D02*
X035034Y016109D01*
X035034Y016267D02*
X032605Y016267D01*
X032525Y016426D02*
X035034Y016426D01*
X035034Y016584D02*
X032345Y016584D01*
X032345Y016743D02*
X034257Y016743D01*
X034395Y016605D02*
X034600Y016605D01*
X034600Y017100D01*
X034600Y017100D01*
X034600Y017100D01*
X034105Y017100D01*
X034105Y017305D01*
X034395Y017595D01*
X034600Y017595D01*
X034600Y017100D01*
X034105Y017100D01*
X034105Y016895D01*
X034395Y016605D01*
X034600Y016743D02*
X034600Y016743D01*
X034600Y016901D02*
X034600Y016901D01*
X034600Y017060D02*
X034600Y017060D01*
X034600Y017218D02*
X034600Y017218D01*
X034600Y017377D02*
X034600Y017377D01*
X034600Y017535D02*
X034600Y017535D01*
X034865Y017535D02*
X035034Y017535D01*
X035024Y017377D02*
X035034Y017377D01*
X035034Y017694D02*
X034866Y017694D01*
X035025Y017852D02*
X035034Y017852D01*
X035552Y017852D02*
X039290Y017852D01*
X039290Y017694D02*
X035552Y017694D01*
X035552Y017535D02*
X039290Y017535D01*
X039290Y017377D02*
X035552Y017377D01*
X035552Y017218D02*
X036756Y017218D01*
X036598Y017060D02*
X035552Y017060D01*
X035552Y016901D02*
X036439Y016901D01*
X036420Y016743D02*
X035552Y016743D01*
X035034Y016743D02*
X034943Y016743D01*
X034105Y016901D02*
X032345Y016901D01*
X032345Y017060D02*
X034105Y017060D01*
X034105Y017218D02*
X032345Y017218D01*
X032339Y017377D02*
X034176Y017377D01*
X034335Y017535D02*
X032229Y017535D01*
X032444Y017694D02*
X034334Y017694D01*
X034175Y017852D02*
X032572Y017852D01*
X032631Y018011D02*
X034124Y018011D01*
X034124Y018169D02*
X032631Y018169D01*
X032580Y018328D02*
X034155Y018328D01*
X034313Y018486D02*
X032465Y018486D01*
X032532Y019160D02*
X032350Y019160D01*
X032350Y019600D01*
X032790Y019600D01*
X032790Y019782D01*
X032532Y020040D01*
X032350Y020040D01*
X032350Y019600D01*
X032350Y019600D01*
X032350Y019600D01*
X032790Y019600D01*
X032790Y019418D01*
X032532Y019160D01*
X032651Y019279D02*
X033076Y019279D01*
X033176Y019179D02*
X033524Y019179D01*
X033771Y019426D01*
X033771Y019774D01*
X033524Y020021D01*
X033176Y020021D01*
X032929Y019774D01*
X032929Y019426D01*
X033176Y019179D01*
X032929Y019437D02*
X032790Y019437D01*
X032790Y019596D02*
X032929Y019596D01*
X032929Y019754D02*
X032790Y019754D01*
X032660Y019913D02*
X033068Y019913D01*
X033632Y019913D02*
X034996Y019913D01*
X035034Y019754D02*
X033771Y019754D01*
X033771Y019596D02*
X035034Y019596D01*
X035034Y019437D02*
X033771Y019437D01*
X033624Y019279D02*
X035034Y019279D01*
X035034Y019120D02*
X030644Y019120D01*
X030486Y019279D02*
X032049Y019279D01*
X032168Y019160D02*
X031910Y019418D01*
X031910Y019600D01*
X032350Y019600D01*
X032350Y019600D01*
X032350Y019600D01*
X032350Y020040D01*
X032168Y020040D01*
X031910Y019782D01*
X031910Y019600D01*
X032350Y019600D01*
X032350Y019160D01*
X032168Y019160D01*
X032350Y019279D02*
X032350Y019279D01*
X032350Y019437D02*
X032350Y019437D01*
X032350Y019596D02*
X032350Y019596D01*
X032350Y019754D02*
X032350Y019754D01*
X032350Y019913D02*
X032350Y019913D01*
X032040Y019913D02*
X029852Y019913D01*
X029693Y020071D02*
X034856Y020071D01*
X034799Y020230D02*
X030440Y020230D01*
X030465Y020248D02*
X030527Y020310D01*
X030579Y020381D01*
X030619Y020460D01*
X030646Y020544D01*
X030660Y020631D01*
X030660Y020645D01*
X030130Y020645D01*
X030130Y020705D01*
X030070Y020705D01*
X030070Y021235D01*
X030056Y021235D01*
X029969Y021221D01*
X029885Y021194D01*
X029806Y021154D01*
X029735Y021102D01*
X029673Y021040D01*
X029621Y020968D01*
X029581Y020890D01*
X029554Y020806D01*
X029540Y020719D01*
X029540Y020705D01*
X029137Y020705D01*
X029137Y020864D02*
X029573Y020864D01*
X029540Y020705D02*
X030070Y020705D01*
X030130Y020705D01*
X030130Y021235D01*
X030144Y021235D01*
X030231Y021221D01*
X030315Y021194D01*
X030394Y021154D01*
X030465Y021102D01*
X030527Y021040D01*
X030579Y020968D01*
X030619Y020890D01*
X030646Y020806D01*
X030660Y020719D01*
X030660Y020705D01*
X033400Y020705D01*
X033426Y020679D02*
X033774Y020679D01*
X034021Y020926D01*
X034021Y021274D01*
X033774Y021521D01*
X033426Y021521D01*
X033179Y021274D01*
X033179Y020926D01*
X033426Y020679D01*
X033241Y020864D02*
X030627Y020864D01*
X030660Y020705D02*
X030130Y020705D01*
X030070Y020705D02*
X030070Y020645D01*
X029540Y020645D01*
X029540Y020631D01*
X029554Y020544D01*
X029581Y020460D01*
X029621Y020381D01*
X029673Y020310D01*
X029735Y020248D01*
X029806Y020196D01*
X029885Y020156D01*
X029969Y020129D01*
X030056Y020115D01*
X030070Y020115D01*
X030070Y020645D01*
X030130Y020645D01*
X030130Y020115D01*
X030144Y020115D01*
X030231Y020129D01*
X030315Y020156D01*
X030394Y020196D01*
X030465Y020248D01*
X030582Y020388D02*
X034799Y020388D01*
X034799Y020547D02*
X030647Y020547D01*
X030130Y020547D02*
X030070Y020547D01*
X030070Y020388D02*
X030130Y020388D01*
X030130Y020230D02*
X030070Y020230D01*
X029760Y020230D02*
X029535Y020230D01*
X029618Y020388D02*
X029376Y020388D01*
X029218Y020547D02*
X029553Y020547D01*
X030070Y020864D02*
X030130Y020864D01*
X030130Y021022D02*
X030070Y021022D01*
X030070Y021181D02*
X030130Y021181D01*
X030341Y021181D02*
X033179Y021181D01*
X033179Y021022D02*
X030540Y021022D01*
X029859Y021181D02*
X029137Y021181D01*
X029137Y021339D02*
X033244Y021339D01*
X033403Y021498D02*
X029137Y021498D01*
X029137Y021656D02*
X034989Y021656D01*
X034989Y021498D02*
X033797Y021498D01*
X033774Y021679D02*
X033426Y021679D01*
X033179Y021926D01*
X033179Y022274D01*
X033426Y022521D01*
X033774Y022521D01*
X034021Y022274D01*
X034021Y021926D01*
X033774Y021679D01*
X033910Y021815D02*
X034989Y021815D01*
X034874Y021973D02*
X034021Y021973D01*
X034021Y022132D02*
X034716Y022132D01*
X034557Y022290D02*
X034005Y022290D01*
X033846Y022449D02*
X034399Y022449D01*
X034240Y022607D02*
X032307Y022607D01*
X032305Y022605D02*
X032595Y022895D01*
X032595Y023100D01*
X032595Y023305D01*
X032305Y023595D01*
X032100Y023595D01*
X032100Y023100D01*
X032100Y023100D01*
X032595Y023100D01*
X032100Y023100D01*
X032100Y023100D01*
X032100Y023100D01*
X031605Y023100D01*
X031605Y023305D01*
X031895Y023595D01*
X032100Y023595D01*
X032100Y023100D01*
X032100Y022605D01*
X032305Y022605D01*
X032100Y022607D02*
X032100Y022607D01*
X032100Y022605D02*
X032100Y023100D01*
X032100Y023100D01*
X031605Y023100D01*
X031605Y022895D01*
X031895Y022605D01*
X032100Y022605D01*
X032100Y022766D02*
X032100Y022766D01*
X032100Y022924D02*
X032100Y022924D01*
X032100Y023083D02*
X032100Y023083D01*
X032100Y023241D02*
X032100Y023241D01*
X032100Y023400D02*
X032100Y023400D01*
X032100Y023558D02*
X032100Y023558D01*
X032342Y023558D02*
X032885Y023558D01*
X032811Y023717D02*
X032389Y023717D01*
X032548Y023875D02*
X032652Y023875D01*
X032727Y023400D02*
X032500Y023400D01*
X032595Y023241D02*
X032624Y023241D01*
X032624Y023083D02*
X032595Y023083D01*
X032595Y022924D02*
X032624Y022924D01*
X032762Y022766D02*
X032466Y022766D01*
X033195Y022290D02*
X030252Y022290D01*
X030280Y022318D02*
X030280Y022580D01*
X029620Y022580D01*
X029620Y021920D01*
X029882Y021920D01*
X030280Y022318D01*
X030280Y022449D02*
X033354Y022449D01*
X033438Y022766D02*
X034082Y022766D01*
X033923Y022924D02*
X033576Y022924D01*
X033576Y023083D02*
X033765Y023083D01*
X033606Y023241D02*
X033576Y023241D01*
X034022Y023558D02*
X039290Y023558D01*
X039290Y023400D02*
X034181Y023400D01*
X034339Y023241D02*
X039290Y023241D01*
X039290Y023083D02*
X034498Y023083D01*
X034656Y022924D02*
X035662Y022924D01*
X035525Y022766D02*
X034815Y022766D01*
X034973Y022607D02*
X035469Y022607D01*
X035469Y022449D02*
X035132Y022449D01*
X035290Y022290D02*
X035469Y022290D01*
X035469Y022132D02*
X035449Y022132D01*
X035507Y021656D02*
X035562Y021656D01*
X035507Y021498D02*
X035794Y021498D01*
X036066Y021498D02*
X036976Y021498D01*
X036976Y021582D02*
X036976Y021198D01*
X036966Y021213D01*
X036913Y021266D01*
X036852Y021311D01*
X036784Y021345D01*
X036712Y021368D01*
X036638Y021380D01*
X036620Y021380D01*
X036620Y020620D01*
X036580Y020620D01*
X036580Y021380D01*
X036562Y021380D01*
X036488Y021368D01*
X036416Y021345D01*
X036348Y021311D01*
X036287Y021266D01*
X036234Y021213D01*
X036189Y021152D01*
X036155Y021084D01*
X036132Y021012D01*
X036120Y020938D01*
X036120Y020620D01*
X036580Y020620D01*
X036580Y020580D01*
X036620Y020580D01*
X036620Y019820D01*
X036638Y019820D01*
X036712Y019832D01*
X036784Y019855D01*
X036852Y019889D01*
X036913Y019934D01*
X036966Y019987D01*
X036976Y020002D01*
X036976Y019261D01*
X036969Y019261D01*
X036726Y019160D01*
X036540Y018974D01*
X036439Y018731D01*
X036439Y018469D01*
X036540Y018226D01*
X036726Y018040D01*
X036969Y017939D01*
X037231Y017939D01*
X037474Y018040D01*
X037660Y018226D01*
X037761Y018469D01*
X037761Y018731D01*
X037660Y018974D01*
X037495Y019140D01*
X037495Y020171D01*
X037549Y020039D01*
X037679Y019909D01*
X037848Y019839D01*
X038032Y019839D01*
X038201Y019909D01*
X038331Y020039D01*
X038401Y020208D01*
X038401Y020992D01*
X038331Y021161D01*
X038201Y021291D01*
X038032Y021361D01*
X037848Y021361D01*
X037679Y021291D01*
X037549Y021161D01*
X037495Y021029D01*
X037495Y021534D01*
X037531Y021549D01*
X037661Y021679D01*
X037731Y021848D01*
X037731Y022632D01*
X037661Y022801D01*
X037531Y022931D01*
X037362Y023001D01*
X037178Y023001D01*
X037009Y022931D01*
X036879Y022801D01*
X036809Y022632D01*
X036809Y021848D01*
X036879Y021679D01*
X036976Y021582D01*
X036902Y021656D02*
X036298Y021656D01*
X036377Y021815D02*
X036823Y021815D01*
X036809Y021973D02*
X036391Y021973D01*
X036391Y022132D02*
X036809Y022132D01*
X036809Y022290D02*
X036391Y022290D01*
X036391Y022449D02*
X036809Y022449D01*
X036809Y022607D02*
X036391Y022607D01*
X036335Y022766D02*
X036865Y022766D01*
X037002Y022924D02*
X036198Y022924D01*
X037538Y022924D02*
X039290Y022924D01*
X039290Y022766D02*
X037675Y022766D01*
X037731Y022607D02*
X039290Y022607D01*
X039290Y022449D02*
X037731Y022449D01*
X037731Y022290D02*
X039290Y022290D01*
X039290Y022132D02*
X037731Y022132D01*
X037731Y021973D02*
X039290Y021973D01*
X039290Y021815D02*
X037717Y021815D01*
X037638Y021656D02*
X039290Y021656D01*
X039290Y021498D02*
X037495Y021498D01*
X037495Y021339D02*
X037796Y021339D01*
X037569Y021181D02*
X037495Y021181D01*
X036976Y021339D02*
X036796Y021339D01*
X036620Y021339D02*
X036580Y021339D01*
X036580Y021181D02*
X036620Y021181D01*
X036620Y021022D02*
X036580Y021022D01*
X036580Y020864D02*
X036620Y020864D01*
X036620Y020705D02*
X036580Y020705D01*
X036580Y020580D02*
X036120Y020580D01*
X036120Y020262D01*
X036132Y020188D01*
X036155Y020116D01*
X036189Y020048D01*
X036234Y019987D01*
X036287Y019934D01*
X036348Y019889D01*
X036416Y019855D01*
X036488Y019832D01*
X036562Y019820D01*
X036580Y019820D01*
X036580Y020580D01*
X036580Y020547D02*
X036620Y020547D01*
X036620Y020388D02*
X036580Y020388D01*
X036580Y020230D02*
X036620Y020230D01*
X036620Y020071D02*
X036580Y020071D01*
X036580Y019913D02*
X036620Y019913D01*
X036883Y019913D02*
X036976Y019913D01*
X036976Y019754D02*
X035552Y019754D01*
X035552Y019596D02*
X036976Y019596D01*
X036976Y019437D02*
X035552Y019437D01*
X035552Y019279D02*
X036976Y019279D01*
X036686Y019120D02*
X035552Y019120D01*
X035552Y018962D02*
X036535Y018962D01*
X036469Y018803D02*
X035552Y018803D01*
X035552Y018645D02*
X036439Y018645D01*
X036439Y018486D02*
X035552Y018486D01*
X035552Y018328D02*
X036498Y018328D01*
X036597Y018169D02*
X035552Y018169D01*
X035552Y018011D02*
X036797Y018011D01*
X037403Y018011D02*
X039290Y018011D01*
X039290Y018169D02*
X037603Y018169D01*
X037702Y018328D02*
X039290Y018328D01*
X039290Y018486D02*
X037761Y018486D01*
X037761Y018645D02*
X039290Y018645D01*
X039290Y018803D02*
X037731Y018803D01*
X037665Y018962D02*
X039290Y018962D01*
X039290Y019120D02*
X037514Y019120D01*
X037495Y019279D02*
X039290Y019279D01*
X039290Y019437D02*
X037495Y019437D01*
X037495Y019596D02*
X039290Y019596D01*
X039290Y019754D02*
X037495Y019754D01*
X037495Y019913D02*
X037676Y019913D01*
X037536Y020071D02*
X037495Y020071D01*
X038204Y019913D02*
X039290Y019913D01*
X039290Y020071D02*
X038344Y020071D01*
X038401Y020230D02*
X039290Y020230D01*
X039290Y020388D02*
X038401Y020388D01*
X038401Y020547D02*
X039290Y020547D01*
X039290Y020705D02*
X038401Y020705D01*
X038401Y020864D02*
X039290Y020864D01*
X039290Y021022D02*
X038388Y021022D01*
X038311Y021181D02*
X039290Y021181D01*
X039290Y021339D02*
X038084Y021339D01*
X036404Y021339D02*
X035507Y021339D01*
X035631Y021181D02*
X036211Y021181D01*
X036135Y021022D02*
X035708Y021022D01*
X035721Y020864D02*
X036120Y020864D01*
X036120Y020705D02*
X035721Y020705D01*
X035721Y020547D02*
X036120Y020547D01*
X036120Y020388D02*
X035721Y020388D01*
X035721Y020230D02*
X036125Y020230D01*
X036178Y020071D02*
X035664Y020071D01*
X035552Y019913D02*
X036317Y019913D01*
X035034Y018962D02*
X030803Y018962D01*
X030961Y018803D02*
X035034Y018803D01*
X035034Y018645D02*
X031120Y018645D01*
X031278Y018486D02*
X031735Y018486D01*
X031620Y018328D02*
X031437Y018328D01*
X031021Y018011D02*
X030341Y018011D01*
X030406Y017984D02*
X030208Y018066D01*
X029992Y018066D01*
X029794Y017984D01*
X029642Y017831D01*
X029559Y017633D01*
X029559Y017418D01*
X029642Y017219D01*
X029794Y017067D01*
X029992Y016984D01*
X030208Y016984D01*
X030406Y017067D01*
X030558Y017219D01*
X030641Y017418D01*
X030641Y017633D01*
X030558Y017831D01*
X030406Y017984D01*
X030538Y017852D02*
X031179Y017852D01*
X031338Y017694D02*
X030616Y017694D01*
X030641Y017535D02*
X031496Y017535D01*
X031655Y017377D02*
X030624Y017377D01*
X030558Y017218D02*
X031813Y017218D01*
X031826Y017060D02*
X030389Y017060D01*
X029811Y017060D02*
X023981Y017060D01*
X023963Y017218D02*
X029642Y017218D01*
X029576Y017377D02*
X023862Y017377D01*
X023930Y016901D02*
X031826Y016901D01*
X031826Y016743D02*
X023732Y016743D01*
X023468Y016743D02*
X023264Y016743D01*
X023264Y016901D02*
X023270Y016901D01*
X023264Y016584D02*
X031826Y016584D01*
X031675Y016426D02*
X023264Y016426D01*
X023264Y016267D02*
X031595Y016267D01*
X031569Y016109D02*
X023264Y016109D01*
X023264Y015950D02*
X031588Y015950D01*
X031658Y015792D02*
X023264Y015792D01*
X023264Y015633D02*
X031841Y015633D01*
X032359Y015633D02*
X035034Y015633D01*
X035034Y015475D02*
X023264Y015475D01*
X023240Y017377D02*
X023338Y017377D01*
X023104Y017535D02*
X029559Y017535D01*
X029584Y017694D02*
X022945Y017694D01*
X021257Y017694D02*
X019844Y017694D01*
X020002Y017852D02*
X029662Y017852D01*
X029859Y018011D02*
X020161Y018011D01*
X020319Y018169D02*
X030862Y018169D01*
X030704Y018328D02*
X020478Y018328D01*
X020636Y018486D02*
X030545Y018486D01*
X030387Y018645D02*
X020795Y018645D01*
X020953Y018803D02*
X030228Y018803D01*
X030070Y018962D02*
X021112Y018962D01*
X021270Y019120D02*
X029911Y019120D01*
X029753Y019279D02*
X021429Y019279D01*
X021587Y019437D02*
X029594Y019437D01*
X029436Y019596D02*
X021746Y019596D01*
X021904Y019754D02*
X029277Y019754D01*
X029119Y019913D02*
X023734Y019913D01*
X023893Y020071D02*
X023990Y020071D01*
X024210Y020071D02*
X024990Y020071D01*
X025210Y020071D02*
X025990Y020071D01*
X026210Y020071D02*
X026990Y020071D01*
X027210Y020071D02*
X027990Y020071D01*
X028210Y020071D02*
X028960Y020071D01*
X028802Y020230D02*
X028480Y020230D01*
X028587Y020388D02*
X028652Y020388D01*
X028619Y020735D02*
X028550Y020901D01*
X028401Y021050D01*
X028206Y021131D01*
X027994Y021131D01*
X027799Y021050D01*
X027650Y020901D01*
X027600Y020780D01*
X027550Y020901D01*
X027401Y021050D01*
X027206Y021131D01*
X026994Y021131D01*
X026799Y021050D01*
X026650Y020901D01*
X026600Y020780D01*
X026550Y020901D01*
X026401Y021050D01*
X026206Y021131D01*
X025994Y021131D01*
X025799Y021050D01*
X025650Y020901D01*
X025600Y020780D01*
X025550Y020901D01*
X025401Y021050D01*
X025206Y021131D01*
X024994Y021131D01*
X024799Y021050D01*
X024650Y020901D01*
X024600Y020780D01*
X024550Y020901D01*
X024401Y021050D01*
X024206Y021131D01*
X023994Y021131D01*
X023799Y021050D01*
X023650Y020901D01*
X023600Y020780D01*
X023550Y020901D01*
X023401Y021050D01*
X023206Y021131D01*
X022994Y021131D01*
X022799Y021050D01*
X022650Y020901D01*
X022600Y020780D01*
X022550Y020901D01*
X022401Y021050D01*
X022206Y021131D01*
X021994Y021131D01*
X021799Y021050D01*
X021650Y020901D01*
X021600Y020780D01*
X021550Y020901D01*
X021401Y021050D01*
X021206Y021131D01*
X020994Y021131D01*
X020799Y021050D01*
X020650Y020901D01*
X020569Y020706D01*
X020569Y020494D01*
X020650Y020299D01*
X020799Y020150D01*
X020994Y020069D01*
X021206Y020069D01*
X021401Y020150D01*
X021550Y020299D01*
X021600Y020420D01*
X021650Y020299D01*
X021752Y020198D01*
X021710Y020156D01*
X021710Y020156D01*
X018425Y016870D01*
X018338Y016957D01*
X018184Y017021D01*
X018016Y017021D01*
X017862Y016957D01*
X017743Y016838D01*
X017679Y016684D01*
X017679Y016516D01*
X017743Y016362D01*
X017862Y016243D01*
X017880Y016236D01*
X017463Y015819D01*
X017463Y014100D01*
X008350Y014100D01*
X008350Y011326D01*
X007904Y011773D01*
X007904Y011809D01*
X008021Y011926D01*
X008021Y012274D01*
X007859Y012436D01*
X007859Y014021D01*
X007819Y014116D01*
X007756Y014179D01*
X007774Y014179D01*
X007938Y014343D01*
X012620Y014343D01*
X012716Y014382D01*
X013605Y015272D01*
X013605Y015100D01*
X014100Y015100D01*
X014100Y015100D01*
X014100Y015595D01*
X014305Y015595D01*
X014595Y015305D01*
X014595Y015100D01*
X014100Y015100D01*
X014100Y015100D01*
X014100Y015595D01*
X013928Y015595D01*
X013958Y015624D01*
X014297Y015624D01*
X014576Y015903D01*
X014576Y016242D01*
X014664Y016331D01*
X014774Y016331D01*
X014862Y016243D01*
X015016Y016179D01*
X015184Y016179D01*
X015338Y016243D01*
X015457Y016362D01*
X015462Y016376D01*
X016370Y016376D01*
X016465Y016415D01*
X017679Y017629D01*
X017679Y017516D01*
X017743Y017362D01*
X017862Y017243D01*
X018016Y017179D01*
X018184Y017179D01*
X018338Y017243D01*
X018457Y017362D01*
X018521Y017516D01*
X018521Y017684D01*
X018457Y017838D01*
X018338Y017957D01*
X018184Y018021D01*
X018071Y018021D01*
X020215Y020165D01*
X020288Y020238D01*
X020327Y020333D01*
X020327Y021512D01*
X020328Y021515D01*
X020976Y022341D01*
X027092Y022341D01*
X027135Y022338D01*
X027143Y022341D01*
X027152Y022341D01*
X027192Y022357D01*
X027233Y022372D01*
X027239Y022377D01*
X027247Y022380D01*
X027277Y022411D01*
X028601Y023579D01*
X028619Y022641D01*
X028619Y020735D01*
X028619Y020864D02*
X028565Y020864D01*
X028619Y021022D02*
X028429Y021022D01*
X028619Y021181D02*
X020327Y021181D01*
X020327Y021339D02*
X028619Y021339D01*
X028619Y021498D02*
X020327Y021498D01*
X020439Y021656D02*
X028619Y021656D01*
X028619Y021815D02*
X020563Y021815D01*
X020688Y021973D02*
X028619Y021973D01*
X028619Y022132D02*
X020812Y022132D01*
X020936Y022290D02*
X028619Y022290D01*
X028619Y022449D02*
X027320Y022449D01*
X027500Y022607D02*
X028619Y022607D01*
X028616Y022766D02*
X027679Y022766D01*
X027859Y022924D02*
X028613Y022924D01*
X028611Y023083D02*
X028039Y023083D01*
X028219Y023241D02*
X028608Y023241D01*
X028605Y023400D02*
X028398Y023400D01*
X028578Y023558D02*
X028602Y023558D01*
X029137Y023558D02*
X031858Y023558D01*
X031811Y023717D02*
X029137Y023717D01*
X029137Y023875D02*
X031652Y023875D01*
X031624Y024034D02*
X029959Y024034D01*
X030126Y024192D02*
X031624Y024192D01*
X031919Y024668D02*
X039290Y024668D01*
X039290Y024826D02*
X031731Y024826D01*
X032364Y024509D02*
X032836Y024509D01*
X033364Y024509D02*
X039290Y024509D01*
X039290Y024351D02*
X033522Y024351D01*
X033576Y024192D02*
X039290Y024192D01*
X039290Y024034D02*
X033576Y024034D01*
X033705Y023875D02*
X039290Y023875D01*
X039290Y023717D02*
X033864Y023717D01*
X033179Y022132D02*
X030093Y022132D01*
X029935Y021973D02*
X033179Y021973D01*
X033290Y021815D02*
X029137Y021815D01*
X029137Y021973D02*
X029265Y021973D01*
X029580Y021973D02*
X029620Y021973D01*
X029620Y022132D02*
X029580Y022132D01*
X029580Y022290D02*
X029620Y022290D01*
X029620Y022449D02*
X029580Y022449D01*
X029620Y022607D02*
X031893Y022607D01*
X031734Y022766D02*
X030280Y022766D01*
X030280Y022882D02*
X030280Y022620D01*
X029620Y022620D01*
X029620Y023280D01*
X029882Y023280D01*
X030280Y022882D01*
X030238Y022924D02*
X031605Y022924D01*
X031605Y023083D02*
X030079Y023083D01*
X029921Y023241D02*
X031605Y023241D01*
X031700Y023400D02*
X029137Y023400D01*
X029137Y023241D02*
X029279Y023241D01*
X029580Y023241D02*
X029620Y023241D01*
X029620Y023083D02*
X029580Y023083D01*
X029580Y022924D02*
X029620Y022924D01*
X029620Y022766D02*
X029580Y022766D01*
X029241Y024034D02*
X029137Y024034D01*
X028619Y024351D02*
X023071Y024351D01*
X023050Y024401D02*
X022901Y024550D01*
X022780Y024600D01*
X022901Y024650D01*
X023050Y024799D01*
X023131Y024994D01*
X023131Y025206D01*
X023050Y025401D01*
X022901Y025550D01*
X022780Y025600D01*
X022901Y025650D01*
X023050Y025799D01*
X023131Y025994D01*
X023131Y026206D01*
X023050Y026401D01*
X022901Y026550D01*
X022807Y026589D01*
X022811Y026590D01*
X022888Y026630D01*
X022958Y026680D01*
X023020Y026742D01*
X023070Y026812D01*
X023110Y026889D01*
X023136Y026971D01*
X023150Y027057D01*
X023150Y027080D01*
X022620Y027080D01*
X022620Y027120D01*
X023150Y027120D01*
X023150Y027143D01*
X023136Y027229D01*
X023110Y027311D01*
X023070Y027388D01*
X023020Y027458D01*
X022958Y027520D01*
X022888Y027570D01*
X022830Y027600D01*
X022888Y027630D01*
X022958Y027680D01*
X023020Y027742D01*
X023070Y027812D01*
X023110Y027889D01*
X023136Y027971D01*
X023150Y028057D01*
X023150Y028080D01*
X022620Y028080D01*
X022620Y028120D01*
X023150Y028120D01*
X023150Y028143D01*
X023136Y028229D01*
X023110Y028311D01*
X023070Y028388D01*
X023020Y028458D01*
X022958Y028520D01*
X022888Y028570D01*
X022830Y028600D01*
X022888Y028630D01*
X022958Y028680D01*
X023020Y028742D01*
X023070Y028812D01*
X023110Y028889D01*
X023136Y028971D01*
X023150Y029057D01*
X023150Y029080D01*
X022620Y029080D01*
X022620Y029120D01*
X023150Y029120D01*
X023150Y029143D01*
X023136Y029229D01*
X023110Y029311D01*
X023070Y029388D01*
X023020Y029458D01*
X022958Y029520D01*
X022888Y029570D01*
X022811Y029610D01*
X022729Y029636D01*
X022643Y029650D01*
X022620Y029650D01*
X022620Y029120D01*
X022580Y029120D01*
X022580Y029650D01*
X022557Y029650D01*
X022471Y029636D01*
X022389Y029610D01*
X022312Y029570D01*
X022242Y029520D01*
X022180Y029458D01*
X022130Y029388D01*
X022090Y029311D01*
X022064Y029229D01*
X022050Y029143D01*
X022050Y029120D01*
X022580Y029120D01*
X022580Y029080D01*
X022050Y029080D01*
X022050Y029057D01*
X022064Y028971D01*
X022090Y028889D01*
X022130Y028812D01*
X022180Y028742D01*
X022242Y028680D01*
X022312Y028630D01*
X022370Y028600D01*
X022312Y028570D01*
X022242Y028520D01*
X022180Y028458D01*
X022130Y028388D01*
X022090Y028311D01*
X022064Y028229D01*
X022050Y028143D01*
X022050Y028120D01*
X022580Y028120D01*
X022580Y029080D01*
X022620Y029080D01*
X022620Y028650D01*
X022620Y028120D01*
X022580Y028120D01*
X022580Y028080D01*
X022050Y028080D01*
X022050Y028057D01*
X022064Y027971D01*
X022090Y027889D01*
X022130Y027812D01*
X022180Y027742D01*
X022242Y027680D01*
X022312Y027630D01*
X022370Y027600D01*
X022312Y027570D01*
X022242Y027520D01*
X022180Y027458D01*
X022130Y027388D01*
X022090Y027311D01*
X022064Y027229D01*
X022050Y027143D01*
X022050Y027120D01*
X022580Y027120D01*
X022580Y028080D01*
X022620Y028080D01*
X022620Y027550D01*
X022620Y027120D01*
X022580Y027120D01*
X022580Y027080D01*
X022050Y027080D01*
X022050Y027057D01*
X022064Y026971D01*
X022090Y026889D01*
X022130Y026812D01*
X022180Y026742D01*
X022242Y026680D01*
X022312Y026630D01*
X022389Y026590D01*
X022393Y026589D01*
X022299Y026550D01*
X022150Y026401D01*
X022069Y026206D01*
X022069Y025994D01*
X022150Y025799D01*
X022299Y025650D01*
X022420Y025600D01*
X022299Y025550D01*
X022150Y025401D01*
X022069Y025206D01*
X022069Y024994D01*
X022150Y024799D01*
X022299Y024650D01*
X022420Y024600D01*
X022299Y024550D01*
X022150Y024401D01*
X022069Y024206D01*
X022069Y023994D01*
X022150Y023799D01*
X022299Y023650D01*
X022494Y023569D01*
X022706Y023569D01*
X022901Y023650D01*
X023050Y023799D01*
X023131Y023994D01*
X023131Y024206D01*
X023050Y024401D01*
X022941Y024509D02*
X028619Y024509D01*
X028619Y024668D02*
X022918Y024668D01*
X023061Y024826D02*
X028619Y024826D01*
X028619Y024985D02*
X023127Y024985D01*
X023131Y025143D02*
X028619Y025143D01*
X028619Y025302D02*
X023091Y025302D01*
X022990Y025460D02*
X028619Y025460D01*
X028619Y025619D02*
X026246Y025619D01*
X026242Y025614D02*
X026336Y025708D01*
X026336Y026492D01*
X026242Y026586D01*
X025458Y026586D01*
X025364Y026492D01*
X025364Y025708D01*
X025458Y025614D01*
X026242Y025614D01*
X026336Y025777D02*
X028619Y025777D01*
X028619Y025936D02*
X026336Y025936D01*
X026336Y026094D02*
X028619Y026094D01*
X028633Y026253D02*
X026336Y026253D01*
X026336Y026411D02*
X028755Y026411D01*
X028914Y026570D02*
X026258Y026570D01*
X025442Y026570D02*
X025039Y026570D01*
X025044Y026568D02*
X024968Y026593D01*
X024890Y026605D01*
X024850Y026605D01*
X024850Y026100D01*
X025355Y026100D01*
X025355Y026140D01*
X025343Y026218D01*
X025318Y026294D01*
X025282Y026365D01*
X025235Y026429D01*
X025179Y026485D01*
X025115Y026532D01*
X025044Y026568D01*
X024850Y026570D02*
X024850Y026570D01*
X024850Y026605D02*
X024810Y026605D01*
X024732Y026593D01*
X024656Y026568D01*
X024585Y026532D01*
X024521Y026485D01*
X024465Y026429D01*
X024418Y026365D01*
X024382Y026294D01*
X024357Y026218D01*
X024345Y026140D01*
X024345Y026100D01*
X024850Y026100D01*
X024850Y026100D01*
X024850Y026100D01*
X025355Y026100D01*
X025355Y026060D01*
X025343Y025982D01*
X025318Y025906D01*
X025282Y025835D01*
X025235Y025771D01*
X025179Y025715D01*
X025115Y025668D01*
X025044Y025632D01*
X024968Y025607D01*
X024890Y025595D01*
X024850Y025595D01*
X024850Y026100D01*
X024850Y026100D01*
X024850Y026100D01*
X024850Y026605D01*
X024661Y026570D02*
X022853Y026570D01*
X023006Y026728D02*
X027772Y026728D01*
X027895Y026605D02*
X027605Y026895D01*
X027605Y027100D01*
X028100Y027100D01*
X028100Y027100D01*
X028100Y027595D01*
X028305Y027595D01*
X028595Y027305D01*
X028595Y027100D01*
X028100Y027100D01*
X028100Y027100D01*
X028100Y027100D01*
X028100Y027595D01*
X027895Y027595D01*
X027605Y027305D01*
X027605Y027100D01*
X028100Y027100D01*
X028595Y027100D01*
X028595Y026895D01*
X028305Y026605D01*
X028100Y026605D01*
X028100Y027100D01*
X028100Y027100D01*
X028100Y026605D01*
X027895Y026605D01*
X028100Y026728D02*
X028100Y026728D01*
X028100Y026887D02*
X028100Y026887D01*
X028100Y027045D02*
X028100Y027045D01*
X028100Y027204D02*
X028100Y027204D01*
X028100Y027362D02*
X028100Y027362D01*
X028100Y027521D02*
X028100Y027521D01*
X027903Y027624D02*
X028297Y027624D01*
X028576Y027903D01*
X028576Y028297D01*
X028297Y028576D01*
X027903Y028576D01*
X027624Y028297D01*
X027624Y027903D01*
X027903Y027624D01*
X027848Y027679D02*
X022956Y027679D01*
X022957Y027521D02*
X027821Y027521D01*
X027662Y027362D02*
X023084Y027362D01*
X023140Y027204D02*
X027605Y027204D01*
X027605Y027045D02*
X023148Y027045D01*
X023109Y026887D02*
X027613Y026887D01*
X028428Y026728D02*
X028772Y026728D01*
X028613Y026887D02*
X028587Y026887D01*
X028595Y027045D02*
X028605Y027045D01*
X028595Y027204D02*
X028605Y027204D01*
X028662Y027362D02*
X028538Y027362D01*
X028379Y027521D02*
X028821Y027521D01*
X028848Y027679D02*
X028352Y027679D01*
X028510Y027838D02*
X028690Y027838D01*
X028624Y027996D02*
X028576Y027996D01*
X028576Y028155D02*
X028624Y028155D01*
X028640Y028313D02*
X028560Y028313D01*
X028401Y028472D02*
X028799Y028472D01*
X029401Y028472D02*
X030198Y028472D01*
X030179Y028516D02*
X030243Y028362D01*
X030362Y028243D01*
X030516Y028179D01*
X030684Y028179D01*
X030838Y028243D01*
X030957Y028362D01*
X031021Y028516D01*
X031021Y028684D01*
X030971Y028803D01*
X032089Y028803D01*
X033188Y027704D01*
X033179Y027684D01*
X033179Y027516D01*
X033243Y027362D01*
X030957Y027362D01*
X031021Y027516D01*
X031021Y027684D01*
X030957Y027838D01*
X033054Y027838D01*
X033179Y027679D02*
X031021Y027679D01*
X031021Y027521D02*
X033179Y027521D01*
X033243Y027362D02*
X033362Y027243D01*
X033516Y027179D01*
X033684Y027179D01*
X033838Y027243D01*
X033957Y027362D01*
X034665Y027362D01*
X034624Y027403D02*
X034903Y027124D01*
X035297Y027124D01*
X035576Y027403D01*
X035576Y027797D01*
X035297Y028076D01*
X034903Y028076D01*
X034624Y027797D01*
X034624Y027403D01*
X034624Y027521D02*
X034021Y027521D01*
X034021Y027516D02*
X033957Y027362D01*
X034021Y027516D02*
X034021Y027684D01*
X033957Y027838D01*
X034665Y027838D01*
X034624Y027679D02*
X034021Y027679D01*
X033957Y027838D02*
X033838Y027957D01*
X033684Y028021D01*
X033516Y028021D01*
X033481Y028006D01*
X032263Y029224D01*
X030792Y029224D01*
X030838Y029243D01*
X030957Y029362D01*
X031021Y029516D01*
X031021Y029684D01*
X030957Y029838D01*
X030838Y029957D01*
X030684Y030021D01*
X030516Y030021D01*
X030362Y029957D01*
X030243Y029838D01*
X030179Y029684D01*
X030179Y029516D01*
X030243Y029362D01*
X030362Y029243D01*
X030408Y029224D01*
X026526Y029224D01*
X026410Y029339D01*
X026442Y029339D01*
X026611Y029409D01*
X026741Y029539D01*
X026811Y029708D01*
X026811Y030492D01*
X026741Y030661D01*
X026611Y030791D01*
X026442Y030861D01*
X026258Y030861D01*
X026089Y030791D01*
X025959Y030661D01*
X025889Y030492D01*
X025889Y029860D01*
X025811Y029939D01*
X025811Y030492D01*
X025741Y030661D01*
X025611Y030791D01*
X025442Y030861D01*
X025258Y030861D01*
X025089Y030791D01*
X024959Y030661D01*
X024889Y030492D01*
X024889Y029708D01*
X024959Y029539D01*
X025089Y029409D01*
X025258Y029339D01*
X025442Y029339D01*
X025611Y029409D01*
X025678Y029476D01*
X026228Y028926D01*
X026351Y028803D01*
X030229Y028803D01*
X030179Y028684D01*
X030179Y028516D01*
X030179Y028630D02*
X022889Y028630D01*
X023006Y028472D02*
X027799Y028472D01*
X027640Y028313D02*
X023109Y028313D01*
X023148Y028155D02*
X027624Y028155D01*
X027624Y027996D02*
X023140Y027996D01*
X023084Y027838D02*
X027690Y027838D01*
X029100Y027521D02*
X029100Y027521D01*
X029100Y027362D02*
X029100Y027362D01*
X029100Y027204D02*
X029100Y027204D01*
X029860Y027204D02*
X030458Y027204D01*
X030516Y027179D02*
X030362Y027243D01*
X030243Y027362D01*
X029860Y027362D01*
X029860Y027521D02*
X030179Y027521D01*
X030179Y027516D02*
X030243Y027362D01*
X030179Y027516D02*
X030179Y027684D01*
X030243Y027838D01*
X029697Y027838D01*
X029576Y027996D02*
X030457Y027996D01*
X030516Y028021D02*
X030362Y027957D01*
X030243Y027838D01*
X030179Y027679D02*
X029835Y027679D01*
X029576Y028155D02*
X032737Y028155D01*
X032578Y028313D02*
X030908Y028313D01*
X031002Y028472D02*
X032420Y028472D01*
X032261Y028630D02*
X031021Y028630D01*
X030977Y028789D02*
X032103Y028789D01*
X032382Y029106D02*
X039290Y029106D01*
X039290Y029264D02*
X033859Y029264D01*
X033838Y029243D02*
X033957Y029362D01*
X034021Y029516D01*
X034021Y029684D01*
X033957Y029838D01*
X033838Y029957D01*
X033684Y030021D01*
X033516Y030021D01*
X033362Y029957D01*
X033243Y029838D01*
X033179Y029684D01*
X033179Y029516D01*
X033243Y029362D01*
X033362Y029243D01*
X033516Y029179D01*
X033684Y029179D01*
X033838Y029243D01*
X033982Y029423D02*
X039290Y029423D01*
X039290Y029581D02*
X034021Y029581D01*
X033998Y029740D02*
X039290Y029740D01*
X039290Y029898D02*
X033897Y029898D01*
X033303Y029898D02*
X030897Y029898D01*
X030998Y029740D02*
X033202Y029740D01*
X033179Y029581D02*
X031021Y029581D01*
X030982Y029423D02*
X033218Y029423D01*
X033341Y029264D02*
X030859Y029264D01*
X030341Y029264D02*
X026486Y029264D01*
X026624Y029423D02*
X027076Y029423D01*
X027089Y029409D02*
X027258Y029339D01*
X027442Y029339D01*
X027611Y029409D01*
X027741Y029539D01*
X027811Y029708D01*
X027811Y030492D01*
X027741Y030661D01*
X027611Y030791D01*
X027442Y030861D01*
X027258Y030861D01*
X027089Y030791D01*
X026959Y030661D01*
X026889Y030492D01*
X026889Y029708D01*
X026959Y029539D01*
X027089Y029409D01*
X026942Y029581D02*
X026758Y029581D01*
X026811Y029740D02*
X026889Y029740D01*
X026889Y029898D02*
X026811Y029898D01*
X026811Y030057D02*
X026889Y030057D01*
X026889Y030215D02*
X026811Y030215D01*
X026811Y030374D02*
X026889Y030374D01*
X026906Y030532D02*
X026794Y030532D01*
X026711Y030691D02*
X026989Y030691D01*
X027230Y030849D02*
X026470Y030849D01*
X026230Y030849D02*
X025470Y030849D01*
X025230Y030849D02*
X021551Y030849D01*
X021595Y030805D02*
X021305Y031095D01*
X021100Y031095D01*
X021100Y030600D01*
X021100Y030600D01*
X021595Y030600D01*
X021595Y030805D01*
X021595Y030691D02*
X024989Y030691D01*
X024906Y030532D02*
X021595Y030532D01*
X021595Y030600D02*
X021100Y030600D01*
X021100Y030600D01*
X021100Y030600D01*
X020605Y030600D01*
X020605Y030805D01*
X020895Y031095D01*
X021100Y031095D01*
X021100Y030600D01*
X021100Y030105D01*
X021305Y030105D01*
X021595Y030395D01*
X021595Y030600D01*
X021574Y030374D02*
X024889Y030374D01*
X024889Y030215D02*
X021415Y030215D01*
X021297Y030076D02*
X020903Y030076D01*
X020624Y029797D01*
X020624Y029403D01*
X020903Y029124D01*
X021297Y029124D01*
X021576Y029403D01*
X021576Y029797D01*
X021297Y030076D01*
X021316Y030057D02*
X024889Y030057D01*
X024889Y029898D02*
X021475Y029898D01*
X021576Y029740D02*
X024889Y029740D01*
X024942Y029581D02*
X022867Y029581D01*
X023045Y029423D02*
X025076Y029423D01*
X025624Y029423D02*
X025731Y029423D01*
X025890Y029264D02*
X023125Y029264D01*
X023129Y028947D02*
X026207Y028947D01*
X026048Y029106D02*
X022620Y029106D01*
X022580Y029106D02*
X013863Y029106D01*
X014021Y029264D02*
X020763Y029264D01*
X020624Y029423D02*
X014180Y029423D01*
X014338Y029581D02*
X020624Y029581D01*
X020624Y029740D02*
X014912Y029740D01*
X015071Y029898D02*
X020725Y029898D01*
X020884Y030057D02*
X015076Y030057D01*
X015076Y030215D02*
X020785Y030215D01*
X020895Y030105D02*
X020605Y030395D01*
X020605Y030600D01*
X021100Y030600D01*
X021100Y030600D01*
X021100Y030105D01*
X020895Y030105D01*
X021100Y030215D02*
X021100Y030215D01*
X021100Y030374D02*
X021100Y030374D01*
X021100Y030532D02*
X021100Y030532D01*
X021100Y030691D02*
X021100Y030691D01*
X021100Y030849D02*
X021100Y030849D01*
X021100Y031008D02*
X021100Y031008D01*
X021392Y031008D02*
X039290Y031008D01*
X039290Y031166D02*
X000350Y031166D01*
X000350Y031008D02*
X011308Y031008D01*
X011395Y031095D02*
X011105Y030805D01*
X011105Y030600D01*
X011600Y030600D01*
X011600Y030600D01*
X011600Y031095D01*
X011805Y031095D01*
X012095Y030805D01*
X012095Y030600D01*
X011600Y030600D01*
X011600Y030600D01*
X011600Y030600D01*
X011600Y031095D01*
X011395Y031095D01*
X011600Y031008D02*
X011600Y031008D01*
X011600Y030849D02*
X011600Y030849D01*
X011600Y030691D02*
X011600Y030691D01*
X011600Y030600D02*
X011105Y030600D01*
X011105Y030395D01*
X011395Y030105D01*
X011600Y030105D01*
X011805Y030105D01*
X012095Y030395D01*
X012095Y030600D01*
X011600Y030600D01*
X011600Y030105D01*
X011600Y030600D01*
X011600Y030600D01*
X011600Y030532D02*
X011600Y030532D01*
X011600Y030374D02*
X011600Y030374D01*
X011600Y030215D02*
X011600Y030215D01*
X011797Y030076D02*
X011403Y030076D01*
X011124Y029797D01*
X011124Y029403D01*
X011403Y029124D01*
X011797Y029124D01*
X012076Y029403D01*
X012076Y029797D01*
X011797Y030076D01*
X011816Y030057D02*
X013105Y030057D01*
X013105Y030100D02*
X013105Y029895D01*
X013395Y029605D01*
X013600Y029605D01*
X013600Y030100D01*
X013600Y030100D01*
X013600Y030100D01*
X013105Y030100D01*
X013105Y030305D01*
X013395Y030595D01*
X013600Y030595D01*
X013600Y030100D01*
X013105Y030100D01*
X013105Y030215D02*
X011915Y030215D01*
X012074Y030374D02*
X013174Y030374D01*
X013332Y030532D02*
X012095Y030532D01*
X012095Y030691D02*
X020605Y030691D01*
X020605Y030532D02*
X014841Y030532D01*
X014999Y030374D02*
X020626Y030374D01*
X020649Y030849D02*
X012051Y030849D01*
X011892Y031008D02*
X020808Y031008D01*
X021576Y029581D02*
X022333Y029581D01*
X022155Y029423D02*
X021576Y029423D01*
X021437Y029264D02*
X022075Y029264D01*
X022071Y028947D02*
X015848Y028947D01*
X016006Y028789D02*
X016044Y028789D01*
X016301Y028313D02*
X016640Y028313D01*
X016624Y028155D02*
X016142Y028155D01*
X015984Y027996D02*
X016624Y027996D01*
X016690Y027838D02*
X015825Y027838D01*
X015667Y027679D02*
X016848Y027679D01*
X016903Y027576D02*
X016624Y027297D01*
X016624Y026903D01*
X016903Y026624D01*
X017297Y026624D01*
X017576Y026903D01*
X017576Y027297D01*
X017297Y027576D01*
X016903Y027576D01*
X016848Y027521D02*
X015508Y027521D01*
X015350Y027362D02*
X016689Y027362D01*
X016624Y027204D02*
X015191Y027204D01*
X015328Y027045D02*
X016624Y027045D01*
X016641Y026887D02*
X015486Y026887D01*
X015576Y026728D02*
X016799Y026728D01*
X016897Y026570D02*
X015576Y026570D01*
X015576Y026411D02*
X016738Y026411D01*
X016624Y026253D02*
X015425Y026253D01*
X014775Y026253D02*
X014453Y026253D01*
X014595Y026395D02*
X014305Y026105D01*
X014100Y026105D01*
X014100Y026600D01*
X014100Y026600D01*
X014595Y026600D01*
X014595Y026395D01*
X014595Y026411D02*
X014624Y026411D01*
X014624Y026570D02*
X014595Y026570D01*
X014595Y026728D02*
X014624Y026728D01*
X014100Y026600D02*
X014100Y026600D01*
X014100Y026600D01*
X014100Y026105D01*
X013895Y026105D01*
X013605Y026395D01*
X013605Y026600D01*
X014100Y026600D01*
X014100Y026570D02*
X014100Y026570D01*
X014100Y026411D02*
X014100Y026411D01*
X014100Y026253D02*
X014100Y026253D01*
X013747Y026253D02*
X011665Y026253D01*
X011824Y026411D02*
X013605Y026411D01*
X013605Y026570D02*
X011982Y026570D01*
X012141Y026728D02*
X013605Y026728D01*
X014776Y027521D02*
X012278Y027521D01*
X012436Y027679D02*
X014934Y027679D01*
X015093Y027838D02*
X012595Y027838D01*
X012753Y027996D02*
X015251Y027996D01*
X015410Y028155D02*
X012912Y028155D01*
X013070Y028313D02*
X015292Y028313D01*
X015179Y028472D02*
X013229Y028472D01*
X013387Y028630D02*
X015179Y028630D01*
X015194Y028789D02*
X013546Y028789D01*
X013704Y028947D02*
X015352Y028947D01*
X014124Y030057D02*
X014095Y030057D01*
X014095Y030215D02*
X014124Y030215D01*
X014201Y030374D02*
X014026Y030374D01*
X013868Y030532D02*
X014359Y030532D01*
X013600Y030532D02*
X013600Y030532D01*
X013600Y030374D02*
X013600Y030374D01*
X013600Y030215D02*
X013600Y030215D01*
X013600Y030057D02*
X013600Y030057D01*
X013600Y029898D02*
X013600Y029898D01*
X013600Y029740D02*
X013600Y029740D01*
X013742Y029581D02*
X012076Y029581D01*
X012076Y029423D02*
X013584Y029423D01*
X013425Y029264D02*
X011937Y029264D01*
X011774Y029021D02*
X011426Y029021D01*
X011179Y028774D01*
X011179Y028426D01*
X011426Y028179D01*
X011774Y028179D01*
X012021Y028426D01*
X012021Y028774D01*
X011774Y029021D01*
X011848Y028947D02*
X013108Y028947D01*
X012950Y028789D02*
X012006Y028789D01*
X012021Y028630D02*
X012791Y028630D01*
X012633Y028472D02*
X012021Y028472D01*
X011908Y028313D02*
X012474Y028313D01*
X012316Y028155D02*
X009595Y028155D01*
X009595Y028100D02*
X009595Y028305D01*
X009305Y028595D01*
X009100Y028595D01*
X009100Y028100D01*
X009100Y028100D01*
X009595Y028100D01*
X009100Y028100D01*
X009100Y028100D01*
X009100Y028100D01*
X008605Y028100D01*
X008605Y028305D01*
X008895Y028595D01*
X009100Y028595D01*
X009100Y028100D01*
X009100Y027605D01*
X009305Y027605D01*
X009595Y027895D01*
X009595Y028100D01*
X009595Y027996D02*
X012157Y027996D01*
X011999Y027838D02*
X009538Y027838D01*
X009379Y027679D02*
X011840Y027679D01*
X011682Y027521D02*
X009352Y027521D01*
X009297Y027576D02*
X008903Y027576D01*
X008624Y027297D01*
X008624Y026903D01*
X008903Y026624D01*
X009297Y026624D01*
X009576Y026903D01*
X009576Y027297D01*
X009297Y027576D01*
X009100Y027605D02*
X009100Y028100D01*
X009100Y028100D01*
X008605Y028100D01*
X008605Y027895D01*
X008895Y027605D01*
X009100Y027605D01*
X009100Y027679D02*
X009100Y027679D01*
X009100Y027838D02*
X009100Y027838D01*
X009100Y027996D02*
X009100Y027996D01*
X009100Y028155D02*
X009100Y028155D01*
X009100Y028313D02*
X009100Y028313D01*
X009100Y028472D02*
X009100Y028472D01*
X009428Y028472D02*
X011179Y028472D01*
X011179Y028630D02*
X000350Y028630D01*
X000350Y028472D02*
X004898Y028472D01*
X004862Y028457D02*
X004743Y028338D01*
X004679Y028184D01*
X004679Y028016D01*
X004743Y027862D01*
X004862Y027743D01*
X005016Y027679D01*
X005184Y027679D01*
X005338Y027743D01*
X005457Y027862D01*
X005521Y028016D01*
X005521Y028184D01*
X005457Y028338D01*
X005338Y028457D01*
X005184Y028521D01*
X005016Y028521D01*
X004862Y028457D01*
X004733Y028313D02*
X000350Y028313D01*
X000350Y028155D02*
X004679Y028155D01*
X004688Y027996D02*
X000350Y027996D01*
X000350Y027838D02*
X002299Y027838D01*
X002277Y027816D02*
X002219Y027676D01*
X002219Y027524D01*
X002277Y027384D01*
X002384Y027277D01*
X002524Y027219D01*
X002676Y027219D01*
X002816Y027277D01*
X002923Y027384D01*
X002981Y027524D01*
X002981Y027676D01*
X002923Y027816D01*
X002816Y027923D01*
X002676Y027981D01*
X002524Y027981D01*
X002384Y027923D01*
X002277Y027816D01*
X002221Y027679D02*
X000350Y027679D01*
X000350Y027521D02*
X002221Y027521D01*
X002300Y027362D02*
X000350Y027362D01*
X000350Y027204D02*
X004688Y027204D01*
X004679Y027045D02*
X000350Y027045D01*
X000350Y026887D02*
X002348Y026887D01*
X002384Y026923D02*
X002277Y026816D01*
X002219Y026676D01*
X002219Y026524D01*
X002277Y026384D01*
X002384Y026277D01*
X002524Y026219D01*
X002676Y026219D01*
X002816Y026277D01*
X002923Y026384D01*
X002981Y026524D01*
X002981Y026676D01*
X002923Y026816D01*
X002816Y026923D01*
X002676Y026981D01*
X002524Y026981D01*
X002384Y026923D01*
X002241Y026728D02*
X000350Y026728D01*
X000350Y026570D02*
X002219Y026570D01*
X002266Y026411D02*
X000350Y026411D01*
X000350Y026253D02*
X002444Y026253D01*
X002524Y025981D02*
X002384Y025923D01*
X002277Y025816D01*
X002219Y025676D01*
X002219Y025524D01*
X002277Y025384D01*
X002384Y025277D01*
X002524Y025219D01*
X002676Y025219D01*
X002816Y025277D01*
X002923Y025384D01*
X002981Y025524D01*
X002981Y025676D01*
X002923Y025816D01*
X002816Y025923D01*
X002676Y025981D01*
X002524Y025981D01*
X002415Y025936D02*
X000350Y025936D01*
X000350Y026094D02*
X004679Y026094D01*
X004679Y026016D02*
X004679Y026184D01*
X004743Y026338D01*
X004862Y026457D01*
X005016Y026521D01*
X005184Y026521D01*
X005338Y026457D01*
X005457Y026338D01*
X005521Y026184D01*
X005521Y026016D01*
X005457Y025862D01*
X005338Y025743D01*
X005184Y025679D01*
X005016Y025679D01*
X004862Y025743D01*
X004743Y025862D01*
X004679Y026016D01*
X004713Y025936D02*
X002785Y025936D01*
X002939Y025777D02*
X004828Y025777D01*
X004870Y025460D02*
X004413Y025460D01*
X004297Y025576D02*
X004576Y025297D01*
X004576Y024903D01*
X004297Y024624D01*
X003903Y024624D01*
X003624Y024903D01*
X003624Y025297D01*
X003903Y025576D01*
X004297Y025576D01*
X004571Y025302D02*
X004728Y025302D01*
X004679Y025143D02*
X004576Y025143D01*
X004576Y024985D02*
X004692Y024985D01*
X004779Y024826D02*
X004499Y024826D01*
X004340Y024668D02*
X005164Y024668D01*
X005322Y024509D02*
X004391Y024509D01*
X004305Y024595D02*
X004595Y024305D01*
X004595Y024100D01*
X004100Y024100D01*
X004100Y024100D01*
X004100Y024595D01*
X004305Y024595D01*
X004100Y024595D02*
X003895Y024595D01*
X003605Y024305D01*
X003605Y024100D01*
X004100Y024100D01*
X004100Y024100D01*
X004100Y024100D01*
X004100Y024595D01*
X004100Y024509D02*
X004100Y024509D01*
X004100Y024351D02*
X004100Y024351D01*
X004100Y024192D02*
X004100Y024192D01*
X004100Y024100D02*
X003605Y024100D01*
X003605Y023895D01*
X003895Y023605D01*
X004100Y023605D01*
X004305Y023605D01*
X004595Y023895D01*
X004595Y024100D01*
X004100Y024100D01*
X004100Y023605D01*
X004100Y024100D01*
X004100Y024100D01*
X004100Y024034D02*
X004100Y024034D01*
X004100Y023875D02*
X004100Y023875D01*
X004100Y023717D02*
X004100Y023717D01*
X004417Y023717D02*
X006115Y023717D01*
X005956Y023875D02*
X004575Y023875D01*
X004595Y024034D02*
X005798Y024034D01*
X005639Y024192D02*
X004595Y024192D01*
X004549Y024351D02*
X005481Y024351D01*
X005897Y024668D02*
X007766Y024668D01*
X007779Y024826D02*
X005738Y024826D01*
X005580Y024985D02*
X007692Y024985D01*
X007679Y025143D02*
X005521Y025143D01*
X005472Y025302D02*
X007728Y025302D01*
X007870Y025460D02*
X005330Y025460D01*
X005372Y025777D02*
X007828Y025777D01*
X007713Y025936D02*
X005487Y025936D01*
X005521Y026094D02*
X007679Y026094D01*
X007668Y026253D02*
X005492Y026253D01*
X005384Y026411D02*
X007509Y026411D01*
X007351Y026570D02*
X002981Y026570D01*
X002959Y026728D02*
X004899Y026728D01*
X004733Y026887D02*
X002852Y026887D01*
X002934Y026411D02*
X004816Y026411D01*
X004708Y026253D02*
X002756Y026253D01*
X002261Y025777D02*
X000350Y025777D01*
X000350Y025619D02*
X002219Y025619D01*
X002246Y025460D02*
X000350Y025460D01*
X000350Y025302D02*
X002360Y025302D01*
X002840Y025302D02*
X003629Y025302D01*
X003624Y025143D02*
X000350Y025143D01*
X000350Y024985D02*
X003624Y024985D01*
X003701Y024826D02*
X000350Y024826D01*
X000350Y024668D02*
X003860Y024668D01*
X003809Y024509D02*
X000350Y024509D01*
X000350Y024351D02*
X003651Y024351D01*
X003605Y024192D02*
X000350Y024192D01*
X000350Y024034D02*
X003605Y024034D01*
X003625Y023875D02*
X000350Y023875D01*
X000350Y023717D02*
X003783Y023717D01*
X002521Y022774D02*
X002274Y023021D01*
X001926Y023021D01*
X001679Y022774D01*
X001679Y022426D01*
X001926Y022179D01*
X002274Y022179D01*
X002521Y022426D01*
X002521Y022774D01*
X002521Y022766D02*
X005679Y022766D01*
X005679Y022607D02*
X002521Y022607D01*
X002521Y022449D02*
X005679Y022449D01*
X005815Y022290D02*
X002385Y022290D01*
X001815Y022290D02*
X000350Y022290D01*
X000350Y022132D02*
X005849Y022132D01*
X005849Y021973D02*
X000350Y021973D01*
X000350Y021815D02*
X005849Y021815D01*
X005849Y021656D02*
X000350Y021656D01*
X000350Y021498D02*
X005849Y021498D01*
X005849Y021339D02*
X000350Y021339D01*
X000350Y021181D02*
X005849Y021181D01*
X005849Y021022D02*
X000350Y021022D01*
X000350Y020864D02*
X005849Y020864D01*
X005849Y020705D02*
X000350Y020705D01*
X000350Y020547D02*
X005849Y020547D01*
X005849Y020388D02*
X000350Y020388D01*
X000350Y020230D02*
X005849Y020230D01*
X005849Y020071D02*
X002323Y020071D01*
X002303Y020091D02*
X001897Y020091D01*
X001610Y019804D01*
X001610Y019811D01*
X001311Y020110D01*
X001100Y020110D01*
X001100Y019600D01*
X001100Y019600D01*
X001100Y020110D01*
X000889Y020110D01*
X000590Y019811D01*
X000590Y019600D01*
X001100Y019600D01*
X001100Y019090D01*
X001311Y019090D01*
X001610Y019389D01*
X001610Y019396D01*
X001897Y019109D01*
X002303Y019109D01*
X002591Y019397D01*
X002591Y019803D01*
X002303Y020091D01*
X002481Y019913D02*
X003318Y019913D01*
X003426Y020021D02*
X003179Y019774D01*
X003179Y019426D01*
X003426Y019179D01*
X003774Y019179D01*
X004021Y019426D01*
X004021Y019774D01*
X003774Y020021D01*
X003426Y020021D01*
X003179Y019754D02*
X002591Y019754D01*
X002591Y019596D02*
X003179Y019596D01*
X003179Y019437D02*
X002591Y019437D01*
X002472Y019279D02*
X003326Y019279D01*
X003874Y019279D02*
X005849Y019279D01*
X005849Y019437D02*
X004021Y019437D01*
X004021Y019596D02*
X005849Y019596D01*
X005849Y019754D02*
X004021Y019754D01*
X003882Y019913D02*
X005849Y019913D01*
X006368Y019913D02*
X007318Y019913D01*
X007426Y020021D02*
X007179Y019774D01*
X007179Y019426D01*
X007426Y019179D01*
X007774Y019179D01*
X008021Y019426D01*
X008021Y019774D01*
X007774Y020021D01*
X007426Y020021D01*
X007179Y019754D02*
X006368Y019754D01*
X006368Y019596D02*
X007179Y019596D01*
X007179Y019437D02*
X006368Y019437D01*
X006368Y019279D02*
X007326Y019279D01*
X007874Y019279D02*
X018596Y019279D01*
X018754Y019437D02*
X008021Y019437D01*
X008021Y019596D02*
X018913Y019596D01*
X019071Y019754D02*
X008021Y019754D01*
X007882Y019913D02*
X008643Y019913D01*
X008641Y019913D02*
X008939Y019790D01*
X009261Y019790D01*
X009559Y019913D01*
X009787Y020141D01*
X009910Y020439D01*
X009910Y020761D01*
X009787Y021059D01*
X009559Y021287D01*
X009261Y021410D01*
X008939Y021410D01*
X008641Y021287D01*
X008413Y021059D01*
X008290Y020761D01*
X008290Y020439D01*
X008413Y020141D01*
X008641Y019913D01*
X008484Y020071D02*
X006368Y020071D01*
X006368Y020230D02*
X008377Y020230D01*
X008311Y020388D02*
X006368Y020388D01*
X006368Y020547D02*
X008290Y020547D01*
X008290Y020705D02*
X006368Y020705D01*
X006368Y020864D02*
X008333Y020864D01*
X008398Y021022D02*
X006368Y021022D01*
X006368Y021181D02*
X008535Y021181D01*
X008768Y021339D02*
X006368Y021339D01*
X006368Y021498D02*
X019809Y021498D01*
X019809Y021656D02*
X006368Y021656D01*
X006368Y021815D02*
X019809Y021815D01*
X019809Y021973D02*
X006368Y021973D01*
X006368Y022132D02*
X019809Y022132D01*
X019809Y022290D02*
X006385Y022290D01*
X006521Y022449D02*
X019809Y022449D01*
X019809Y022607D02*
X006521Y022607D01*
X006597Y022766D02*
X014913Y022766D01*
X014884Y022777D02*
X015024Y022719D01*
X015176Y022719D01*
X015316Y022777D01*
X015423Y022884D01*
X015481Y023024D01*
X015481Y023176D01*
X015423Y023316D01*
X015316Y023423D01*
X015176Y023481D01*
X015024Y023481D01*
X014884Y023423D01*
X014777Y023316D01*
X014719Y023176D01*
X014719Y023024D01*
X014777Y022884D01*
X014884Y022777D01*
X014761Y022924D02*
X006756Y022924D01*
X006914Y023083D02*
X014719Y023083D01*
X014746Y023241D02*
X009728Y023241D01*
X009676Y023219D02*
X009816Y023277D01*
X009923Y023384D01*
X009981Y023524D01*
X009981Y023676D01*
X009923Y023816D01*
X009816Y023923D01*
X009676Y023981D01*
X009524Y023981D01*
X009384Y023923D01*
X009277Y023816D01*
X009219Y023676D01*
X009219Y023524D01*
X009277Y023384D01*
X009384Y023277D01*
X009524Y023219D01*
X009676Y023219D01*
X009472Y023241D02*
X007073Y023241D01*
X006978Y023147D02*
X006978Y023147D01*
X007231Y023400D02*
X009271Y023400D01*
X009219Y023558D02*
X007390Y023558D01*
X007548Y023717D02*
X009236Y023717D01*
X009337Y023875D02*
X007707Y023875D01*
X007865Y024034D02*
X014719Y024034D01*
X014719Y024024D02*
X014777Y023884D01*
X014884Y023777D01*
X015024Y023719D01*
X015176Y023719D01*
X015316Y023777D01*
X015423Y023884D01*
X015481Y024024D01*
X015481Y024176D01*
X015423Y024316D01*
X015316Y024423D01*
X015176Y024481D01*
X015024Y024481D01*
X014884Y024423D01*
X014777Y024316D01*
X014719Y024176D01*
X014719Y024024D01*
X014787Y023875D02*
X009863Y023875D01*
X009964Y023717D02*
X019126Y023717D01*
X018967Y023875D02*
X015413Y023875D01*
X015481Y024034D02*
X018809Y024034D01*
X018650Y024192D02*
X015474Y024192D01*
X015388Y024351D02*
X018492Y024351D01*
X018333Y024509D02*
X009974Y024509D01*
X009889Y024351D02*
X014812Y024351D01*
X014726Y024192D02*
X008024Y024192D01*
X007608Y024509D02*
X006055Y024509D01*
X006214Y024351D02*
X007449Y024351D01*
X007291Y024192D02*
X006372Y024192D01*
X006531Y024034D02*
X007132Y024034D01*
X006974Y023875D02*
X006689Y023875D01*
X006273Y023558D02*
X000350Y023558D01*
X000350Y023400D02*
X006432Y023400D01*
X006340Y023241D02*
X000350Y023241D01*
X000350Y023083D02*
X006181Y023083D01*
X005829Y022924D02*
X002371Y022924D01*
X001829Y022924D02*
X000350Y022924D01*
X000350Y022766D02*
X001679Y022766D01*
X001679Y022607D02*
X000350Y022607D01*
X000350Y022449D02*
X001679Y022449D01*
X001877Y020071D02*
X001350Y020071D01*
X001509Y019913D02*
X001719Y019913D01*
X001100Y019913D02*
X001100Y019913D01*
X001100Y020071D02*
X001100Y020071D01*
X000850Y020071D02*
X000350Y020071D01*
X000350Y019913D02*
X000691Y019913D01*
X000590Y019754D02*
X000350Y019754D01*
X000350Y019596D02*
X000590Y019596D01*
X000590Y019600D02*
X000590Y019389D01*
X000889Y019090D01*
X001100Y019090D01*
X001100Y019600D01*
X001100Y019600D01*
X001100Y019600D01*
X000590Y019600D01*
X000590Y019437D02*
X000350Y019437D01*
X000350Y019279D02*
X000700Y019279D01*
X000859Y019120D02*
X000350Y019120D01*
X000350Y018962D02*
X005849Y018962D01*
X005849Y019120D02*
X002314Y019120D01*
X001886Y019120D02*
X001341Y019120D01*
X001500Y019279D02*
X001728Y019279D01*
X001100Y019279D02*
X001100Y019279D01*
X001100Y019437D02*
X001100Y019437D01*
X001100Y019596D02*
X001100Y019596D01*
X001100Y019754D02*
X001100Y019754D01*
X001100Y019120D02*
X001100Y019120D01*
X000350Y018803D02*
X005849Y018803D01*
X005849Y018645D02*
X000350Y018645D01*
X000350Y018486D02*
X005849Y018486D01*
X005849Y018328D02*
X000350Y018328D01*
X000350Y018169D02*
X005849Y018169D01*
X005849Y018011D02*
X000350Y018011D01*
X000350Y017852D02*
X005849Y017852D01*
X005849Y017694D02*
X000350Y017694D01*
X000350Y017535D02*
X000814Y017535D01*
X000889Y017610D02*
X000590Y017311D01*
X000590Y017100D01*
X001100Y017100D01*
X001100Y017100D01*
X001100Y017610D01*
X001311Y017610D01*
X001610Y017311D01*
X001610Y017304D01*
X001897Y017591D01*
X002303Y017591D01*
X002591Y017303D01*
X002591Y016897D01*
X002303Y016609D01*
X001897Y016609D01*
X001610Y016896D01*
X001610Y016889D01*
X001311Y016590D01*
X001100Y016590D01*
X001100Y017100D01*
X001100Y017610D01*
X000889Y017610D01*
X001100Y017535D02*
X001100Y017535D01*
X001100Y017377D02*
X001100Y017377D01*
X001100Y017218D02*
X001100Y017218D01*
X001100Y017100D02*
X001100Y017100D01*
X001100Y017100D01*
X001100Y016590D01*
X000889Y016590D01*
X000590Y016889D01*
X000590Y017100D01*
X001100Y017100D01*
X001100Y017060D02*
X001100Y017060D01*
X001100Y016901D02*
X001100Y016901D01*
X001100Y016743D02*
X001100Y016743D01*
X001464Y016743D02*
X001764Y016743D01*
X001683Y017377D02*
X001545Y017377D01*
X001386Y017535D02*
X001841Y017535D01*
X002359Y017535D02*
X005849Y017535D01*
X005849Y017377D02*
X003918Y017377D01*
X004021Y017274D02*
X003774Y017521D01*
X003426Y017521D01*
X003179Y017274D01*
X003179Y016926D01*
X003426Y016679D01*
X003774Y016679D01*
X004021Y016926D01*
X004021Y017274D01*
X004021Y017218D02*
X005849Y017218D01*
X005849Y017060D02*
X004021Y017060D01*
X003996Y016901D02*
X005849Y016901D01*
X005849Y016743D02*
X003837Y016743D01*
X003363Y016743D02*
X002436Y016743D01*
X002591Y016901D02*
X003204Y016901D01*
X003179Y017060D02*
X002591Y017060D01*
X002591Y017218D02*
X003179Y017218D01*
X003282Y017377D02*
X002517Y017377D01*
X000655Y017377D02*
X000350Y017377D01*
X000350Y017218D02*
X000590Y017218D01*
X000590Y017060D02*
X000350Y017060D01*
X000350Y016901D02*
X000590Y016901D01*
X000736Y016743D02*
X000350Y016743D01*
X000350Y016584D02*
X005849Y016584D01*
X005849Y016426D02*
X000350Y016426D01*
X000350Y016267D02*
X005849Y016267D01*
X005849Y016109D02*
X000350Y016109D01*
X000350Y015950D02*
X005849Y015950D01*
X005849Y015792D02*
X000350Y015792D01*
X000350Y015633D02*
X005849Y015633D01*
X005849Y015475D02*
X000350Y015475D01*
X000350Y015316D02*
X005888Y015316D01*
X006045Y015158D02*
X000350Y015158D01*
X000350Y014999D02*
X000778Y014999D01*
X000889Y015110D02*
X000590Y014811D01*
X000590Y014600D01*
X001100Y014600D01*
X001100Y014600D01*
X001100Y015110D01*
X001311Y015110D01*
X001610Y014811D01*
X001610Y014804D01*
X001897Y015091D01*
X002303Y015091D01*
X002591Y014803D01*
X002591Y014397D01*
X002303Y014109D01*
X001897Y014109D01*
X001610Y014396D01*
X001610Y014389D01*
X001311Y014090D01*
X001100Y014090D01*
X001100Y014600D01*
X001100Y015110D01*
X000889Y015110D01*
X001100Y014999D02*
X001100Y014999D01*
X001100Y014841D02*
X001100Y014841D01*
X001100Y014682D02*
X001100Y014682D01*
X001100Y014600D02*
X001100Y014600D01*
X001100Y014600D01*
X001100Y014090D01*
X000889Y014090D01*
X000590Y014389D01*
X000590Y014600D01*
X001100Y014600D01*
X001100Y014524D02*
X001100Y014524D01*
X001100Y014365D02*
X001100Y014365D01*
X001100Y014207D02*
X001100Y014207D01*
X001428Y014207D02*
X001800Y014207D01*
X001641Y014365D02*
X001586Y014365D01*
X001581Y014841D02*
X001647Y014841D01*
X001805Y014999D02*
X001422Y014999D01*
X000619Y014841D02*
X000350Y014841D01*
X000350Y014682D02*
X000590Y014682D01*
X000590Y014524D02*
X000350Y014524D01*
X000350Y014365D02*
X000614Y014365D01*
X000772Y014207D02*
X000350Y014207D01*
X000350Y014048D02*
X007154Y014048D01*
X006996Y014207D02*
X003801Y014207D01*
X003774Y014179D02*
X004021Y014426D01*
X004021Y014774D01*
X003774Y015021D01*
X003426Y015021D01*
X003179Y014774D01*
X003179Y014426D01*
X003426Y014179D01*
X003774Y014179D01*
X003960Y014365D02*
X006837Y014365D01*
X006679Y014524D02*
X004021Y014524D01*
X004021Y014682D02*
X006520Y014682D01*
X006362Y014841D02*
X003954Y014841D01*
X003796Y014999D02*
X006203Y014999D01*
X006619Y015316D02*
X012917Y015316D01*
X013075Y015475D02*
X006461Y015475D01*
X006368Y015633D02*
X013234Y015633D01*
X013392Y015792D02*
X006368Y015792D01*
X006368Y015950D02*
X013551Y015950D01*
X013624Y016109D02*
X006368Y016109D01*
X006368Y016267D02*
X013624Y016267D01*
X013753Y016426D02*
X006368Y016426D01*
X006368Y016584D02*
X014185Y016584D01*
X014343Y016743D02*
X007837Y016743D01*
X007774Y016679D02*
X008021Y016926D01*
X008021Y017274D01*
X007774Y017521D01*
X007426Y017521D01*
X007179Y017274D01*
X007179Y016926D01*
X007426Y016679D01*
X007774Y016679D01*
X007996Y016901D02*
X014806Y016901D01*
X014923Y017218D02*
X008021Y017218D01*
X008021Y017060D02*
X016377Y017060D01*
X016535Y017218D02*
X015277Y017218D01*
X015338Y017243D02*
X015457Y017362D01*
X015521Y017516D01*
X015521Y017684D01*
X015457Y017838D01*
X015338Y017957D01*
X015184Y018021D01*
X015016Y018021D01*
X014862Y017957D01*
X014743Y017838D01*
X014679Y017684D01*
X014679Y017516D01*
X014743Y017362D01*
X014862Y017243D01*
X015016Y017179D01*
X015184Y017179D01*
X015338Y017243D01*
X015463Y017377D02*
X016694Y017377D01*
X016852Y017535D02*
X015521Y017535D01*
X015517Y017694D02*
X017011Y017694D01*
X017169Y017852D02*
X015443Y017852D01*
X015208Y018011D02*
X017328Y018011D01*
X017486Y018169D02*
X006368Y018169D01*
X006368Y018011D02*
X014992Y018011D01*
X014757Y017852D02*
X006368Y017852D01*
X006368Y017694D02*
X014683Y017694D01*
X014679Y017535D02*
X006368Y017535D01*
X006368Y017377D02*
X007282Y017377D01*
X007179Y017218D02*
X006368Y017218D01*
X006368Y017060D02*
X007179Y017060D01*
X007204Y016901D02*
X006368Y016901D01*
X006368Y016743D02*
X007363Y016743D01*
X007918Y017377D02*
X014737Y017377D01*
X015394Y016901D02*
X016218Y016901D01*
X016634Y016584D02*
X017679Y016584D01*
X017704Y016743D02*
X016793Y016743D01*
X016951Y016901D02*
X017806Y016901D01*
X017923Y017218D02*
X017268Y017218D01*
X017110Y017060D02*
X018614Y017060D01*
X018772Y017218D02*
X018277Y017218D01*
X018463Y017377D02*
X018931Y017377D01*
X019089Y017535D02*
X018521Y017535D01*
X018517Y017694D02*
X019248Y017694D01*
X019406Y017852D02*
X018443Y017852D01*
X018208Y018011D02*
X019565Y018011D01*
X019723Y018169D02*
X018219Y018169D01*
X018378Y018328D02*
X019882Y018328D01*
X020040Y018486D02*
X018536Y018486D01*
X018695Y018645D02*
X020199Y018645D01*
X020357Y018803D02*
X018853Y018803D01*
X019012Y018962D02*
X020516Y018962D01*
X020674Y019120D02*
X019170Y019120D01*
X019329Y019279D02*
X020833Y019279D01*
X020991Y019437D02*
X019487Y019437D01*
X019646Y019596D02*
X021150Y019596D01*
X021308Y019754D02*
X019804Y019754D01*
X019963Y019913D02*
X021467Y019913D01*
X021625Y020071D02*
X021210Y020071D01*
X020990Y020071D02*
X020121Y020071D01*
X020280Y020230D02*
X020720Y020230D01*
X020613Y020388D02*
X020327Y020388D01*
X020327Y020547D02*
X020569Y020547D01*
X020569Y020705D02*
X020327Y020705D01*
X020327Y020864D02*
X020635Y020864D01*
X020771Y021022D02*
X020327Y021022D01*
X019809Y021181D02*
X009665Y021181D01*
X009802Y021022D02*
X010171Y021022D01*
X010035Y020864D02*
X009867Y020864D01*
X009910Y020705D02*
X009969Y020705D01*
X009969Y020547D02*
X009910Y020547D01*
X009889Y020388D02*
X010013Y020388D01*
X010120Y020230D02*
X009823Y020230D01*
X009716Y020071D02*
X010390Y020071D01*
X010610Y020071D02*
X011390Y020071D01*
X011610Y020071D02*
X012390Y020071D01*
X012610Y020071D02*
X013390Y020071D01*
X013610Y020071D02*
X014390Y020071D01*
X014610Y020071D02*
X015390Y020071D01*
X015610Y020071D02*
X016390Y020071D01*
X016610Y020071D02*
X017390Y020071D01*
X017610Y020071D02*
X018390Y020071D01*
X018610Y020071D02*
X019388Y020071D01*
X019230Y019913D02*
X009557Y019913D01*
X010880Y020230D02*
X011120Y020230D01*
X011013Y020388D02*
X010987Y020388D01*
X010965Y020864D02*
X011035Y020864D01*
X011171Y021022D02*
X010829Y021022D01*
X011829Y021022D02*
X012171Y021022D01*
X012035Y020864D02*
X011965Y020864D01*
X011987Y020388D02*
X012013Y020388D01*
X012120Y020230D02*
X011880Y020230D01*
X012880Y020230D02*
X013120Y020230D01*
X013013Y020388D02*
X012987Y020388D01*
X012965Y020864D02*
X013035Y020864D01*
X013171Y021022D02*
X012829Y021022D01*
X013829Y021022D02*
X014171Y021022D01*
X014035Y020864D02*
X013965Y020864D01*
X013987Y020388D02*
X014013Y020388D01*
X014120Y020230D02*
X013880Y020230D01*
X014880Y020230D02*
X015120Y020230D01*
X015013Y020388D02*
X014987Y020388D01*
X014965Y020864D02*
X015035Y020864D01*
X015171Y021022D02*
X014829Y021022D01*
X015829Y021022D02*
X016171Y021022D01*
X016035Y020864D02*
X015965Y020864D01*
X015987Y020388D02*
X016013Y020388D01*
X016120Y020230D02*
X015880Y020230D01*
X016880Y020230D02*
X017120Y020230D01*
X017013Y020388D02*
X016987Y020388D01*
X016965Y020864D02*
X017035Y020864D01*
X017171Y021022D02*
X016829Y021022D01*
X017829Y021022D02*
X018171Y021022D01*
X018035Y020864D02*
X017965Y020864D01*
X017987Y020388D02*
X018013Y020388D01*
X018120Y020230D02*
X017880Y020230D01*
X018880Y020230D02*
X019120Y020230D01*
X019013Y020388D02*
X018987Y020388D01*
X018965Y020864D02*
X019035Y020864D01*
X019171Y021022D02*
X018829Y021022D01*
X019809Y021339D02*
X009432Y021339D01*
X009929Y023400D02*
X014861Y023400D01*
X015339Y023400D02*
X016305Y023400D01*
X016426Y023521D02*
X016179Y023274D01*
X016179Y022926D01*
X016426Y022679D01*
X016774Y022679D01*
X017021Y022926D01*
X017021Y023274D01*
X016774Y023521D01*
X016426Y023521D01*
X016179Y023241D02*
X015454Y023241D01*
X015481Y023083D02*
X016179Y023083D01*
X016181Y022924D02*
X015439Y022924D01*
X015287Y022766D02*
X016339Y022766D01*
X016861Y022766D02*
X019809Y022766D01*
X019809Y022924D02*
X017019Y022924D01*
X017021Y023083D02*
X019760Y023083D01*
X019601Y023241D02*
X017021Y023241D01*
X016895Y023400D02*
X019443Y023400D01*
X019284Y023558D02*
X009981Y023558D01*
X010080Y024668D02*
X016860Y024668D01*
X016701Y024826D02*
X015364Y024826D01*
X015316Y024777D02*
X015423Y024884D01*
X015481Y025024D01*
X015481Y025176D01*
X015423Y025316D01*
X015316Y025423D01*
X015176Y025481D01*
X015024Y025481D01*
X014884Y025423D01*
X014777Y025316D01*
X014719Y025176D01*
X014719Y025024D01*
X014777Y024884D01*
X014884Y024777D01*
X015024Y024719D01*
X015176Y024719D01*
X015316Y024777D01*
X015464Y024985D02*
X016624Y024985D01*
X016624Y025143D02*
X015481Y025143D01*
X015429Y025302D02*
X016629Y025302D01*
X016787Y025460D02*
X015226Y025460D01*
X014974Y025460D02*
X010873Y025460D01*
X011031Y025619D02*
X017224Y025619D01*
X016750Y025777D02*
X011190Y025777D01*
X011348Y025936D02*
X016624Y025936D01*
X016624Y026094D02*
X011507Y026094D01*
X010889Y026728D02*
X009401Y026728D01*
X009559Y026887D02*
X011048Y026887D01*
X011206Y027045D02*
X009576Y027045D01*
X009576Y027204D02*
X011365Y027204D01*
X011523Y027362D02*
X009511Y027362D01*
X008848Y027521D02*
X008184Y027521D01*
X008016Y027521D01*
X007862Y027457D01*
X007743Y027338D01*
X007679Y027184D01*
X007679Y027016D01*
X007743Y026862D01*
X007862Y026743D01*
X008016Y026679D01*
X008184Y026679D01*
X008338Y026743D01*
X008457Y026862D01*
X008521Y027016D01*
X008521Y027184D01*
X008457Y027338D01*
X008338Y027457D01*
X008184Y027521D01*
X008184Y027679D02*
X008338Y027743D01*
X008457Y027862D01*
X008521Y028016D01*
X008521Y028184D01*
X008457Y028338D01*
X008338Y028457D01*
X008184Y028521D01*
X008016Y028521D01*
X007862Y028457D01*
X007743Y028338D01*
X007679Y028184D01*
X007679Y028016D01*
X007743Y027862D01*
X007862Y027743D01*
X008016Y027679D01*
X008184Y027679D01*
X008016Y027521D02*
X005184Y027521D01*
X005016Y027521D02*
X002979Y027521D01*
X002979Y027679D02*
X008821Y027679D01*
X008662Y027838D02*
X008433Y027838D01*
X008512Y027996D02*
X008605Y027996D01*
X008605Y028155D02*
X008521Y028155D01*
X008467Y028313D02*
X008613Y028313D01*
X008772Y028472D02*
X008302Y028472D01*
X007898Y028472D02*
X005302Y028472D01*
X005467Y028313D02*
X007733Y028313D01*
X007679Y028155D02*
X005521Y028155D01*
X005512Y027996D02*
X007688Y027996D01*
X007767Y027838D02*
X005433Y027838D01*
X005433Y027362D02*
X007767Y027362D01*
X007688Y027204D02*
X007313Y027204D01*
X007471Y027045D02*
X007679Y027045D01*
X007630Y026887D02*
X007733Y026887D01*
X007788Y026728D02*
X007899Y026728D01*
X007947Y026570D02*
X010731Y026570D01*
X010572Y026411D02*
X008384Y026411D01*
X008301Y026728D02*
X008799Y026728D01*
X008641Y026887D02*
X008467Y026887D01*
X008521Y027045D02*
X008624Y027045D01*
X008624Y027204D02*
X008512Y027204D01*
X008433Y027362D02*
X008689Y027362D01*
X009587Y028313D02*
X011292Y028313D01*
X011194Y028789D02*
X000350Y028789D01*
X000350Y028947D02*
X011352Y028947D01*
X011263Y029264D02*
X000350Y029264D01*
X000350Y029106D02*
X013267Y029106D01*
X013260Y029740D02*
X012076Y029740D01*
X011975Y029898D02*
X013105Y029898D01*
X011384Y030057D02*
X007238Y030057D01*
X007271Y030024D02*
X007024Y030271D01*
X006676Y030271D01*
X006429Y030024D01*
X006429Y029676D01*
X006676Y029429D01*
X007024Y029429D01*
X007271Y029676D01*
X007271Y030024D01*
X007271Y029898D02*
X011225Y029898D01*
X011124Y029740D02*
X007271Y029740D01*
X007176Y029581D02*
X011124Y029581D01*
X011124Y029423D02*
X000350Y029423D01*
X000350Y029581D02*
X002524Y029581D01*
X002429Y029676D02*
X002676Y029429D01*
X003024Y029429D01*
X003271Y029676D01*
X003271Y030024D01*
X003024Y030271D01*
X002676Y030271D01*
X002429Y030024D01*
X002429Y029676D01*
X002429Y029740D02*
X000350Y029740D01*
X000350Y029898D02*
X002429Y029898D01*
X002462Y030057D02*
X000350Y030057D01*
X000350Y030215D02*
X002620Y030215D01*
X003080Y030215D02*
X006620Y030215D01*
X006462Y030057D02*
X003238Y030057D01*
X003271Y029898D02*
X006429Y029898D01*
X006429Y029740D02*
X003271Y029740D01*
X003176Y029581D02*
X006524Y029581D01*
X007080Y030215D02*
X011285Y030215D01*
X011126Y030374D02*
X000350Y030374D01*
X000350Y030532D02*
X011105Y030532D01*
X011105Y030691D02*
X000350Y030691D01*
X000350Y030849D02*
X011149Y030849D01*
X007192Y026728D02*
X005301Y026728D01*
X004767Y027362D02*
X002900Y027362D01*
X002901Y027838D02*
X004767Y027838D01*
X003787Y025460D02*
X002954Y025460D01*
X002981Y025619D02*
X009219Y025619D01*
X009246Y025460D02*
X008330Y025460D01*
X008472Y025302D02*
X009360Y025302D01*
X009664Y024985D02*
X008508Y024985D01*
X008521Y025143D02*
X009823Y025143D01*
X009840Y025302D02*
X009981Y025302D01*
X009954Y025460D02*
X010140Y025460D01*
X009981Y025619D02*
X010298Y025619D01*
X010457Y025777D02*
X009939Y025777D01*
X009261Y025777D02*
X008372Y025777D01*
X010239Y024826D02*
X014836Y024826D01*
X014736Y024985D02*
X010397Y024985D01*
X010556Y025143D02*
X014719Y025143D01*
X014771Y025302D02*
X010714Y025302D01*
X017340Y024668D02*
X018175Y024668D01*
X018016Y024826D02*
X017499Y024826D01*
X017576Y024985D02*
X017858Y024985D01*
X017699Y025143D02*
X017576Y025143D01*
X017957Y025619D02*
X022376Y025619D01*
X022210Y025460D02*
X020413Y025460D01*
X020297Y025576D02*
X019903Y025576D01*
X019624Y025297D01*
X019624Y024903D01*
X019903Y024624D01*
X020297Y024624D01*
X020576Y024903D01*
X020576Y025297D01*
X020297Y025576D01*
X020297Y025624D02*
X020576Y025903D01*
X020576Y026297D01*
X020297Y026576D01*
X019903Y026576D01*
X019624Y026297D01*
X019624Y025903D01*
X019903Y025624D01*
X020297Y025624D01*
X020450Y025777D02*
X022172Y025777D01*
X022094Y025936D02*
X020576Y025936D01*
X020576Y026094D02*
X022069Y026094D01*
X022089Y026253D02*
X020576Y026253D01*
X020462Y026411D02*
X022161Y026411D01*
X022347Y026570D02*
X020303Y026570D01*
X020297Y026624D02*
X020576Y026903D01*
X020576Y027297D01*
X020297Y027576D01*
X019903Y027576D01*
X019624Y027297D01*
X019624Y026903D01*
X019903Y026624D01*
X020297Y026624D01*
X020401Y026728D02*
X022194Y026728D01*
X022091Y026887D02*
X020559Y026887D01*
X020576Y027045D02*
X022052Y027045D01*
X022060Y027204D02*
X020576Y027204D01*
X020511Y027362D02*
X022116Y027362D01*
X022243Y027521D02*
X020352Y027521D01*
X020352Y027679D02*
X022244Y027679D01*
X022116Y027838D02*
X020510Y027838D01*
X020576Y027996D02*
X022060Y027996D01*
X022052Y028155D02*
X020576Y028155D01*
X020560Y028313D02*
X022091Y028313D01*
X022194Y028472D02*
X020401Y028472D01*
X019799Y028472D02*
X017814Y028472D01*
X017656Y028630D02*
X022311Y028630D01*
X022146Y028789D02*
X017497Y028789D01*
X017510Y027838D02*
X019690Y027838D01*
X019848Y027679D02*
X017352Y027679D01*
X017352Y027521D02*
X019848Y027521D01*
X019689Y027362D02*
X017511Y027362D01*
X017576Y027204D02*
X019624Y027204D01*
X019624Y027045D02*
X017576Y027045D01*
X017559Y026887D02*
X019641Y026887D01*
X019799Y026728D02*
X017401Y026728D01*
X017303Y026570D02*
X019897Y026570D01*
X019738Y026411D02*
X017462Y026411D01*
X017576Y026253D02*
X019624Y026253D01*
X019624Y026094D02*
X017576Y026094D01*
X017640Y025936D02*
X019624Y025936D01*
X019750Y025777D02*
X017798Y025777D01*
X018115Y025460D02*
X019787Y025460D01*
X019629Y025302D02*
X018274Y025302D01*
X018432Y025143D02*
X019624Y025143D01*
X019624Y024985D02*
X018591Y024985D01*
X018749Y024826D02*
X019701Y024826D01*
X019860Y024668D02*
X018908Y024668D01*
X019066Y024509D02*
X022259Y024509D01*
X022282Y024668D02*
X020340Y024668D01*
X020499Y024826D02*
X022139Y024826D01*
X022073Y024985D02*
X020576Y024985D01*
X020576Y025143D02*
X022069Y025143D01*
X022109Y025302D02*
X020571Y025302D01*
X019383Y024192D02*
X022069Y024192D01*
X022069Y024034D02*
X019542Y024034D01*
X019700Y023875D02*
X022119Y023875D01*
X022233Y023717D02*
X019859Y023717D01*
X020017Y023558D02*
X024442Y023558D01*
X024355Y023645D02*
X024645Y023355D01*
X024850Y023355D01*
X025055Y023355D01*
X025345Y023645D01*
X025345Y023850D01*
X025345Y024055D01*
X025055Y024345D01*
X024850Y024345D01*
X024850Y023850D01*
X025345Y023850D01*
X024850Y023850D01*
X024850Y023850D01*
X024850Y023850D01*
X024850Y023355D01*
X024850Y023850D01*
X024850Y023850D01*
X024850Y023850D01*
X024355Y023850D01*
X024355Y024055D01*
X024645Y024345D01*
X024850Y024345D01*
X024850Y023850D01*
X024355Y023850D01*
X024355Y023645D01*
X024355Y023717D02*
X022967Y023717D01*
X023081Y023875D02*
X024355Y023875D01*
X024355Y024034D02*
X023131Y024034D01*
X023131Y024192D02*
X024492Y024192D01*
X024850Y024192D02*
X024850Y024192D01*
X024850Y024034D02*
X024850Y024034D01*
X024850Y023875D02*
X024850Y023875D01*
X024850Y023717D02*
X024850Y023717D01*
X024850Y023558D02*
X024850Y023558D01*
X024850Y023400D02*
X024850Y023400D01*
X025100Y023400D02*
X025628Y023400D01*
X025653Y023374D02*
X026047Y023374D01*
X026326Y023653D01*
X026326Y024047D01*
X026047Y024326D01*
X025653Y024326D01*
X025374Y024047D01*
X025374Y023653D01*
X025653Y023374D01*
X025469Y023558D02*
X025258Y023558D01*
X025345Y023717D02*
X025374Y023717D01*
X025374Y023875D02*
X025345Y023875D01*
X025345Y024034D02*
X025374Y024034D01*
X025519Y024192D02*
X025208Y024192D01*
X026181Y024192D02*
X028513Y024192D01*
X028334Y024034D02*
X026326Y024034D01*
X026326Y023875D02*
X028154Y023875D01*
X027974Y023717D02*
X026326Y023717D01*
X026231Y023558D02*
X027795Y023558D01*
X027615Y023400D02*
X026072Y023400D01*
X027076Y022924D02*
X021019Y022924D01*
X021021Y023083D02*
X027255Y023083D01*
X027435Y023241D02*
X021021Y023241D01*
X020895Y023400D02*
X024600Y023400D01*
X024810Y025595D02*
X024850Y025595D01*
X024850Y026100D01*
X024345Y026100D01*
X024345Y026060D01*
X024357Y025982D01*
X024382Y025906D01*
X024418Y025835D01*
X024465Y025771D01*
X024521Y025715D01*
X024585Y025668D01*
X024656Y025632D01*
X024732Y025607D01*
X024810Y025595D01*
X024850Y025619D02*
X024850Y025619D01*
X025002Y025619D02*
X025454Y025619D01*
X025364Y025777D02*
X025240Y025777D01*
X025328Y025936D02*
X025364Y025936D01*
X025355Y026094D02*
X025364Y026094D01*
X025364Y026253D02*
X025331Y026253D01*
X025364Y026411D02*
X025248Y026411D01*
X024850Y026411D02*
X024850Y026411D01*
X024850Y026253D02*
X024850Y026253D01*
X024850Y026094D02*
X024850Y026094D01*
X024850Y025936D02*
X024850Y025936D01*
X024850Y025777D02*
X024850Y025777D01*
X024698Y025619D02*
X022824Y025619D01*
X023028Y025777D02*
X024460Y025777D01*
X024372Y025936D02*
X023106Y025936D01*
X023131Y026094D02*
X024345Y026094D01*
X024369Y026253D02*
X023111Y026253D01*
X023039Y026411D02*
X024452Y026411D01*
X022620Y027204D02*
X022580Y027204D01*
X022580Y027362D02*
X022620Y027362D01*
X022620Y027521D02*
X022580Y027521D01*
X022580Y027679D02*
X022620Y027679D01*
X022620Y027838D02*
X022580Y027838D01*
X022580Y027996D02*
X022620Y027996D01*
X022620Y028155D02*
X022580Y028155D01*
X022580Y028313D02*
X022620Y028313D01*
X022620Y028472D02*
X022580Y028472D01*
X022580Y028630D02*
X022620Y028630D01*
X022620Y028789D02*
X022580Y028789D01*
X022580Y028947D02*
X022620Y028947D01*
X022620Y029264D02*
X022580Y029264D01*
X022580Y029423D02*
X022620Y029423D01*
X022620Y029581D02*
X022580Y029581D01*
X023054Y028789D02*
X030223Y028789D01*
X030292Y028313D02*
X029560Y028313D01*
X030516Y028021D02*
X030684Y028021D01*
X030838Y027957D01*
X030957Y027838D01*
X030743Y027996D02*
X032895Y027996D01*
X033174Y028313D02*
X033292Y028313D01*
X033243Y028362D02*
X033362Y028243D01*
X033516Y028179D01*
X033684Y028179D01*
X033838Y028243D01*
X033957Y028362D01*
X034021Y028516D01*
X034021Y028684D01*
X033957Y028838D01*
X033838Y028957D01*
X033684Y029021D01*
X033516Y029021D01*
X033362Y028957D01*
X033243Y028838D01*
X033179Y028684D01*
X033179Y028516D01*
X033243Y028362D01*
X033198Y028472D02*
X033016Y028472D01*
X032857Y028630D02*
X033179Y028630D01*
X033223Y028789D02*
X032699Y028789D01*
X032540Y028947D02*
X033352Y028947D01*
X033848Y028947D02*
X039290Y028947D01*
X039290Y028789D02*
X033977Y028789D01*
X034021Y028630D02*
X039290Y028630D01*
X039290Y028472D02*
X038198Y028472D01*
X038176Y028481D02*
X038024Y028481D01*
X037884Y028423D01*
X037777Y028316D01*
X037719Y028176D01*
X037719Y028024D01*
X037777Y027884D01*
X037884Y027777D01*
X038024Y027719D01*
X038176Y027719D01*
X038316Y027777D01*
X038423Y027884D01*
X038481Y028024D01*
X038481Y028176D01*
X038423Y028316D01*
X038316Y028423D01*
X038176Y028481D01*
X038002Y028472D02*
X034002Y028472D01*
X033908Y028313D02*
X037776Y028313D01*
X037719Y028155D02*
X033333Y028155D01*
X033743Y027996D02*
X034823Y027996D01*
X035377Y027996D02*
X037731Y027996D01*
X037824Y027838D02*
X035535Y027838D01*
X035576Y027679D02*
X039290Y027679D01*
X039290Y027521D02*
X035576Y027521D01*
X035535Y027362D02*
X037824Y027362D01*
X037777Y027316D02*
X037719Y027176D01*
X037719Y027024D01*
X037777Y026884D01*
X037884Y026777D01*
X038024Y026719D01*
X038176Y026719D01*
X038316Y026777D01*
X038423Y026884D01*
X038481Y027024D01*
X038481Y027176D01*
X038423Y027316D01*
X038316Y027423D01*
X038176Y027481D01*
X038024Y027481D01*
X037884Y027423D01*
X037777Y027316D01*
X037731Y027204D02*
X035376Y027204D01*
X035305Y027095D02*
X035100Y027095D01*
X035100Y026600D01*
X035100Y026600D01*
X035595Y026600D01*
X035595Y026805D01*
X035305Y027095D01*
X035355Y027045D02*
X037719Y027045D01*
X037776Y026887D02*
X035513Y026887D01*
X035595Y026728D02*
X038003Y026728D01*
X038197Y026728D02*
X039290Y026728D01*
X039290Y026570D02*
X035595Y026570D01*
X035595Y026600D02*
X035100Y026600D01*
X035100Y026600D01*
X035100Y026600D01*
X034605Y026600D01*
X034605Y026805D01*
X034895Y027095D01*
X035100Y027095D01*
X035100Y026600D01*
X035100Y026105D01*
X035305Y026105D01*
X035595Y026395D01*
X035595Y026600D01*
X035595Y026411D02*
X037846Y026411D01*
X037845Y026411D02*
X037789Y026355D01*
X037746Y026289D01*
X037715Y026217D01*
X037700Y026139D01*
X037700Y026100D01*
X038100Y026100D01*
X038500Y026100D01*
X038500Y026139D01*
X038485Y026217D01*
X038454Y026289D01*
X038411Y026355D01*
X038355Y026411D01*
X038289Y026454D01*
X038217Y026485D01*
X038139Y026500D01*
X038100Y026500D01*
X038100Y026100D01*
X038100Y026100D01*
X038100Y026100D01*
X038500Y026100D01*
X038500Y026061D01*
X038485Y025983D01*
X038454Y025911D01*
X038411Y025845D01*
X038355Y025789D01*
X038289Y025746D01*
X038217Y025715D01*
X038139Y025700D01*
X038100Y025700D01*
X038100Y026100D01*
X038100Y026100D01*
X038100Y026100D01*
X038100Y026500D01*
X038061Y026500D01*
X037983Y026485D01*
X037911Y026454D01*
X037845Y026411D01*
X037730Y026253D02*
X035453Y026253D01*
X035100Y026253D02*
X035100Y026253D01*
X035100Y026105D02*
X035100Y026600D01*
X035100Y026600D01*
X034605Y026600D01*
X034605Y026395D01*
X034895Y026105D01*
X035100Y026105D01*
X035100Y026411D02*
X035100Y026411D01*
X035100Y026570D02*
X035100Y026570D01*
X035100Y026728D02*
X035100Y026728D01*
X035100Y026887D02*
X035100Y026887D01*
X035100Y027045D02*
X035100Y027045D01*
X034845Y027045D02*
X029860Y027045D01*
X029860Y026887D02*
X030264Y026887D01*
X030224Y026831D01*
X030192Y026769D01*
X030171Y026703D01*
X030160Y026635D01*
X030160Y026600D01*
X030600Y026600D01*
X031040Y026600D01*
X031040Y026635D01*
X031029Y026703D01*
X031008Y026769D01*
X030976Y026831D01*
X030936Y026887D01*
X030887Y026936D01*
X030831Y026976D01*
X030769Y027008D01*
X030703Y027029D01*
X030635Y027040D01*
X030600Y027040D01*
X030600Y026600D01*
X030600Y026600D01*
X030600Y026600D01*
X031040Y026600D01*
X031040Y026565D01*
X031029Y026497D01*
X031008Y026431D01*
X030976Y026369D01*
X030936Y026313D01*
X030887Y026264D01*
X030831Y026224D01*
X030769Y026192D01*
X030703Y026171D01*
X030635Y026160D01*
X030600Y026160D01*
X030600Y026600D01*
X030600Y026600D01*
X030600Y026600D01*
X030600Y027040D01*
X030565Y027040D01*
X030497Y027029D01*
X030431Y027008D01*
X030369Y026976D01*
X030313Y026936D01*
X030264Y026887D01*
X030179Y026728D02*
X029805Y026728D01*
X029647Y026570D02*
X030160Y026570D01*
X030160Y026565D02*
X030171Y026497D01*
X030192Y026431D01*
X030224Y026369D01*
X030264Y026313D01*
X030313Y026264D01*
X030369Y026224D01*
X030431Y026192D01*
X030497Y026171D01*
X030565Y026160D01*
X030600Y026160D01*
X030600Y026600D01*
X030160Y026600D01*
X030160Y026565D01*
X030202Y026411D02*
X029488Y026411D01*
X029330Y026253D02*
X030330Y026253D01*
X030600Y026253D02*
X030600Y026253D01*
X030600Y026411D02*
X030600Y026411D01*
X030600Y026570D02*
X030600Y026570D01*
X030600Y026728D02*
X030600Y026728D01*
X030600Y026887D02*
X030600Y026887D01*
X030684Y027179D02*
X030838Y027243D01*
X030957Y027362D01*
X030742Y027204D02*
X033458Y027204D01*
X033516Y027021D02*
X033362Y026957D01*
X033243Y026838D01*
X033179Y026684D01*
X033179Y026516D01*
X033243Y026362D01*
X033362Y026243D01*
X033516Y026179D01*
X033684Y026179D01*
X033838Y026243D01*
X033957Y026362D01*
X034021Y026516D01*
X034021Y026684D01*
X033957Y026838D01*
X033838Y026957D01*
X033684Y027021D01*
X033516Y027021D01*
X033292Y026887D02*
X030936Y026887D01*
X031021Y026728D02*
X033198Y026728D01*
X033179Y026570D02*
X031040Y026570D01*
X030998Y026411D02*
X033223Y026411D01*
X033352Y026253D02*
X030870Y026253D01*
X030684Y027179D02*
X030516Y027179D01*
X029171Y026094D02*
X037700Y026094D01*
X037700Y026100D02*
X037700Y026061D01*
X037715Y025983D01*
X037746Y025911D01*
X037789Y025845D01*
X037845Y025789D01*
X037911Y025746D01*
X037983Y025715D01*
X038061Y025700D01*
X038100Y025700D01*
X038100Y026100D01*
X037700Y026100D01*
X037735Y025936D02*
X029137Y025936D01*
X029137Y025777D02*
X037863Y025777D01*
X038100Y025777D02*
X038100Y025777D01*
X038100Y025936D02*
X038100Y025936D01*
X038100Y026094D02*
X038100Y026094D01*
X038100Y026253D02*
X038100Y026253D01*
X038100Y026411D02*
X038100Y026411D01*
X038354Y026411D02*
X039290Y026411D01*
X039290Y026253D02*
X038470Y026253D01*
X038500Y026094D02*
X039290Y026094D01*
X039290Y025936D02*
X038465Y025936D01*
X038337Y025777D02*
X039290Y025777D01*
X039290Y025619D02*
X029137Y025619D01*
X029137Y025460D02*
X039290Y025460D01*
X039290Y025302D02*
X029137Y025302D01*
X029137Y025143D02*
X029209Y025143D01*
X029991Y025143D02*
X039290Y025143D01*
X039290Y024985D02*
X030150Y024985D01*
X033848Y026253D02*
X034747Y026253D01*
X034605Y026411D02*
X033977Y026411D01*
X034021Y026570D02*
X034605Y026570D01*
X034605Y026728D02*
X034002Y026728D01*
X033908Y026887D02*
X034687Y026887D01*
X034824Y027204D02*
X033742Y027204D01*
X030218Y029423D02*
X027624Y029423D01*
X027758Y029581D02*
X030179Y029581D01*
X030202Y029740D02*
X027811Y029740D01*
X027811Y029898D02*
X030303Y029898D01*
X027811Y030057D02*
X039290Y030057D01*
X039290Y030215D02*
X027811Y030215D01*
X027811Y030374D02*
X039290Y030374D01*
X039290Y030532D02*
X027794Y030532D01*
X027711Y030691D02*
X039290Y030691D01*
X039290Y030849D02*
X027470Y030849D01*
X025989Y030691D02*
X025711Y030691D01*
X025794Y030532D02*
X025906Y030532D01*
X025889Y030374D02*
X025811Y030374D01*
X025811Y030215D02*
X025889Y030215D01*
X025889Y030057D02*
X025811Y030057D01*
X025852Y029898D02*
X025889Y029898D01*
X022129Y024351D02*
X019225Y024351D01*
X020176Y023400D02*
X020305Y023400D01*
X021429Y021022D02*
X021771Y021022D01*
X021635Y020864D02*
X021565Y020864D01*
X021587Y020388D02*
X021613Y020388D01*
X021720Y020230D02*
X021480Y020230D01*
X022429Y021022D02*
X022771Y021022D01*
X022635Y020864D02*
X022565Y020864D01*
X023429Y021022D02*
X023771Y021022D01*
X023635Y020864D02*
X023565Y020864D01*
X024429Y021022D02*
X024771Y021022D01*
X024635Y020864D02*
X024565Y020864D01*
X024587Y020388D02*
X024613Y020388D01*
X024720Y020230D02*
X024480Y020230D01*
X025480Y020230D02*
X025720Y020230D01*
X025613Y020388D02*
X025587Y020388D01*
X025565Y020864D02*
X025635Y020864D01*
X025771Y021022D02*
X025429Y021022D01*
X026429Y021022D02*
X026771Y021022D01*
X026635Y020864D02*
X026565Y020864D01*
X026587Y020388D02*
X026613Y020388D01*
X026720Y020230D02*
X026480Y020230D01*
X027480Y020230D02*
X027720Y020230D01*
X027613Y020388D02*
X027587Y020388D01*
X027565Y020864D02*
X027635Y020864D01*
X027771Y021022D02*
X027429Y021022D01*
X029137Y021022D02*
X029660Y021022D01*
X030010Y019754D02*
X031910Y019754D01*
X031910Y019596D02*
X030169Y019596D01*
X030327Y019437D02*
X031910Y019437D01*
X033800Y020705D02*
X034799Y020705D01*
X034799Y020864D02*
X033959Y020864D01*
X034021Y021022D02*
X034812Y021022D01*
X034889Y021181D02*
X034021Y021181D01*
X033956Y021339D02*
X034989Y021339D01*
X035034Y018486D02*
X034887Y018486D01*
X035034Y015792D02*
X032542Y015792D01*
X033147Y014048D02*
X031553Y014048D01*
X031762Y013890D02*
X032938Y013890D01*
X032864Y013731D02*
X031836Y013731D01*
X031851Y013573D02*
X032849Y013573D01*
X032886Y013414D02*
X031814Y013414D01*
X031707Y013256D02*
X032993Y013256D01*
X029170Y010561D02*
X029130Y010561D01*
X029130Y010403D02*
X029170Y010403D01*
X029170Y010244D02*
X029130Y010244D01*
X029130Y010086D02*
X029170Y010086D01*
X028887Y010086D02*
X028386Y010086D01*
X028545Y010244D02*
X028728Y010244D01*
X027646Y011354D02*
X018600Y011354D01*
X018600Y011512D02*
X018833Y011512D01*
X018862Y011483D02*
X019016Y011419D01*
X019184Y011419D01*
X019338Y011483D01*
X019457Y011602D01*
X019521Y011756D01*
X019521Y012444D01*
X019457Y012598D01*
X019338Y012717D01*
X019184Y012781D01*
X019016Y012781D01*
X018862Y012717D01*
X018743Y012598D01*
X018679Y012444D01*
X018679Y011756D01*
X018743Y011602D01*
X018862Y011483D01*
X018715Y011671D02*
X018600Y011671D01*
X018600Y011829D02*
X018679Y011829D01*
X018679Y011988D02*
X018600Y011988D01*
X018600Y012146D02*
X018679Y012146D01*
X018679Y012305D02*
X018600Y012305D01*
X018600Y012463D02*
X018687Y012463D01*
X018767Y012622D02*
X018600Y012622D01*
X018600Y012780D02*
X019015Y012780D01*
X019185Y012780D02*
X020015Y012780D01*
X020016Y012781D02*
X019862Y012717D01*
X019743Y012598D01*
X019679Y012444D01*
X019679Y011756D01*
X019743Y011602D01*
X019862Y011483D01*
X020016Y011419D01*
X020184Y011419D01*
X020338Y011483D01*
X020457Y011602D01*
X020521Y011756D01*
X020521Y012444D01*
X020457Y012598D01*
X020338Y012717D01*
X020184Y012781D01*
X020016Y012781D01*
X020185Y012780D02*
X021015Y012780D01*
X020767Y012622D02*
X020433Y012622D01*
X020513Y012463D02*
X020687Y012463D01*
X020679Y012305D02*
X020521Y012305D01*
X020521Y012146D02*
X020679Y012146D01*
X020679Y011988D02*
X020521Y011988D01*
X020521Y011829D02*
X020679Y011829D01*
X020715Y011671D02*
X020485Y011671D01*
X020367Y011512D02*
X020833Y011512D01*
X019833Y011512D02*
X019367Y011512D01*
X019485Y011671D02*
X019715Y011671D01*
X019679Y011829D02*
X019521Y011829D01*
X019521Y011988D02*
X019679Y011988D01*
X019679Y012146D02*
X019521Y012146D01*
X019521Y012305D02*
X019679Y012305D01*
X019687Y012463D02*
X019513Y012463D01*
X019433Y012622D02*
X019767Y012622D01*
X017463Y014207D02*
X015297Y014207D01*
X015269Y014192D02*
X015331Y014224D01*
X015387Y014264D01*
X015436Y014313D01*
X015476Y014369D01*
X015508Y014431D01*
X015529Y014497D01*
X015540Y014565D01*
X015540Y014600D01*
X015540Y014635D01*
X015529Y014703D01*
X015508Y014769D01*
X015476Y014831D01*
X015436Y014887D01*
X015387Y014936D01*
X015331Y014976D01*
X015269Y015008D01*
X015203Y015029D01*
X015135Y015040D01*
X015100Y015040D01*
X015100Y014600D01*
X015540Y014600D01*
X015100Y014600D01*
X015100Y014600D01*
X015100Y014600D01*
X015100Y014160D01*
X015135Y014160D01*
X015203Y014171D01*
X015269Y014192D01*
X015100Y014207D02*
X015100Y014207D01*
X015100Y014160D02*
X015100Y014600D01*
X015100Y014600D01*
X015100Y014600D01*
X014660Y014600D01*
X014660Y014635D01*
X014671Y014703D01*
X014692Y014769D01*
X014724Y014831D01*
X014764Y014887D01*
X014813Y014936D01*
X014869Y014976D01*
X014931Y015008D01*
X014997Y015029D01*
X015065Y015040D01*
X015100Y015040D01*
X015100Y014600D01*
X014660Y014600D01*
X014660Y014565D01*
X014671Y014497D01*
X014692Y014431D01*
X014724Y014369D01*
X014764Y014313D01*
X014813Y014264D01*
X014869Y014224D01*
X014931Y014192D01*
X014997Y014171D01*
X015065Y014160D01*
X015100Y014160D01*
X014903Y014207D02*
X007801Y014207D01*
X007847Y014048D02*
X008350Y014048D01*
X008350Y013890D02*
X007859Y013890D01*
X007859Y013731D02*
X008350Y013731D01*
X008350Y013573D02*
X007859Y013573D01*
X007859Y013414D02*
X008350Y013414D01*
X008350Y013256D02*
X007859Y013256D01*
X007859Y013097D02*
X008350Y013097D01*
X008350Y012939D02*
X007859Y012939D01*
X007859Y012780D02*
X008350Y012780D01*
X008350Y012622D02*
X007859Y012622D01*
X007859Y012463D02*
X008350Y012463D01*
X008350Y012305D02*
X007990Y012305D01*
X008021Y012146D02*
X008350Y012146D01*
X008350Y011988D02*
X008021Y011988D01*
X007924Y011829D02*
X008350Y011829D01*
X008350Y011671D02*
X008006Y011671D01*
X008164Y011512D02*
X008350Y011512D01*
X008350Y011354D02*
X008323Y011354D01*
X008065Y010878D02*
X006212Y010878D01*
X006206Y010881D02*
X005994Y010881D01*
X005799Y010800D01*
X005650Y010651D01*
X005569Y010456D01*
X005569Y010244D01*
X004758Y010244D01*
X004771Y010274D02*
X004690Y010079D01*
X004541Y009930D01*
X004346Y009849D01*
X004134Y009849D01*
X003939Y009930D01*
X003790Y010079D01*
X003709Y010274D01*
X003709Y010486D01*
X003790Y010681D01*
X003939Y010830D01*
X004134Y010911D01*
X004346Y010911D01*
X004541Y010830D01*
X004690Y010681D01*
X004771Y010486D01*
X004771Y010274D01*
X004771Y010403D02*
X005569Y010403D01*
X005569Y010244D02*
X005650Y010049D01*
X005799Y009900D01*
X005994Y009819D01*
X006206Y009819D01*
X006401Y009900D01*
X006550Y010049D01*
X006631Y010244D01*
X008350Y010244D01*
X008350Y010086D02*
X006565Y010086D01*
X006631Y010244D02*
X006631Y010456D01*
X006550Y010651D01*
X006401Y010800D01*
X006206Y010881D01*
X005988Y010878D02*
X004424Y010878D01*
X004651Y010720D02*
X005719Y010720D01*
X005613Y010561D02*
X004739Y010561D01*
X004056Y010878D02*
X002644Y010878D01*
X002566Y010911D02*
X002354Y010911D01*
X002159Y010830D01*
X002010Y010681D01*
X001929Y010486D01*
X001929Y010274D01*
X002010Y010079D01*
X002159Y009930D01*
X002354Y009849D01*
X002566Y009849D01*
X002761Y009930D01*
X002910Y010079D01*
X002991Y010274D01*
X002991Y010486D01*
X002910Y010681D01*
X002761Y010830D01*
X002566Y010911D01*
X002276Y010878D02*
X000350Y010878D01*
X000350Y010720D02*
X002049Y010720D01*
X001961Y010561D02*
X000350Y010561D01*
X000350Y010403D02*
X001929Y010403D01*
X001942Y010244D02*
X000350Y010244D01*
X000350Y010086D02*
X002008Y010086D01*
X002167Y009927D02*
X000350Y009927D01*
X000350Y009769D02*
X008350Y009769D01*
X008350Y009927D02*
X006428Y009927D01*
X006631Y010403D02*
X008350Y010403D01*
X008350Y010561D02*
X006587Y010561D01*
X006481Y010720D02*
X008224Y010720D01*
X007907Y011037D02*
X000350Y011037D01*
X000350Y011195D02*
X007748Y011195D01*
X007590Y011354D02*
X000350Y011354D01*
X000350Y011512D02*
X007431Y011512D01*
X007385Y011671D02*
X002392Y011671D01*
X002311Y011590D02*
X002610Y011889D01*
X002610Y012100D01*
X002610Y012311D01*
X002311Y012610D01*
X002100Y012610D01*
X002100Y012100D01*
X002610Y012100D01*
X002100Y012100D01*
X002100Y012100D01*
X002100Y012100D01*
X002100Y011590D01*
X002311Y011590D01*
X002100Y011590D02*
X002100Y012100D01*
X002100Y012100D01*
X002100Y012610D01*
X001889Y012610D01*
X001590Y012311D01*
X001590Y012304D01*
X001303Y012591D01*
X000897Y012591D01*
X000609Y012303D01*
X000609Y011897D01*
X000897Y011609D01*
X001303Y011609D01*
X001590Y011896D01*
X001590Y011889D01*
X001889Y011590D01*
X002100Y011590D01*
X002100Y011671D02*
X002100Y011671D01*
X002100Y011829D02*
X002100Y011829D01*
X002100Y011988D02*
X002100Y011988D01*
X002100Y012146D02*
X002100Y012146D01*
X002100Y012305D02*
X002100Y012305D01*
X002100Y012463D02*
X002100Y012463D01*
X002458Y012463D02*
X003368Y012463D01*
X003426Y012521D02*
X003179Y012274D01*
X003179Y011926D01*
X003426Y011679D01*
X003774Y011679D01*
X004021Y011926D01*
X004021Y012274D01*
X003774Y012521D01*
X003426Y012521D01*
X003210Y012305D02*
X002610Y012305D01*
X002610Y012146D02*
X003179Y012146D01*
X003179Y011988D02*
X002610Y011988D01*
X002550Y011829D02*
X003276Y011829D01*
X003924Y011829D02*
X007276Y011829D01*
X007179Y011988D02*
X004021Y011988D01*
X004021Y012146D02*
X007179Y012146D01*
X007210Y012305D02*
X003990Y012305D01*
X003832Y012463D02*
X007340Y012463D01*
X007340Y012622D02*
X000350Y012622D01*
X000350Y012780D02*
X007340Y012780D01*
X007340Y012939D02*
X000350Y012939D01*
X000350Y013097D02*
X007340Y013097D01*
X007340Y013256D02*
X000350Y013256D01*
X000350Y013414D02*
X007340Y013414D01*
X007340Y013573D02*
X000350Y013573D01*
X000350Y013731D02*
X007340Y013731D01*
X007313Y013890D02*
X000350Y013890D01*
X000350Y012463D02*
X000769Y012463D01*
X000611Y012305D02*
X000350Y012305D01*
X000350Y012146D02*
X000609Y012146D01*
X000609Y011988D02*
X000350Y011988D01*
X000350Y011829D02*
X000677Y011829D01*
X000836Y011671D02*
X000350Y011671D01*
X001364Y011671D02*
X001808Y011671D01*
X001650Y011829D02*
X001523Y011829D01*
X001589Y012305D02*
X001590Y012305D01*
X001742Y012463D02*
X001431Y012463D01*
X002400Y014207D02*
X003399Y014207D01*
X003240Y014365D02*
X002559Y014365D01*
X002591Y014524D02*
X003179Y014524D01*
X003179Y014682D02*
X002591Y014682D01*
X002553Y014841D02*
X003246Y014841D01*
X003404Y014999D02*
X002395Y014999D01*
X006368Y018328D02*
X017645Y018328D01*
X017803Y018486D02*
X006368Y018486D01*
X006368Y018645D02*
X017962Y018645D01*
X018120Y018803D02*
X006368Y018803D01*
X006368Y018962D02*
X018279Y018962D01*
X018437Y019120D02*
X006368Y019120D01*
X006778Y015158D02*
X012758Y015158D01*
X012600Y014999D02*
X007796Y014999D01*
X007404Y014999D02*
X006936Y014999D01*
X007095Y014841D02*
X007246Y014841D01*
X003829Y010720D02*
X002871Y010720D01*
X002959Y010561D02*
X003741Y010561D01*
X003709Y010403D02*
X002991Y010403D01*
X002978Y010244D02*
X003722Y010244D01*
X003788Y010086D02*
X002912Y010086D01*
X002753Y009927D02*
X003947Y009927D01*
X004533Y009927D02*
X005772Y009927D01*
X005635Y010086D02*
X004692Y010086D01*
X005799Y008800D02*
X005650Y008651D01*
X005569Y008456D01*
X005569Y008244D01*
X005650Y008049D01*
X005799Y007900D01*
X005994Y007819D01*
X006206Y007819D01*
X006401Y007900D01*
X006550Y008049D01*
X006631Y008244D01*
X006631Y008456D01*
X006550Y008651D01*
X006401Y008800D01*
X006206Y008881D01*
X005994Y008881D01*
X005799Y008800D01*
X005842Y008818D02*
X000350Y008818D01*
X000350Y008976D02*
X008350Y008976D01*
X008350Y008818D02*
X006358Y008818D01*
X006542Y008659D02*
X008350Y008659D01*
X008350Y008501D02*
X006612Y008501D01*
X006631Y008342D02*
X008350Y008342D01*
X008350Y008184D02*
X006605Y008184D01*
X006526Y008025D02*
X011551Y008025D01*
X011709Y007867D02*
X006320Y007867D01*
X005880Y007867D02*
X004771Y007867D01*
X004768Y007708D02*
X011868Y007708D01*
X011849Y007550D02*
X011323Y007550D01*
X011482Y007391D02*
X011691Y007391D01*
X011605Y007233D02*
X011576Y007233D01*
X011605Y007100D02*
X011605Y006895D01*
X011895Y006605D01*
X012100Y006605D01*
X012100Y007100D01*
X012100Y007100D01*
X012100Y007100D01*
X011605Y007100D01*
X011605Y007074D02*
X011576Y007074D01*
X011576Y006916D02*
X011605Y006916D01*
X011743Y006757D02*
X011430Y006757D01*
X011226Y006599D02*
X012374Y006599D01*
X012503Y006440D02*
X011384Y006440D01*
X011543Y006282D02*
X012662Y006282D01*
X012820Y006123D02*
X011701Y006123D01*
X011860Y005965D02*
X012979Y005965D01*
X013100Y005806D02*
X012018Y005806D01*
X012177Y005648D02*
X013100Y005648D01*
X013100Y005489D02*
X012335Y005489D01*
X012494Y005331D02*
X013100Y005331D01*
X013100Y005172D02*
X012652Y005172D01*
X012811Y005014D02*
X013100Y005014D01*
X013100Y004855D02*
X012969Y004855D01*
X012553Y004538D02*
X010655Y004538D01*
X010742Y004697D02*
X012395Y004697D01*
X012236Y004855D02*
X010878Y004855D01*
X010933Y005014D02*
X012078Y005014D01*
X011919Y005172D02*
X010935Y005172D01*
X010885Y005331D02*
X011761Y005331D01*
X011285Y005806D02*
X010830Y005806D01*
X010905Y005965D02*
X011127Y005965D01*
X010968Y006123D02*
X010921Y006123D01*
X010626Y005573D02*
X010697Y005536D01*
X010762Y005489D01*
X009545Y004538D02*
X005123Y004538D01*
X005210Y004697D02*
X009458Y004697D01*
X009322Y004855D02*
X005252Y004855D01*
X005280Y005014D02*
X009267Y005014D01*
X009265Y005172D02*
X005280Y005172D01*
X005256Y005331D02*
X009315Y005331D01*
X009370Y005806D02*
X005021Y005806D01*
X004863Y005965D02*
X009295Y005965D01*
X009279Y006123D02*
X004555Y006123D01*
X004462Y006440D02*
X000350Y006440D01*
X000350Y006282D02*
X009314Y006282D01*
X010624Y006916D02*
X004719Y006916D01*
X004561Y007074D02*
X010624Y007074D01*
X010624Y007233D02*
X004402Y007233D01*
X004562Y007391D02*
X010718Y007391D01*
X010877Y007550D02*
X004702Y007550D01*
X004730Y008025D02*
X005674Y008025D01*
X005595Y008184D02*
X004627Y008184D01*
X004367Y008342D02*
X005569Y008342D01*
X005588Y008501D02*
X000350Y008501D01*
X000350Y008659D02*
X005658Y008659D01*
X004113Y008342D02*
X002587Y008342D01*
X002333Y008342D02*
X000350Y008342D01*
X000350Y008184D02*
X002073Y008184D01*
X001970Y008025D02*
X000350Y008025D01*
X000350Y007867D02*
X001929Y007867D01*
X001932Y007708D02*
X000350Y007708D01*
X000350Y007550D02*
X001998Y007550D01*
X002138Y007391D02*
X000350Y007391D01*
X000350Y007233D02*
X003669Y007233D01*
X003511Y007391D02*
X002782Y007391D01*
X002847Y008184D02*
X003853Y008184D01*
X003750Y008025D02*
X003574Y008025D01*
X003828Y007074D02*
X000350Y007074D01*
X000350Y006916D02*
X003986Y006916D01*
X004145Y006757D02*
X000350Y006757D01*
X000350Y006599D02*
X004303Y006599D01*
X003845Y006123D02*
X000350Y006123D01*
X000350Y005965D02*
X003537Y005965D01*
X003379Y005806D02*
X000350Y005806D01*
X000350Y005648D02*
X003269Y005648D01*
X003186Y005489D02*
X000350Y005489D01*
X000350Y005331D02*
X003144Y005331D01*
X003120Y005172D02*
X000350Y005172D01*
X000350Y005014D02*
X003120Y005014D01*
X003148Y004855D02*
X000350Y004855D01*
X000350Y004697D02*
X003190Y004697D01*
X003277Y004538D02*
X000350Y004538D01*
X000350Y004380D02*
X003393Y004380D01*
X003562Y004221D02*
X000350Y004221D01*
X000350Y004063D02*
X003899Y004063D01*
X004501Y004063D02*
X009279Y004063D01*
X009289Y004221D02*
X004838Y004221D01*
X005007Y004380D02*
X009356Y004380D01*
X009320Y003904D02*
X000350Y003904D01*
X000350Y003746D02*
X009431Y003746D01*
X010624Y002797D02*
X010624Y002403D01*
X010903Y002124D01*
X011297Y002124D01*
X011576Y002403D01*
X011576Y002797D01*
X011297Y003076D01*
X010903Y003076D01*
X010624Y002797D01*
X010624Y002795D02*
X000350Y002795D01*
X000350Y002953D02*
X010780Y002953D01*
X010624Y002636D02*
X000350Y002636D01*
X000350Y002478D02*
X010624Y002478D01*
X010708Y002319D02*
X008981Y002319D01*
X009059Y002287D02*
X008761Y002410D01*
X008439Y002410D01*
X008141Y002287D01*
X007913Y002059D01*
X007790Y001761D01*
X007790Y001439D01*
X007913Y001141D01*
X008141Y000913D01*
X008439Y000790D01*
X008761Y000790D01*
X009059Y000913D01*
X009287Y001141D01*
X009410Y001439D01*
X009410Y001761D01*
X009287Y002059D01*
X009059Y002287D01*
X009185Y002161D02*
X010867Y002161D01*
X011333Y002161D02*
X011839Y002161D01*
X011895Y002105D02*
X011605Y002395D01*
X011605Y002600D01*
X012100Y002600D01*
X012595Y002600D01*
X012595Y002805D01*
X012305Y003095D01*
X012100Y003095D01*
X012100Y002600D01*
X012100Y002600D01*
X012100Y002600D01*
X012595Y002600D01*
X012595Y002395D01*
X012305Y002105D01*
X012100Y002105D01*
X012100Y002600D01*
X012100Y002600D01*
X012100Y002600D01*
X012100Y003095D01*
X011895Y003095D01*
X011605Y002805D01*
X011605Y002600D01*
X012100Y002600D01*
X012100Y002105D01*
X011895Y002105D01*
X012100Y002161D02*
X012100Y002161D01*
X012100Y002319D02*
X012100Y002319D01*
X012100Y002478D02*
X012100Y002478D01*
X012100Y002636D02*
X012100Y002636D01*
X012100Y002795D02*
X012100Y002795D01*
X012100Y002953D02*
X012100Y002953D01*
X012447Y002953D02*
X013100Y002953D01*
X013100Y002795D02*
X012595Y002795D01*
X012595Y002636D02*
X013100Y002636D01*
X013100Y002478D02*
X012595Y002478D01*
X012519Y002319D02*
X013100Y002319D01*
X013100Y002161D02*
X012361Y002161D01*
X011681Y002319D02*
X011492Y002319D01*
X011576Y002478D02*
X011605Y002478D01*
X011605Y002636D02*
X011576Y002636D01*
X011576Y002795D02*
X011605Y002795D01*
X011753Y002953D02*
X011420Y002953D01*
X010769Y003746D02*
X013100Y003746D01*
X013100Y003904D02*
X010880Y003904D01*
X010921Y004063D02*
X013029Y004063D01*
X012870Y004221D02*
X010911Y004221D01*
X010844Y004380D02*
X012712Y004380D01*
X013100Y003587D02*
X000350Y003587D01*
X000350Y003429D02*
X013100Y003429D01*
X013100Y003270D02*
X000350Y003270D01*
X000350Y003112D02*
X013100Y003112D01*
X013100Y002002D02*
X009310Y002002D01*
X009376Y001844D02*
X013100Y001844D01*
X013100Y001685D02*
X009410Y001685D01*
X009410Y001527D02*
X013100Y001527D01*
X013100Y001368D02*
X009381Y001368D01*
X009315Y001210D02*
X013100Y001210D01*
X013100Y001051D02*
X009196Y001051D01*
X009008Y000893D02*
X013100Y000893D01*
X013100Y000734D02*
X000350Y000734D01*
X000350Y000576D02*
X013100Y000576D01*
X013100Y000417D02*
X000350Y000417D01*
X000350Y000893D02*
X008192Y000893D01*
X008004Y001051D02*
X000350Y001051D01*
X000350Y001210D02*
X007885Y001210D01*
X007819Y001368D02*
X000350Y001368D01*
X000350Y001527D02*
X007790Y001527D01*
X007790Y001685D02*
X000350Y001685D01*
X000350Y001844D02*
X007824Y001844D01*
X007890Y002002D02*
X000350Y002002D01*
X000350Y002161D02*
X008015Y002161D01*
X008219Y002319D02*
X000350Y002319D01*
X001350Y003350D02*
X001600Y003350D01*
X000350Y009135D02*
X008350Y009135D01*
X008350Y009293D02*
X000350Y009293D01*
X000350Y009452D02*
X008350Y009452D01*
X008350Y009610D02*
X000350Y009610D01*
X012100Y007074D02*
X012100Y007074D01*
X012100Y006916D02*
X012100Y006916D01*
X012100Y006757D02*
X012100Y006757D01*
X012674Y014365D02*
X014727Y014365D01*
X014667Y014524D02*
X012857Y014524D01*
X013016Y014682D02*
X013818Y014682D01*
X013895Y014605D02*
X013605Y014895D01*
X013605Y015100D01*
X014100Y015100D01*
X014595Y015100D01*
X014595Y014895D01*
X014305Y014605D01*
X014100Y014605D01*
X014100Y015100D01*
X014100Y015100D01*
X014100Y015100D01*
X014100Y014605D01*
X013895Y014605D01*
X014100Y014682D02*
X014100Y014682D01*
X014100Y014841D02*
X014100Y014841D01*
X014100Y014999D02*
X014100Y014999D01*
X014100Y015158D02*
X014100Y015158D01*
X014100Y015316D02*
X014100Y015316D01*
X014100Y015475D02*
X014100Y015475D01*
X014306Y015633D02*
X014679Y015633D01*
X014679Y015684D02*
X014679Y015516D01*
X014743Y015362D01*
X014862Y015243D01*
X015016Y015179D01*
X015184Y015179D01*
X015338Y015243D01*
X015457Y015362D01*
X015521Y015516D01*
X015521Y015684D01*
X015457Y015838D01*
X015338Y015957D01*
X015184Y016021D01*
X015016Y016021D01*
X014862Y015957D01*
X014743Y015838D01*
X014679Y015684D01*
X014724Y015792D02*
X014464Y015792D01*
X014576Y015950D02*
X014855Y015950D01*
X014838Y016267D02*
X014601Y016267D01*
X014576Y016109D02*
X017753Y016109D01*
X017838Y016267D02*
X015362Y016267D01*
X015345Y015950D02*
X017595Y015950D01*
X017463Y015792D02*
X015476Y015792D01*
X015521Y015633D02*
X017463Y015633D01*
X017463Y015475D02*
X015503Y015475D01*
X015411Y015316D02*
X017463Y015316D01*
X017463Y015158D02*
X014595Y015158D01*
X014584Y015316D02*
X014789Y015316D01*
X014697Y015475D02*
X014426Y015475D01*
X014595Y014999D02*
X014914Y014999D01*
X015100Y014999D02*
X015100Y014999D01*
X015100Y014841D02*
X015100Y014841D01*
X015100Y014682D02*
X015100Y014682D01*
X015100Y014524D02*
X015100Y014524D01*
X015100Y014365D02*
X015100Y014365D01*
X015473Y014365D02*
X017463Y014365D01*
X017463Y014524D02*
X015533Y014524D01*
X015532Y014682D02*
X017463Y014682D01*
X017463Y014841D02*
X015469Y014841D01*
X015286Y014999D02*
X017463Y014999D01*
X017717Y016426D02*
X016476Y016426D01*
X017427Y017377D02*
X017737Y017377D01*
X017679Y017535D02*
X017585Y017535D01*
X018394Y016901D02*
X018455Y016901D01*
X019313Y017060D02*
X020623Y017060D01*
X020782Y017218D02*
X019368Y017218D01*
X019527Y017377D02*
X020940Y017377D01*
X021099Y017535D02*
X019685Y017535D01*
X019472Y016901D02*
X020465Y016901D01*
X022433Y012622D02*
X022767Y012622D01*
X022687Y012463D02*
X022513Y012463D01*
X022521Y012305D02*
X022679Y012305D01*
X022679Y012146D02*
X022521Y012146D01*
X022521Y011988D02*
X022679Y011988D01*
X022679Y011829D02*
X022521Y011829D01*
X022485Y011671D02*
X022715Y011671D01*
X022833Y011512D02*
X022367Y011512D01*
X023367Y011512D02*
X023833Y011512D01*
X023715Y011671D02*
X023485Y011671D01*
X023521Y011829D02*
X023679Y011829D01*
X023679Y011988D02*
X023521Y011988D01*
X023521Y012146D02*
X023679Y012146D01*
X023679Y012305D02*
X023521Y012305D01*
X023513Y012463D02*
X023687Y012463D01*
X023767Y012622D02*
X023433Y012622D01*
X024367Y011512D02*
X027619Y011512D01*
X027915Y006123D02*
X025850Y006123D01*
X025850Y005965D02*
X027775Y005965D01*
X027701Y005806D02*
X025850Y005806D01*
X025850Y005648D02*
X027670Y005648D01*
X027679Y005489D02*
X025850Y005489D01*
X025850Y005331D02*
X027726Y005331D01*
X027821Y005172D02*
X025850Y005172D01*
X025850Y005014D02*
X028006Y005014D01*
X028330Y005014D02*
X028370Y005014D01*
X028370Y005172D02*
X028330Y005172D01*
X028330Y005331D02*
X028370Y005331D01*
X028370Y005489D02*
X028330Y005489D01*
X028330Y005648D02*
X028370Y005648D01*
X028370Y005806D02*
X028330Y005806D01*
X028330Y005965D02*
X028370Y005965D01*
X028370Y006123D02*
X028330Y006123D01*
X014668Y014682D02*
X014382Y014682D01*
X014541Y014841D02*
X014731Y014841D01*
X013659Y014841D02*
X013174Y014841D01*
X013333Y014999D02*
X013605Y014999D01*
X013605Y015158D02*
X013491Y015158D01*
X000350Y031325D02*
X039290Y031325D01*
X039290Y028313D02*
X038424Y028313D01*
X038481Y028155D02*
X039290Y028155D01*
X039290Y027996D02*
X038469Y027996D01*
X038376Y027838D02*
X039290Y027838D01*
X039290Y027362D02*
X038376Y027362D01*
X038469Y027204D02*
X039290Y027204D01*
X039290Y027045D02*
X038481Y027045D01*
X038424Y026887D02*
X039290Y026887D01*
D29*
X021600Y018350D03*
X019600Y018850D03*
D30*
X020600Y010350D02*
X017600Y010350D01*
X017600Y008350D01*
X015350Y008350D01*
X015350Y004350D01*
X024100Y004350D01*
X024100Y007600D01*
X021350Y007600D01*
X020600Y008350D01*
X020600Y010350D01*
X020600Y010210D02*
X017600Y010210D01*
X017600Y010042D02*
X020600Y010042D01*
X020600Y009873D02*
X017600Y009873D01*
X017600Y009705D02*
X017817Y009705D01*
X017810Y009699D02*
X017761Y009650D01*
X017719Y009593D01*
X017688Y009531D01*
X017666Y009464D01*
X017655Y009395D01*
X017655Y009100D01*
X018100Y009100D01*
X018545Y009100D01*
X018545Y009395D01*
X018534Y009464D01*
X018512Y009531D01*
X018481Y009593D01*
X018439Y009650D01*
X018390Y009699D01*
X018333Y009741D01*
X018271Y009772D01*
X018204Y009794D01*
X018135Y009805D01*
X018100Y009805D01*
X018100Y009100D01*
X018100Y009100D01*
X018100Y009100D01*
X018545Y009100D01*
X018545Y008805D01*
X018534Y008736D01*
X018512Y008669D01*
X018481Y008607D01*
X018439Y008550D01*
X018390Y008501D01*
X018333Y008459D01*
X018271Y008428D01*
X018204Y008406D01*
X018135Y008395D01*
X018100Y008395D01*
X018100Y009100D01*
X018100Y009100D01*
X018100Y009100D01*
X018100Y009805D01*
X018065Y009805D01*
X017996Y009794D01*
X017929Y009772D01*
X017867Y009741D01*
X017810Y009699D01*
X017690Y009536D02*
X017600Y009536D01*
X017600Y009368D02*
X017655Y009368D01*
X017655Y009199D02*
X017600Y009199D01*
X017655Y009100D02*
X017655Y008805D01*
X017666Y008736D01*
X017688Y008669D01*
X017719Y008607D01*
X017761Y008550D01*
X017810Y008501D01*
X017867Y008459D01*
X017929Y008428D01*
X017996Y008406D01*
X018065Y008395D01*
X018100Y008395D01*
X018100Y009100D01*
X017655Y009100D01*
X017655Y009031D02*
X017600Y009031D01*
X017600Y008862D02*
X017655Y008862D01*
X017680Y008694D02*
X017600Y008694D01*
X017600Y008525D02*
X017786Y008525D01*
X017600Y008357D02*
X020600Y008357D01*
X020600Y008525D02*
X020387Y008525D01*
X020341Y008479D02*
X020461Y008599D01*
X020526Y008755D01*
X020526Y009445D01*
X020461Y009601D01*
X020341Y009721D01*
X020185Y009786D01*
X020015Y009786D01*
X019859Y009721D01*
X019739Y009601D01*
X019674Y009445D01*
X019674Y008755D01*
X019739Y008599D01*
X019859Y008479D01*
X020015Y008414D01*
X020185Y008414D01*
X020341Y008479D01*
X020500Y008694D02*
X020600Y008694D01*
X020600Y008862D02*
X020526Y008862D01*
X020526Y009031D02*
X020600Y009031D01*
X020600Y009199D02*
X020526Y009199D01*
X020526Y009368D02*
X020600Y009368D01*
X020600Y009536D02*
X020488Y009536D01*
X020600Y009705D02*
X020358Y009705D01*
X019842Y009705D02*
X019358Y009705D01*
X019341Y009721D02*
X019185Y009786D01*
X019015Y009786D01*
X018859Y009721D01*
X018739Y009601D01*
X018674Y009445D01*
X018674Y008755D01*
X018739Y008599D01*
X018859Y008479D01*
X019015Y008414D01*
X019185Y008414D01*
X019341Y008479D01*
X019461Y008599D01*
X019526Y008755D01*
X019526Y009445D01*
X019461Y009601D01*
X019341Y009721D01*
X019488Y009536D02*
X019712Y009536D01*
X019674Y009368D02*
X019526Y009368D01*
X019526Y009199D02*
X019674Y009199D01*
X019674Y009031D02*
X019526Y009031D01*
X019526Y008862D02*
X019674Y008862D01*
X019700Y008694D02*
X019500Y008694D01*
X019387Y008525D02*
X019813Y008525D01*
X020762Y008188D02*
X015350Y008188D01*
X015350Y008020D02*
X015812Y008020D01*
X015893Y008100D02*
X015600Y007807D01*
X015600Y007600D01*
X016100Y007600D01*
X016600Y007600D01*
X016600Y007807D01*
X016307Y008100D01*
X016100Y008100D01*
X016100Y007600D01*
X016100Y007600D01*
X016100Y007600D01*
X016600Y007600D01*
X016600Y007393D01*
X016307Y007100D01*
X016100Y007100D01*
X016100Y007600D01*
X016100Y007600D01*
X016100Y007600D01*
X016100Y008100D01*
X015893Y008100D01*
X016100Y008020D02*
X016100Y008020D01*
X016100Y007851D02*
X016100Y007851D01*
X016100Y007683D02*
X016100Y007683D01*
X016100Y007600D02*
X015600Y007600D01*
X015600Y007393D01*
X015893Y007100D01*
X016100Y007100D01*
X016100Y007600D01*
X016100Y007514D02*
X016100Y007514D01*
X016100Y007346D02*
X016100Y007346D01*
X016100Y007177D02*
X016100Y007177D01*
X016384Y007177D02*
X016843Y007177D01*
X016901Y007119D02*
X017299Y007119D01*
X017581Y007401D01*
X017581Y007799D01*
X017299Y008081D01*
X016901Y008081D01*
X016619Y007799D01*
X016619Y007401D01*
X016901Y007119D01*
X016675Y007346D02*
X016553Y007346D01*
X016600Y007514D02*
X016619Y007514D01*
X016619Y007683D02*
X016600Y007683D01*
X016556Y007851D02*
X016671Y007851D01*
X016840Y008020D02*
X016388Y008020D01*
X015644Y007851D02*
X015350Y007851D01*
X015350Y007683D02*
X015600Y007683D01*
X015600Y007514D02*
X015350Y007514D01*
X015350Y007346D02*
X015647Y007346D01*
X015816Y007177D02*
X015350Y007177D01*
X015350Y007009D02*
X024100Y007009D01*
X024100Y007177D02*
X017357Y007177D01*
X017525Y007346D02*
X024100Y007346D01*
X024100Y007514D02*
X017581Y007514D01*
X017581Y007683D02*
X021267Y007683D01*
X021099Y007851D02*
X017529Y007851D01*
X017360Y008020D02*
X020930Y008020D01*
X020965Y006526D02*
X020809Y006461D01*
X020689Y006341D01*
X020624Y006185D01*
X020624Y006015D01*
X020689Y005859D01*
X020809Y005739D01*
X020965Y005674D01*
X021135Y005674D01*
X021291Y005739D01*
X021411Y005859D01*
X021476Y006015D01*
X021476Y006185D01*
X021411Y006341D01*
X021291Y006461D01*
X021135Y006526D01*
X020965Y006526D01*
X020911Y006503D02*
X019289Y006503D01*
X019235Y006526D02*
X019065Y006526D01*
X018909Y006461D01*
X018789Y006341D01*
X018724Y006185D01*
X018724Y006015D01*
X018789Y005859D01*
X018909Y005739D01*
X019065Y005674D01*
X019235Y005674D01*
X019391Y005739D01*
X019511Y005859D01*
X019576Y006015D01*
X019576Y006185D01*
X019511Y006341D01*
X019391Y006461D01*
X019235Y006526D01*
X019011Y006503D02*
X017377Y006503D01*
X017299Y006581D02*
X016901Y006581D01*
X016619Y006299D01*
X016619Y005901D01*
X016901Y005619D01*
X017299Y005619D01*
X017581Y005901D01*
X017581Y006299D01*
X017299Y006581D01*
X017545Y006335D02*
X018786Y006335D01*
X018724Y006166D02*
X017581Y006166D01*
X017581Y005998D02*
X018732Y005998D01*
X018819Y005829D02*
X017509Y005829D01*
X017340Y005661D02*
X022860Y005661D01*
X022901Y005619D02*
X023299Y005619D01*
X023581Y005901D01*
X023581Y006299D01*
X023299Y006581D01*
X022901Y006581D01*
X022619Y006299D01*
X022619Y005901D01*
X022901Y005619D01*
X022893Y005600D02*
X022600Y005307D01*
X022600Y005100D01*
X023100Y005100D01*
X023100Y005100D01*
X023100Y005600D01*
X023307Y005600D01*
X023600Y005307D01*
X023600Y005100D01*
X023100Y005100D01*
X023100Y005100D01*
X023100Y005100D01*
X023100Y005600D01*
X022893Y005600D01*
X022785Y005492D02*
X017415Y005492D01*
X017307Y005600D02*
X017600Y005307D01*
X017600Y005100D01*
X017100Y005100D01*
X017100Y005100D01*
X017100Y005600D01*
X017307Y005600D01*
X017100Y005600D02*
X016893Y005600D01*
X016600Y005307D01*
X016600Y005100D01*
X017100Y005100D01*
X017100Y005100D01*
X017100Y005100D01*
X017100Y005600D01*
X017100Y005492D02*
X017100Y005492D01*
X017100Y005324D02*
X017100Y005324D01*
X017100Y005155D02*
X017100Y005155D01*
X017100Y005100D02*
X016600Y005100D01*
X016600Y004893D01*
X016893Y004600D01*
X017100Y004600D01*
X017307Y004600D01*
X017600Y004893D01*
X017600Y005100D01*
X017100Y005100D01*
X017100Y004600D01*
X017100Y005100D01*
X017100Y005100D01*
X017100Y004987D02*
X017100Y004987D01*
X017100Y004818D02*
X017100Y004818D01*
X017100Y004650D02*
X017100Y004650D01*
X017357Y004650D02*
X022843Y004650D01*
X022893Y004600D02*
X022600Y004893D01*
X022600Y005100D01*
X023100Y005100D01*
X023600Y005100D01*
X023600Y004893D01*
X023307Y004600D01*
X023100Y004600D01*
X023100Y005100D01*
X023100Y005100D01*
X023100Y004600D01*
X022893Y004600D01*
X023100Y004650D02*
X023100Y004650D01*
X023100Y004818D02*
X023100Y004818D01*
X023100Y004987D02*
X023100Y004987D01*
X023100Y005155D02*
X023100Y005155D01*
X023100Y005324D02*
X023100Y005324D01*
X023100Y005492D02*
X023100Y005492D01*
X023340Y005661D02*
X024100Y005661D01*
X024100Y005829D02*
X023509Y005829D01*
X023581Y005998D02*
X024100Y005998D01*
X024100Y006166D02*
X023581Y006166D01*
X023545Y006335D02*
X024100Y006335D01*
X024100Y006503D02*
X023377Y006503D01*
X024100Y006672D02*
X015350Y006672D01*
X015350Y006840D02*
X024100Y006840D01*
X022823Y006503D02*
X021189Y006503D01*
X021414Y006335D02*
X022655Y006335D01*
X022619Y006166D02*
X021476Y006166D01*
X021468Y005998D02*
X022619Y005998D01*
X022691Y005829D02*
X021381Y005829D01*
X020719Y005829D02*
X019481Y005829D01*
X019568Y005998D02*
X020632Y005998D01*
X020624Y006166D02*
X019576Y006166D01*
X019514Y006335D02*
X020686Y006335D01*
X022616Y005324D02*
X017584Y005324D01*
X017600Y005155D02*
X022600Y005155D01*
X022600Y004987D02*
X017600Y004987D01*
X017525Y004818D02*
X022675Y004818D01*
X023357Y004650D02*
X024100Y004650D01*
X024100Y004818D02*
X023525Y004818D01*
X023600Y004987D02*
X024100Y004987D01*
X024100Y005155D02*
X023600Y005155D01*
X023584Y005324D02*
X024100Y005324D01*
X024100Y005492D02*
X023415Y005492D01*
X024100Y004481D02*
X015350Y004481D01*
X015350Y004650D02*
X016843Y004650D01*
X016675Y004818D02*
X015350Y004818D01*
X015350Y004987D02*
X016600Y004987D01*
X016600Y005155D02*
X015350Y005155D01*
X015350Y005324D02*
X016616Y005324D01*
X016785Y005492D02*
X015350Y005492D01*
X015350Y005661D02*
X016860Y005661D01*
X016691Y005829D02*
X015350Y005829D01*
X015350Y005998D02*
X016619Y005998D01*
X016619Y006166D02*
X015350Y006166D01*
X015350Y006335D02*
X016655Y006335D01*
X016823Y006503D02*
X015350Y006503D01*
X018100Y008525D02*
X018100Y008525D01*
X018100Y008694D02*
X018100Y008694D01*
X018100Y008862D02*
X018100Y008862D01*
X018100Y009031D02*
X018100Y009031D01*
X018100Y009199D02*
X018100Y009199D01*
X018100Y009368D02*
X018100Y009368D01*
X018100Y009536D02*
X018100Y009536D01*
X018100Y009705D02*
X018100Y009705D01*
X018383Y009705D02*
X018842Y009705D01*
X018712Y009536D02*
X018510Y009536D01*
X018545Y009368D02*
X018674Y009368D01*
X018674Y009199D02*
X018545Y009199D01*
X018545Y009031D02*
X018674Y009031D01*
X018674Y008862D02*
X018545Y008862D01*
X018520Y008694D02*
X018700Y008694D01*
X018813Y008525D02*
X018414Y008525D01*
D31*
X018850Y010350D02*
X018850Y011100D01*
X019100Y011100D02*
X019100Y010350D01*
X019600Y010350D02*
X019600Y011100D01*
X019850Y011100D02*
X019850Y010350D01*
X020100Y010350D02*
X020100Y011100D01*
X020350Y011100D02*
X020350Y010350D01*
X020600Y010350D02*
X020600Y011100D01*
X020656Y011100D02*
X020656Y010400D01*
D32*
X020100Y010350D02*
X019850Y010350D01*
X019600Y010350D02*
X019350Y010350D01*
X019350Y011100D01*
X019100Y011100D01*
X018850Y011100D02*
X018600Y011100D01*
X018600Y010350D01*
X018850Y010350D02*
X019100Y010350D01*
X019600Y011100D02*
X019850Y011100D01*
X020100Y011100D02*
X020350Y011100D01*
M02*
